<?xml version="1.0" encoding="UTF-8"?>
<svg version="1.1" viewBox="0 0 256 256" xmlns="http://www.w3.org/2000/svg">
 <path d="m147.31 135.2c0.419 1.073 0.627-0.207 5.041 3.788 4.411 3.995 5.135 6.248 5.891 6.107 0.754-0.14 44.277-70.126 46.073-69.7 1.795 0.426-10.069 47.883-12.272 48.053s-29.76-68.755-31.896-68.755c-5.843 0-13.257 79.434-12.837 80.507z" fill="#ff8080" stroke="#000"/>
 <g>
  <g stroke="#000">
   <path d="m132.59 232.46c-1.593 2.6 9.148 7.648 11.176 4.883 29.844-40.721 34.018-91.797 16.098-102.32-5.439-2.654-9.007-3.121-18.311-1.657 23.505 22.137 12.267 64.416-8.963 99.092z" fill="#f55"/>
   <path d="m135.51 231.71c-0.723 1.267 5.731 3.654 6.599 2.657 17.708-29.696 41.263-83.546 6.961-102.94l-11.358-2.505c39.794 24.579 14.137 76.726-2.202 102.78z" fill="#f95"/>
   <path d="m129.47 238.86c1.928 1.031-1.208 8.534-3.794 6.956-52.654-32.136-39.218-117.5 10.626-118.65 13.911 2.218 17.039 3.299 25.832 9.422-14.684-7.095-30.641-2.917-44.859 23.521-18.374 34.169-5.06 69.507 12.195 78.75z" fill="#ff8080"/>
  </g>
 </g>
 <path d="m121.88 136.66c-0.338 1.102-0.641-0.157-4.745 4.152-4.105 4.311-4.662 6.61-5.424 6.526-0.762-0.085-36.017-32.965-51.101-66.1-11.44-19.322-7.3416-69.873-5.3076-71.144 2.034-1.271 35.334 27.703 46.686 47.853 10.17 18.051 20.231 77.613 19.891 78.713z" fill="#ff8080" stroke="#000"/>
 <path d="m159.72 54.992c8.72-6.815 40.568 13.846 44.6 20.4 1.454 2.367-10.07 48.053-12.272 48.053-1.696-1e-3 -33.399-67.615-32.328-68.453z" fill="#faa" stroke="#000"/>
</svg>
