<?xml version="1.0" encoding="UTF-8"?>
<svg version="1.1" viewBox="0 0 256 256" xmlns="http://www.w3.org/2000/svg" xmlns:xlink="http://www.w3.org/1999/xlink">
 <defs>
  <linearGradient id="linearGradient21724" x1="116.33" x2="57.285" y1="138.72" y2="18.507" gradientUnits="userSpaceOnUse">
   <stop stop-color="#fd5" offset="0"/>
   <stop stop-color="#ffe680" offset=".30733"/>
   <stop stop-color="#fea" offset="1"/>
  </linearGradient>
  <linearGradient id="linearGradient21877" x1="159.28" x2="173.67" y1="129.99" y2="89.899" gradientUnits="userSpaceOnUse">
   <stop stop-color="#fd5" offset="0"/>
   <stop stop-color="#ffe680" offset="1"/>
  </linearGradient>
 </defs>
 <g>
  <path d="m116.46 141.56c-6.4982-13.457-13.483-10.049-21.373-19.567-20.414-24.628-43.024-59.854-38.086-109.01 18.153 15.734 32.688 30.234 41.125 45.318 10.665 19.068 13.732 37.944 16.986 56.03 1.6447 9.1435-3.8781 11.7 2.0896 26.029-1.9513 1.7372 0.74736-0.65082-0.74134 1.2021z" fill="url(#linearGradient21724)" stroke="#000" stroke-width=".75"/>
  <path d="m116.93 140.61c-0.24355-0.31679-0.19661-1.666-0.37935-1.9268-0.0618-0.0881-0.12816-0.18155-0.19788-0.27877-0.24712-0.3446-0.7018-0.96546-1.0519-1.4426-0.30345-0.41354-0.69318-0.9435-1.0975-1.4804-0.38545-0.51189-0.82921-1.0906-1.3671-1.7687-3.33-4.6447-7.3089-9.936-11.486-15.533-4.3871-5.878-8.7106-11.717-12.887-17.647-4.6528-6.6066-8.6001-12.59-11.885-18.119-4.3533-7.328-6.9042-12.795-8.4526-16.954 1.552 4.1682 4.0469 9.6357 8.3332 17.024 3.2329 5.5724 7.1083 11.595 11.688 18.268 4.1135 5.9935 8.3533 11.874 12.667 17.821 4.1041 5.659 7.9955 10.997 11.24 15.689 0.44915 0.72342 0.80448 1.3436 1.1094 1.8938 0.33454 0.60371 0.6124 1.1287 0.8769 1.6088 0.34012 0.61741 0.63553 1.1213 0.93917 1.5819 0.0689 0.10448 0.13589 0.20318 0.20058 0.2955 0.19099 0.27258 1.5053 0.65043 1.7488 0.96722z"/>
  <path d="m116.72 141.46c-0.0916-0.38895 0.44599-1.6464 0.35541-1.9666-0.0307-0.10847-0.0648-0.22278-0.10229-0.34218-0.16517-0.52641-0.36901-1.0738-0.63262-1.7275-0.36524-0.90579-0.90651-2.1441-1.4596-3.7527-1.586-5.4795-3.2642-11.868-5.057-18.625-1.8842-7.1014-3.7626-14.103-5.8087-21.078-2.2782-7.7667-4.497-14.576-6.7732-20.603-3.0178-7.9906-5.679-13.379-7.929-17.216 2.2447 3.8279 4.8703 9.2595 7.7991 17.264 2.2098 6.0395 4.3529 12.88 6.5334 20.66 1.957 6.9834 3.7508 14.024 5.5345 21.139 1.6983 6.7738 3.2852 13.201 4.781 18.717 0.37351 1.7003 0.71667 3.0213 0.96098 3.9633 0.14858 0.57286 0.34247 1.3176 0.45341 1.7269 0.0313 0.11547 0.0617 0.22596 0.091 0.32952 0.0867 0.30644 1.162 1.1226 1.2537 1.5115z"/>
 </g>
 <g>
  <path d="m156.29 132.18c2.7405-8.0004-1.597-15.037-1.371-20.129 0.67799-15.271 6.0548-38.62 8.2464-47.612l18.536 39.326c-3.7491 6.1169-7.4721 12.104-10.331 16.512-2.5843 3.9845-9.6177 4.8816-13.772 13.274z" fill="url(#linearGradient21877)" stroke="#000" stroke-width=".75"/>
  <path d="m156.96 132.94c0.0539-0.39594 1.0384-1.1902 1.0911-1.4363 0.0177-0.0829 0.0359-0.17019 0.054-0.25815 0.11646-0.5655 0.11817-0.5834 0.25507-1.2216 0.0738-0.34393 0.17283-0.80061 0.26854-1.3392 0.0913-0.51376 0.18807-1.1443 0.2929-2.0103 2.2747-13.355 4.1916-23.907 5.7896-32.441 1.4986-8.0035 2.8885-15.141 3.6331-18.827-0.82333 4.0762-2.1739 10.353-3.9347 18.767-1.7857 8.533-3.9203 18.977-6.4284 32.332-0.19769 0.82408-0.38215 1.4039-0.54943 1.8588-0.17403 0.47318-0.35729 0.87969-0.49604 1.2088-0.19322 0.45833-0.33662 0.84835-0.45173 1.2928-0.0255 0.0985-0.0482 0.19474-0.0681 0.28777-0.0587 0.27458 0.5981 1.3899 0.5442 1.7859z"/>
  <path d="m157.08 133.39c0.21204-0.3387 1.4218-0.75087 1.5487-0.98698 0.043-0.08 0.0858-0.1637 0.12767-0.25025 0.1896-0.39158 0.31999-0.74916 0.45598-1.18 0.0983-0.31146 0.20873-0.69237 0.37957-1.1408 0.16329-0.42864 0.39911-0.9698 0.79169-1.7232 4.3909-7.5436 7.1783-12.393 9.6852-16.774 3.1931-5.5802 5.9197-10.376 8.3577-14.536-2.2852 3.8989-5.268 8.8108-8.6882 14.339-2.5697 4.1536-5.6981 9.1774-10.175 16.481-0.48823 0.72086-0.8222 1.2401-1.0814 1.6626-0.27495 0.44813-0.48012 0.81218-0.64096 1.0987-0.12229 0.21781-0.47032 0.83919-0.56452 1.01-0.0412 0.0748-0.082 0.14936-0.12066 0.22123-0.11455 0.21304 0.13612 1.4402-0.0759 1.7789z"/>
 </g>
</svg>
