<?xml version="1.0" encoding="UTF-8"?>
<svg cursor="default" version="1.1" viewBox="0 0 256 256" xmlns="http://www.w3.org/2000/svg">
 <path d="m71.213 125.28-1.0557 31.507c12.927 0.25863 17.689 1.8143 18.679-3.4562 0.44391-2.3612 0.55983-4.7145 0.54975-7.0714-0.0084-2.11-0.23911-5.0774-4.4976-6.0514 2.2738-0.47988 3.7434-1.4087 4.1587-3.6088 0.04932-0.26413 0.37978-2.022 0.11261-4.7983-0.25071-2.5994-2.0977-5.7006-6.1833-5.9121zm8.7098 5.7215c1.423-0.0157 2.0461 0.41872 1.9863 3.6149-0.06145 3.3122-0.97104 3.4705-2.9382 3.3996l0.29397-6.9868c0.23696-0.0146 0.45494-0.0252 0.65793-0.0277zm-0.48018 11.939c1.377-0.0196 1.9783 0.5169 1.9235 4.454-0.05747 4.0802-0.93797 4.2734-2.8432 4.1854l0.28078-8.6068c0.22896-0.0166 0.44192-0.0301 0.63892-0.0326z" fill="#fd5" fill-rule="evenodd" stroke="#000"/>
 <path d="m70.143 126.39-1.0547 31.507c12.926 0.25864 17.689 1.8144 18.678-3.4562 0.4439-2.3622 0.55983-4.7155 0.55075-7.0714-0.0084-2.11-0.24011-5.0774-4.4986-6.0514 2.2738-0.47987 3.7434-1.4097 4.1587-3.6088 0.04932-0.26412 0.37978-2.022 0.11261-4.7993-0.24971-2.5984-2.0967-5.7006-6.1833-5.9111l-11.764-0.60964zm8.7108 5.7215c1.422-0.0167 2.0451 0.41772 1.9853 3.6149-0.06145 3.3112-0.97104 3.4705-2.9382 3.3996l0.29496-6.9878c0.23597-0.0136 0.45494-0.0242 0.65793-0.0267zm-0.48118 11.939c1.378-0.0196 1.9793 0.51689 1.9235 4.453-0.05747 4.0802-0.93797 4.2744-2.8422 4.1854l0.27979-8.6058c0.22996-0.0176 0.44192-0.0311 0.63992-0.0327z" fill="#fff6d5" fill-rule="evenodd" stroke="#000"/>
 <path d="m79.881 127.83c0.62383 0.0453 1.4435 0.0939 2.3434 0.32115 0.67116 0.16955 1.3108 0.42057 1.9096 0.77967 0.59669 0.3578 1.094 0.78813 1.5019 1.2513 0.53153 0.60352 0.86736 1.2151 1.0251 1.6227 0.0016 4e-3 0.0032 8e-3 0.0047 0.0124 0.31311 0.81966 0.45121 2.1256 0.31596 3.5952-0.12517 1.36-0.44716 2.4561-0.50791 2.9322 0.05697-0.44644-0.01005-1.6076-0.27612-2.8912-0.32001-1.5438-0.68097-2.2536-0.99558-3.0771-0.0013-3e-3 -0.0026-7e-3 -0.0039-0.0103-0.12545-0.33045-0.29604-0.88493-0.59206-1.4662-0.22901-0.44969-0.53199-0.91625-0.95334-1.3529-0.42526-0.44071-0.93634-0.81439-1.5338-1.1056-0.79497-0.38764-1.6207-0.56635-2.2381-0.6112z" fill="#fff"/>
 <path d="m83.181 142.61c0.37212 0.01 0.88126-0.0164 1.489 0.17673 0.51212 0.16272 0.94096 0.43937 1.268 0.75767 0.14755 0.14364 0.26027 0.28285 0.33103 0.39313 0.14792 0.23054 0.30827 0.54218 0.4542 0.94508 0.16374 0.45202 0.29628 0.98225 0.3874 1.5972 0.16166 1.091 0.16712 2.2719 0.09397 3.3883-0.08695 1.3268-0.28422 2.4756-0.33984 2.9115 0.06478-0.50768 0.12488-1.5661 0.0572-2.9138-0.05582-1.1115-0.19762-2.2408-0.46601-3.2522-0.1505-0.56718-0.323-1.0308-0.50252-1.4152-0.15927-0.34108-0.31121-0.59248-0.43222-0.7811-0.05806-0.0905-0.12721-0.2175-0.21297-0.36067-0.18649-0.31136-0.42866-0.6579-0.80342-0.94448-0.4437-0.33929-0.9556-0.49238-1.3237-0.50216z" fill="#fff"/>
 <g fill="#fd5" stroke="#000" stroke-linejoin="bevel">
  <path d="m172.42 125.21c-5.1357 0.0583-8.8289 3.3668-8.798 7.8855l0.44728 18.282c0.0409 4.6162 4.0061 6.9637 9.5147 6.953 5.2502-0.0102 9.5833-2.3827 9.3818-7.5032l-0.54699-18.764c-0.26575-3.8822-5.3948-6.9055-9.9988-6.8532zm0.54341 5.3614c0.53253-0.01 1.3188 0.20435 1.3664 2.1078l0.45696 18.199c0.0439 1.7555-0.6815 2.0199-1.2495 2.0312-0.42979 8e-3 -1.2062-0.0943-1.2665-2.0145l-0.5665-18.044c-0.062-1.974 0.7642-2.27 1.2591-2.2795z"/>
  <path d="m94.882 157.55 0.63751-31.809 8.0187 0.1385-0.37168 31.725z"/>
  <path d="m109.23 157.74v-31.683l10.664-0.0441 2.2473 14.762 1.9389-14.806h10.752l0.0441 31.815-7.2267-0.0881 0.0441-21.416-2.9083 21.46h-5.1115l-3.1286-21.019v21.063z"/>
 </g>
 <path d="m93.894 158.93 0.63751-31.809 8.0187 0.1385-0.37167 31.725z" fill="#fff6d5" stroke="#000" stroke-linejoin="bevel"/>
 <path d="m95.816 128.19c0.78236-0.0112 2.1301-0.14254 3.1333-0.11245 0.42992 0.0129 0.80361 0.0516 1.1328 0.12405 0.41369 0.0911 0.71975 0.2287 0.92555 0.37569 0.0372 0.0265 0.0701 0.0528 0.0987 0.0782 0.14941 0.13299 0.3142 0.36808 0.42475 0.67804 0.0954 0.26746 0.13861 0.55298 0.14524 0.85777 6e-3 0.29504-0.0217 0.59397-0.054 0.8763-0.0436 0.3809-0.0913 0.71137-0.0876 0.94815-4e-3 -0.22549-0.0664-0.57894-0.17688-0.92308-0.0856-0.26648-0.19474-0.5142-0.3272-0.72634-0.13533-0.21675-0.27556-0.36611-0.41135-0.47986-0.15402-0.12902-0.28811-0.20231-0.36635-0.27194-0.0155-0.0138-0.0318-0.0298-0.0497-0.0481-0.0924-0.0942-0.2349-0.26062-0.49654-0.44285-0.21459-0.14946-0.49622-0.3011-0.87139-0.44036-0.9054-0.33607-2.156-0.5056-3.0192-0.49335z" fill="#fff"/>
 <path d="m140.36 126.67 0.38292 31.522c12.925-0.33142 17.753 1.0054 18.502-4.3049 0.33571-2.379 0.34415-4.7351 0.22654-7.0892-0.1047-2.1074-0.47051-5.0612-4.769-5.8399 2.2495-0.58311 3.6752-1.578 3.9897-3.7947 0.0372-0.2661 0.28713-2.0372-0.10643-4.7984-0.36905-2.5852-2.3556-5.599-6.4466-5.6238zm8.9618 5.3182c1.4208-0.0806 2.0631 0.32493 2.1492 3.5205 0.0897 3.3115-0.81169 3.5112-2.7801 3.5301l-0.0251-6.9929c0.23605-0.0254 0.45331-0.0458 0.65598-0.0576zm0.065 11.949c1.3746-0.0824 1.9999 0.4261 2.1247 4.3617 0.12875 4.0785-0.74202 4.3118-2.6493 4.3107l-0.11218-8.6106c0.22796-0.0271 0.44008-0.0503 0.63676-0.0618z" fill="#fd5" fill-rule="evenodd" stroke="#000"/>
 <path d="m141.37 127.92 0.38392 31.522c12.924-0.33137 17.753 1.0054 18.501-4.3048 0.33567-2.38 0.34412-4.7361 0.22754-7.0892-0.1047-2.1074-0.47151-5.0612-4.77-5.8398 2.2495-0.58311 3.6752-1.579 3.9897-3.7947 0.0372-0.26611 0.28713-2.0372-0.10648-4.7994-0.36799-2.5843-2.3546-5.599-6.4465-5.6228l-11.779-0.0723zm8.9628 5.3182c1.4197-0.0815 2.062 0.32397 2.1482 3.5205 0.0897 3.3105-0.8117 3.5112-2.7801 3.5301l-0.0242-6.994c0.2351-0.0243 0.45336-0.045 0.65602-0.0567zm0.064 11.949c1.3756-0.0824 2.0009 0.42604 2.1247 4.3607 0.12874 4.0785-0.74198 4.3128-2.6483 4.3107l-0.11314-8.6096c0.22891-0.028 0.44005-0.0513 0.63777-0.0618z" fill="#fff6d5" fill-rule="evenodd" stroke="#000"/>
 <path d="m151.16 128.91c0.62525 0.0168 1.4464 0.0279 2.3556 0.21389 0.6782 0.13874 1.3286 0.36032 1.9432 0.69172 0.61239 0.3302 1.1288 0.7374 1.5574 1.1814 0.55851 0.57864 0.92189 1.1742 1.0981 1.5742 2e-3 4e-3 4e-3 8e-3 5e-3 0.0122 0.35017 0.80451 0.54772 2.1029 0.47966 3.577-0.063 1.3643-0.33464 2.4739-0.37361 2.9524 0.0365-0.44858-0.0834-1.6054-0.40774-2.8756-0.39011-1.5276-0.78307-2.2201-1.1349-3.0285-1e-3 -3e-3 -3e-3 -7e-3 -4e-3 -0.0101-0.1404-0.32438-0.3361-0.8705-0.65834-1.4376-0.24929-0.43878-0.57323-0.89102-1.0141-1.308-0.44492-0.42086-0.97252-0.77082-1.5826-1.0346-0.81183-0.35096-1.6448-0.4918-2.2636-0.50843z" fill="#fff"/>
 <path d="m155.13 143.52c0.37218-7e-3 0.87959-0.0566 1.4955 0.1086 0.51901 0.13918 0.96002 0.39598 1.3012 0.69903 0.15395 0.13676 0.27291 0.27068 0.34862 0.37762 0.15827 0.22355 0.33268 0.52755 0.49685 0.92336 0.18419 0.4441 0.34078 0.96773 0.45987 1.5779 0.21127 1.0824 0.2706 2.2619 0.24846 3.3804-0.0263 1.3294-0.17098 2.486-0.20665 2.924 0.0416-0.51011 0.0533-1.5702-0.0758-2.9133-0.10647-1.1078-0.29964-2.2295-0.6139-3.2276-0.17623-0.55972-0.3697-1.0149-0.56656-1.3908-0.17466-0.33345-0.33791-0.57766-0.46741-0.76057-0.0621-0.0877-0.137-0.21146-0.2292-0.35058-0.2005-0.30252-0.45822-0.63765-0.84567-0.90683-0.45872-0.31868-0.97708-0.44826-1.3453-0.44123z" fill="#fff"/>
 <path d="m173.78 126.17c-5.1357 0.0583-8.8289 3.3668-8.798 7.8855l0.44728 18.282c0.0409 4.6162 4.0061 6.9637 9.5147 6.953 5.2502-0.0102 9.5833-2.3827 9.3818-7.5032l-0.54699-18.764c-0.26575-3.8822-5.3948-6.9055-9.9988-6.8532zm0.54341 5.3614c0.53253-0.01 1.3188 0.20435 1.3664 2.1078l0.45696 18.199c0.0439 1.7555-0.6815 2.0199-1.2495 2.0312-0.42979 8e-3 -1.2062-0.0943-1.2665-2.0145l-0.5665-18.044c-0.062-1.974 0.7642-2.27 1.2591-2.2795z" fill="#fff6d5" stroke="#000" stroke-linejoin="bevel"/>
 <path d="m109.23 159.36v-31.683l10.664-0.0441 2.2473 14.762 1.9389-14.806h10.752l0.0441 31.815-7.2267-0.0881 0.0441-21.416-2.9083 21.46h-5.1115l-3.1286-21.019v21.063z" fill="#fff6d5" stroke="#000" stroke-linejoin="bevel"/>
 <g fill="#fff">
  <path d="m175.15 128.15c0.62525 0.0168 1.4464 0.0279 2.3556 0.21389 0.6782 0.13874 1.3286 0.36032 1.9432 0.69172 0.61239 0.3302 1.1288 0.7374 1.5574 1.1814 0.55851 0.57864 0.92189 1.1742 1.0981 1.5742 2e-3 4e-3 4e-3 8e-3 5e-3 0.0122 0.35017 0.80451 0.54772 2.1029 0.47966 3.577-0.063 1.3643-0.33464 2.4739-0.37361 2.9524 0.0365-0.44858-0.0834-1.6054-0.40774-2.8756-0.39011-1.5276-0.78307-2.2201-1.1349-3.0285-1e-3 -3e-3 -3e-3 -7e-3 -4e-3 -0.0101-0.1404-0.32438-0.3361-0.8705-0.65834-1.4376-0.24929-0.43878-0.57323-0.89102-1.0141-1.308-0.44492-0.42086-0.97252-0.77082-1.5826-1.0346-0.81183-0.35096-1.6448-0.4918-2.2636-0.50843z"/>
  <path d="m113.26 128.62c0.78242-6e-3 2.131-0.12844 3.134-0.0917 0.42981 0.0157 0.80324 0.0569 1.1319 0.13154 0.41309 0.0938 0.71823 0.23346 0.92305 0.38181 0.037 0.0268 0.0698 0.0533 0.0982 0.0789 0.14854 0.13397 0.31176 0.37015 0.42025 0.68083 0.0936 0.26809 0.13495 0.55389 0.13957 0.85872 4e-3 0.29507-0.0256 0.59381-0.0599 0.87592-0.0461 0.3806-0.096 0.71075-0.0939 0.94755-2e-3 -0.22551-0.0626-0.57937-0.17077-0.92423-0.0838-0.26704-0.19132-0.51548-0.32238-0.72849-0.1339-0.21764-0.27312-0.36793-0.40816-0.48258-0.15317-0.13003-0.28676-0.20421-0.36454-0.27436-0.0154-0.0139-0.0317-0.03-0.0494-0.0484-0.0918-0.0948-0.23318-0.26217-0.49361-0.44613-0.2136-0.15088-0.4942-0.30438-0.86845-0.44612-0.90315-0.34206-2.1526-0.51987-3.0159-0.51333z"/>
  <path d="m128.24 128.53c0.78242-6e-3 2.131-0.12844 3.134-0.0917 0.42981 0.0157 0.80324 0.0569 1.1319 0.13154 0.41309 0.0938 0.71823 0.23346 0.92305 0.38181 0.037 0.0268 0.0698 0.0533 0.0982 0.0789 0.14854 0.13397 0.31176 0.37015 0.42025 0.68083 0.0936 0.26809 0.13495 0.55389 0.13957 0.85872 4e-3 0.29507-0.0257 0.59381-0.0599 0.87592-0.0462 0.3806-0.096 0.71075-0.0939 0.94755-2e-3 -0.22551-0.0626-0.57937-0.17077-0.92423-0.0838-0.26704-0.19132-0.51548-0.32238-0.72849-0.1339-0.21764-0.27312-0.36793-0.40816-0.48258-0.15317-0.13003-0.28676-0.20421-0.36454-0.27436-0.0154-0.0139-0.0317-0.03-0.0494-0.0484-0.0918-0.0948-0.23318-0.26217-0.49361-0.44613-0.2136-0.15088-0.4942-0.30438-0.86845-0.44612-0.90315-0.34206-2.1526-0.51987-3.0159-0.51333z"/>
 </g>
</svg>
