<?xml version="1.0" encoding="UTF-8"?>
<svg cursor="default" version="1.1" viewBox="0 0 256 256" xmlns="http://www.w3.org/2000/svg">
 <path d="m74.527 125.35-0.95574 31.51c12.927 0.21763 17.694 1.7582 18.668-3.5155 0.43642-2.3626 0.54488-4.7162 0.52732-7.0732-0.01514-2.11-0.25521-5.0766-4.5168-6.0371 2.2722-0.48708 3.7389-1.4205 4.1472-3.6219 0.04848-0.26429 0.37337-2.0232 0.0974-4.7986-0.25895-2.5986-2.1158-5.6939-6.202-5.8924zm8.7279 5.6939c1.4229-0.0202 2.0474 0.41223 1.9978 3.6086-0.05094 3.3123-0.96003 3.4736-2.9274 3.4089l0.2718-6.9877c0.23692-0.0154 0.45485-0.0266 0.65784-0.0298zm-0.44231 11.941c1.3769-0.0239 1.98 0.51062 1.9376 4.4479-0.04453 4.0803-0.92441 4.2764-2.8299 4.1944l0.25348-8.6076c0.2289-0.0173 0.44182-0.0315 0.63881-0.0347z" fill="#fd5" fill-rule="evenodd" stroke="#000"/>
 <path d="m73.461 126.46-0.95474 31.51c12.926 0.21763 17.694 1.7582 18.667-3.5154 0.43641-2.3636 0.54487-4.7172 0.52832-7.0732-0.01514-2.11-0.25621-5.0766-4.5178-6.0371 2.2722-0.48708 3.7389-1.4215 4.1472-3.6219 0.04848-0.26428 0.37337-2.0232 0.09739-4.7996-0.25795-2.5976-2.1148-5.6939-6.202-5.8914l-11.765-0.57232zm8.7289 5.6939c1.4219-0.0212 2.0464 0.41123 1.9968 3.6086-0.05095 3.3114-0.96003 3.4736-2.9274 3.4089l0.2728-6.9887c0.23592-0.0144 0.45486-0.0256 0.65785-0.0288zm-0.44331 11.941c1.3779-0.0239 1.981 0.51061 1.9376 4.4469-0.04453 4.0803-0.92441 4.2774-2.8289 4.1944l0.25249-8.6066c0.2299-0.0183 0.44182-0.0325 0.63981-0.0347z" fill="#fff6d5" fill-rule="evenodd" stroke="#000"/>
 <path d="m83.202 127.87c0.62397 0.0433 1.4438 0.0893 2.3444 0.31371 0.67169 0.16742 1.3121 0.41641 1.9121 0.77361 0.59782 0.35591 1.0965 0.78467 1.5059 1.2466 0.53344 0.60183 0.87121 1.2123 1.0302 1.6194 0.0016 4e-3 0.0032 8e-3 0.0048 0.0124 0.3157 0.81866 0.45795 2.1242 0.32736 3.5942-0.12086 1.3604-0.43937 2.4575-0.49861 2.9338 0.05555-0.44662-0.01515-1.6075-0.28529-2.8903-0.3249-1.5428-0.68811-2.2514-1.0053-3.074-0.0013-3e-3 -0.0026-7e-3 -4e-3 -0.0103-0.1265-0.33005-0.29884-0.88399-0.5967-1.4643-0.23044-0.44896-0.53489-0.91455-0.95762-1.3499-0.42665-0.43936-0.93892-0.81141-1.5373-1.1008-0.7962-0.38512-1.6225-0.56121-2.24-0.6041z" fill="#fff"/>
 <path d="m86.55 142.64c0.37215 9e-3 0.8812-0.0192 1.4895 0.17199 0.51264 0.16109 0.94235 0.43639 1.2704 0.75365 0.14801 0.14318 0.26117 0.28203 0.33227 0.39208 0.14865 0.23008 0.30999 0.5412 0.4572 0.94362 0.16517 0.45151 0.29939 0.98133 0.39247 1.596 0.16512 1.0905 0.17432 2.2713 0.10471 3.388-0.08274 1.3271-0.27637 2.4765-0.3306 2.9126 0.06317-0.50789 0.11991-1.5665 0.04796-2.9139-0.05934-1.1113-0.20472-2.2402-0.47632-3.2507-0.1523-0.5667-0.32627-1.0297-0.507-1.4136-0.16035-0.34057-0.31309-0.5915-0.43469-0.77973-0.05835-0.0903-0.1279-0.21709-0.21412-0.35999-0.18748-0.31077-0.43074-0.65654-0.80641-0.94193-0.44477-0.33788-0.95716-0.48934-1.3253-0.49795z" fill="#fff"/>
 <g fill="#fd5" stroke="#000" stroke-linejoin="bevel">
  <path d="m97.898 157.9 0.6814-31.808 8.0185 0.14957-0.41545 31.725z"/>
  <path d="m111.32 126.03v6.2572h4.8472l0.17626 25.47 8.1961-0.0881 0.0881-25.381 4.759 0.0881v-6.3454z"/>
  <path d="m144.31 139.79-0.16106-8.1068c-0.0355-1.7835-2.6449-1.8078-2.6446-0.0643l4e-3 20.006c3.1e-4 1.5142 2.9014 0.94192 2.9066-0.20244l0.0294-6.5222 8.2398-0.0741c0.50655 10.07-3.7859 13.682-9.615 13.747-4.7279 0.0527-9.6622-1.516-9.9566-9.517l-0.14441-14.857c0.10734-4.3384 2.1237-9.3699 9.7115-9.1135 9.9619 0.33662 9.9133 8.6042 9.9153 14.717z"/>
  <path d="m157.25 126.11 0.65986 31.632 8.3264-0.1737-0.32257-13.348 2.5561-9e-3 0.27848 13.349 8.1943-0.17095-0.61856-31.765-8.2374 0.21596 0.23619 11.323-2.5112 0.0523-0.28029-11.321z"/>
 </g>
 <g fill="#fff6d5" stroke="#000" stroke-linejoin="bevel">
  <path d="m96.728 159.08 0.6814-31.808 8.0185 0.14957-0.41545 31.725z"/>
  <path d="m111.32 127.53v6.2572h4.8472l0.17626 25.47 8.1961-0.0881 0.0881-25.381 4.759 0.0881v-6.3454z"/>
  <path d="m145.39 140.86-0.16106-8.1068c-0.0355-1.7835-2.6449-1.8078-2.6446-0.0643l4e-3 20.006c3.1e-4 1.5142 2.9014 0.94192 2.9066-0.20244l0.0294-6.5222 8.2398-0.0741c0.50655 10.07-3.7859 13.682-9.615 13.747-4.7279 0.0527-9.6622-1.516-9.9566-9.517l-0.14441-14.857c0.10734-4.3384 2.1237-9.3699 9.7115-9.1135 9.9619 0.33662 9.9133 8.6042 9.9153 14.717z"/>
  <path d="m158.49 127.25 0.65986 31.632 8.3264-0.1737-0.32257-13.348 2.5561-9e-3 0.27848 13.349 8.1943-0.17095-0.61856-31.765-8.2374 0.21596 0.23618 11.323-2.5112 0.0523-0.28029-11.321z"/>
 </g>
 <g fill="#fff">
  <path d="m144.98 127.91c0.62371 0.0469 1.4433 0.0976 2.3426 0.3272 0.67072 0.17128 1.3097 0.42395 1.9076 0.78459 0.59576 0.35934 1.092 0.79096 1.4987 1.2552 0.52997 0.60489 0.86421 1.2173 1.0209 1.6253 2e-3 4e-3 3e-3 8e-3 5e-3 0.0124 0.31098 0.82046 0.44572 2.1268 0.30668 3.596-0.12868 1.3597-0.45349 2.4549-0.51548 2.9309 0.0581-0.44629-6e-3 -1.6076-0.26866-2.8919-0.31603-1.5446-0.67515-2.2553-0.98763-3.0797-1e-3 -3e-3 -3e-3 -7e-3 -4e-3 -0.0103-0.1246-0.33077-0.29376-0.88569-0.58828-1.4677-0.22785-0.45028-0.52961-0.91762-0.94984-1.3554-0.42412-0.44181-0.93423-0.8168-1.5309-1.1096-0.79397-0.38969-1.6192-0.57053-2.2365-0.61697z"/>
  <path d="m170.78 127.92c0.78244 3e-3 2.1324-0.10326 3.1349-0.0547 0.4296 0.0208 0.80252 0.0664 1.1303 0.1449 0.41195 0.0987 0.71542 0.24193 0.91847 0.39269 0.0367 0.0272 0.0692 0.0541 0.0973 0.08 0.14694 0.13572 0.30737 0.37381 0.41218 0.68575 0.0904 0.26918 0.12839 0.55545 0.1294 0.86031 5.2e-4 0.2951-0.0327 0.59347-0.0702 0.87515-0.0507 0.38003-0.10439 0.70957-0.10509 0.94638 6.7e-4 -0.22552-0.0557-0.58007-0.15983-0.92619-0.0806-0.26801-0.18522-0.5177-0.31375-0.73224-0.13132-0.21921-0.26876-0.37114-0.40244-0.48737-0.15161-0.13183-0.28433-0.20759-0.36127-0.27865-0.0152-0.0141-0.0312-0.0304-0.0488-0.049-0.0907-0.0959-0.23005-0.26491-0.4883-0.45193-0.2118-0.15339-0.49057-0.3102-0.86311-0.45635-0.89905-0.3527-2.1463-0.54526-3.0096-0.54892z"/>
  <path d="m160.02 128.19c0.78243 3e-3 2.1324-0.10326 3.1349-0.0547 0.4296 0.0208 0.80252 0.0664 1.1303 0.1449 0.41194 0.0987 0.71541 0.24193 0.91846 0.39269 0.0367 0.0272 0.0692 0.0541 0.0973 0.08 0.14694 0.13572 0.30737 0.37381 0.41218 0.68575 0.0904 0.26918 0.1284 0.55544 0.12941 0.86031 5.1e-4 0.29509-0.0326 0.59346-0.0702 0.87515-0.0507 0.38003-0.10439 0.70957-0.10508 0.94637 6.6e-4 -0.22551-0.0558-0.58006-0.15983-0.92618-0.0806-0.26801-0.18523-0.5177-0.31376-0.73225-0.13132-0.2192-0.26876-0.37113-0.40244-0.48736-0.15161-0.13183-0.28432-0.20759-0.36127-0.27865-0.0152-0.0141-0.0313-0.0304-0.0488-0.049-0.0907-0.0959-0.23006-0.26491-0.48831-0.45193-0.21179-0.15339-0.49057-0.3102-0.86311-0.45635-0.89904-0.35271-2.1463-0.54526-3.0096-0.54892z"/>
  <path d="m122.71 128.33c0.78242-6e-3 2.131-0.12844 3.134-0.0917 0.42982 0.0157 0.80325 0.0569 1.1319 0.13154 0.41308 0.0938 0.71822 0.23346 0.92304 0.38181 0.037 0.0268 0.0698 0.0533 0.0982 0.0789 0.14853 0.13397 0.31176 0.37015 0.42025 0.68083 0.0936 0.26809 0.13495 0.55389 0.13956 0.85872 4e-3 0.29507-0.0257 0.59381-0.0599 0.87592-0.0462 0.3806-0.096 0.71075-0.0939 0.94755-2e-3 -0.22551-0.0626-0.57937-0.17076-0.92423-0.0838-0.26704-0.19133-0.51548-0.32238-0.72849-0.1339-0.21764-0.27313-0.36793-0.40817-0.48258-0.15316-0.13003-0.28676-0.20421-0.36454-0.27436-0.0154-0.0139-0.0316-0.03-0.0494-0.0484-0.0918-0.0948-0.23317-0.26217-0.49361-0.44613-0.21359-0.15088-0.4942-0.30438-0.86844-0.44612-0.90315-0.34206-2.1526-0.51987-3.0159-0.51333z"/>
  <path d="m98.688 128.35c0.78238-0.0102 2.1303-0.13961 3.1335-0.10813 0.42989 0.0135 0.80353 0.0527 1.1326 0.12561 0.41357 0.0917 0.71944 0.22969 0.92504 0.37697 0.0372 0.0266 0.0701 0.0529 0.0986 0.0784 0.14923 0.13319 0.31369 0.36851 0.42381 0.67862 0.0951 0.26759 0.13785 0.55317 0.14406 0.85797 6e-3 0.29504-0.0225 0.59394-0.0552 0.87622-0.0442 0.38083-0.0923 0.71125-0.0889 0.94803-3e-3 -0.22549-0.0656-0.57903-0.1756-0.92332-0.0852-0.26659-0.19403-0.51447-0.32619-0.72679-0.13505-0.21693-0.27506-0.3665-0.4107-0.48044-0.15383-0.12922-0.28782-0.2027-0.36597-0.27244-0.0155-0.0138-0.0318-0.0298-0.0497-0.0481-0.0923-0.0943-0.23454-0.26093-0.49595-0.44353-0.21439-0.14976-0.49578-0.30179-0.87076-0.44156-0.90494-0.33732-2.1553-0.50858-3.0186-0.49751z"/>
 </g>
</svg>
