<?xml version="1.0" encoding="UTF-8"?>
<svg cursor="default" version="1.1" viewBox="0 0 256 256" xmlns="http://www.w3.org/2000/svg" xmlns:xlink="http://www.w3.org/1999/xlink">
 <g fill-rule="evenodd" stroke="#000">
  <path d="m135.5 127.31 0.3161 31.113c8.6058 0.0809 18.489 0.89322 18.612-5.5192 0.10203-5.31 0.14604-10.819-0.45715-19.935-0.17006-2.5711-2.5958-5.5301-6.6892-5.5636zm10.844 8.4979c0.038 1.3828 0.26509 10.078 0.2931 13.407 0.034 4.1512-1.3784 3.7091-2.5138 3.717l-0.32611-20.299c2.5658 0.0217 2.5108 1.8772 2.5458 3.1741z" fill="#fd5" stroke-width=".99363"/>
  <path d="m59.09 125.26-1.137 31.504c12.926 0.292 17.684 1.86 18.688-3.408 0.45-2.36 0.572-4.713 0.568-7.07-3e-3 -2.11-0.226-5.078-4.482-6.063 2.275-0.474 3.747-1.399 4.168-3.598 0.05-0.264 0.385-2.021 0.125-4.798-0.244-2.6-2.083-5.706-6.168-5.928zm8.695 5.744c1.423-0.012 2.045 0.424 1.977 3.62-0.07 3.312-0.98 3.468-2.947 3.392l0.312-6.986c0.237-0.014 0.455-0.024 0.658-0.026zm-0.511 11.938c1.377-0.016 1.977 0.522 1.912 4.459-0.068 4.08-0.949 4.271-2.854 4.178l0.303-8.606c0.229-0.016 0.442-0.029 0.639-0.031z" fill="#fd5"/>
  <path d="m58.017 126.37-1.136 31.504c12.925 0.292 17.684 1.86 18.687-3.408 0.45-2.361 0.572-4.714 0.569-7.07-3e-3 -2.11-0.227-5.078-4.483-6.063 2.275-0.474 3.747-1.4 4.168-3.598 0.05-0.264 0.385-2.021 0.125-4.799-0.243-2.599-2.082-5.706-6.168-5.927l-11.762-0.64zm8.696 5.744c1.422-0.013 2.044 0.423 1.976 3.62-0.07 3.311-0.98 3.468-2.947 3.392l0.313-6.987c0.236-0.013 0.455-0.023 0.658-0.025zm-0.512 11.938c1.378-0.016 1.978 0.522 1.912 4.458-0.068 4.08-0.949 4.272-2.853 4.178l0.302-8.605c0.23-0.017 0.442-0.03 0.64-0.031z" fill="#fff6d5"/>
  <path d="m81.172 126.39-0.731 31.516c2.829 0.027 8.076 0.195 8.076 0.195l0.435-14.521c1.323 0.048 2.16 0.833 2.116 2.922-0.08 3.88-0.327 11.59-0.327 11.59l8.297 0.183s0.333-8.693 0.299-11.05c-0.03-2.11-0.069-5.12-4.337-6.05 2.269-0.502 3.728-1.446 4.121-3.65 0.047-0.265 0.36-2.026 0.063-4.8-0.277-2.596-2.155-5.679-6.243-5.848zm8.768 5.631c1.422-0.03 2.05 0.397 2.023 3.594-0.027 3.313-0.936 3.481-2.903 3.43l0.222-6.99c0.236-0.016 0.455-0.03 0.658-0.034z" fill="#fd5"/>
  <path d="m79.832 127.64-0.73 31.516c2.828 0.027 8.075 0.195 8.075 0.195l0.436-14.521c1.322 0.048 2.16 0.833 2.116 2.922-0.081 3.88-0.327 11.59-0.327 11.59l8.297 0.183s0.332-8.693 0.298-11.05c-0.03-2.11-0.068-5.12-4.336-6.05 2.268-0.502 3.728-1.446 4.12-3.65 0.048-0.265 0.36-2.026 0.064-4.8-0.277-2.596-2.156-5.679-6.244-5.848zm8.769 5.631c1.422-0.03 2.05 0.397 2.023 3.594-0.028 3.313-0.936 3.481-2.903 3.43l0.222-6.99c0.236-0.016 0.455-0.03 0.658-0.034z" fill="#fff6d5"/>
  <path d="m136.16 128.72 0.31711 31.112c8.6048 0.0809 18.489 0.89322 18.611-5.5192 0.10204-5.31 0.14605-10.818-0.45615-19.934-0.17005-2.5711-2.5968-5.531-6.6892-5.5646zm10.844 8.496c0.038 1.3847 0.26608 10.079 0.29309 13.408 0.034 4.1512-1.3784 3.7091-2.5138 3.718l-0.3261-20.299c2.5658 0.0207 2.5108 1.8763 2.5468 3.1732z" fill="#fff6d5" stroke-width=".99363"/>
  <path d="m101.86 127.34-0.58 30.937 14.107 0.178v-6.071l-5.759-0.09v-7.053l5.179 0.09-0.045-5.715-4.955-0.223 0.044-6.027 5.402 0.09 0.134-6.072z" fill="#fd5"/>
  <path d="m101.32 128.77-0.58 30.937 14.107 0.179v-6.071l-5.759-0.09v-7.053l5.179 0.089-0.045-5.714-4.955-0.224 0.044-6.026 5.402 0.089 0.134-6.071z" fill="#fff6d5"/>
  <path d="m156.74 127.05 0.46581 31.349 14.1-0.30396-0.20592-6.1472-5.7566 0.1074-0.23791-7.1432 5.1759-0.0871-0.23791-5.7855-4.958-0.0557-0.15993-6.1047 5.4008-0.0942-0.072-6.1533z" fill="#fd5" stroke-width="1.0064"/>
  <path d="m158.16 128.21 0.4858 31.349 14.099-0.31207-0.20991-6.1482-5.7556 0.11146-0.2429-7.1432 5.1769-0.0912-0.2419-5.7845-4.958-0.0527-0.16294-6.1047 5.3998-0.0983-0.075-6.1523z" fill="#fff6d5" stroke-width="1.0064"/>
  <path d="m173.48 126.44 1.263 31.499c2.826-0.152 8.073-0.316 8.073-0.316l-0.484-14.52c1.323-0.036 2.207 0.695 2.296 2.782 0.165 3.877 0.407 11.587 0.407 11.587l8.292-0.341s-0.218-8.697-0.4-11.047c-0.164-2.103-0.393-5.104-4.712-5.763 2.233-0.645 3.63-1.68 3.883-3.904 0.03-0.268 0.23-2.045-0.24-4.794-0.442-2.573-2.511-5.531-6.602-5.442zm9.107 5.065c1.417-0.12 2.07 0.267 2.246 3.459 0.182 3.308-0.714 3.533-2.68 3.607l-0.22-6.99c0.234-0.032 0.451-0.058 0.654-0.076z" fill="#fd5"/>
  <path d="m174.91 127.51 1.264 31.5c2.825-0.152 8.072-0.317 8.072-0.317l-0.484-14.52c1.323-0.035 2.208 0.696 2.296 2.783 0.165 3.877 0.407 11.587 0.407 11.587l8.292-0.341s-0.218-8.697-0.4-11.047c-0.164-2.103-0.393-5.105-4.711-5.763 2.232-0.645 3.63-1.68 3.882-3.904 0.03-0.268 0.23-2.045-0.24-4.795-0.441-2.573-2.511-5.53-6.602-5.44zm9.107 5.066c1.418-0.12 2.07 0.266 2.246 3.458 0.182 3.308-0.713 3.534-2.68 3.607l-0.22-6.99c0.234-0.03 0.452-0.058 0.654-0.075z" fill="#fff6d5"/>
  <path d="m119.21 127.44-0.383 30.94 14.108 0.089-0.039-6.071-5.759-0.053-0.045-7.053 5.179 0.056-0.081-5.714-4.957-0.192 6e-3 -6.027 5.402 0.055 0.095-6.072z" fill="#fd5"/>
  <path d="m118.68 128.88-0.382 30.94 14.108 0.089-0.04-6.071-5.759-0.053-0.045-7.053 5.18 0.056-0.082-5.714-4.956-0.192 6e-3 -6.027 5.402 0.055 0.095-6.072z" fill="#fff6d5"/>
 </g>
 <g fill="#fff">
  <path d="m67.751 127.83c0.62371 0.0469 1.4433 0.0976 2.3426 0.3272 0.67072 0.17128 1.3097 0.42395 1.9076 0.78459 0.59576 0.35934 1.092 0.79096 1.4987 1.2552 0.52997 0.60489 0.86422 1.2173 1.0209 1.6253 0.0016 4e-3 0.0032 8e-3 0.0047 0.0124 0.31099 0.82046 0.44572 2.1268 0.30668 3.596-0.12868 1.3597-0.4535 2.4549-0.51548 2.9309 0.05812-0.44629-0.0059-1.6076-0.26866-2.8919-0.31602-1.5446-0.67515-2.2553-0.98763-3.0797-0.0013-3e-3 -0.0026-7e-3 -0.0039-0.0103-0.1246-0.33077-0.29375-0.88569-0.58827-1.4677-0.22785-0.45028-0.52962-0.91762-0.94984-1.3554-0.42412-0.44181-0.93424-0.8168-1.5309-1.1096-0.79397-0.38969-1.6192-0.57053-2.2365-0.61697z"/>
  <path d="m71.013 142.62c0.37209 0.0108 0.8813-0.0141 1.4885 0.18057 0.5117 0.16404 0.93982 0.4418 1.266 0.76094 0.14718 0.14402 0.25954 0.28352 0.33001 0.39398 0.14732 0.23093 0.30687 0.54298 0.45176 0.94625 0.16257 0.45245 0.29374 0.98302 0.38328 1.5982 0.15884 1.0914 0.16125 2.2723 0.08522 3.3885-0.09037 1.3266-0.29061 2.4749-0.34735 2.9106 0.06609-0.50751 0.12892-1.5658 0.06472-2.9136-0.05295-1.1116-0.19183-2.2413-0.45761-3.2534-0.14904-0.56757-0.32034-1.0316-0.49886-1.4165-0.15839-0.34149-0.30968-0.59329-0.4302-0.78222-0.05783-0.0906-0.12665-0.21782-0.21204-0.36122-0.18569-0.31184-0.42696-0.659-0.80098-0.94655-0.44282-0.34043-0.95433-0.49484-1.3224-0.50557z"/>
  <path d="m89.829 129c0.62371 0.0469 1.4433 0.0976 2.3426 0.3272 0.67072 0.17128 1.3097 0.42395 1.9076 0.78459 0.59576 0.35934 1.092 0.79096 1.4987 1.2552 0.52997 0.60489 0.86422 1.2173 1.0209 1.6253 0.0016 4e-3 0.0032 8e-3 0.0047 0.0124 0.31099 0.82046 0.44572 2.1268 0.30668 3.596-0.12868 1.3597-0.4535 2.4549-0.51548 2.9309 0.05812-0.44629-0.0059-1.6076-0.26866-2.8919-0.31602-1.5446-0.67515-2.2553-0.98763-3.0797-0.0013-3e-3 -0.0026-7e-3 -0.0039-0.0103-0.1246-0.33077-0.29375-0.88569-0.58827-1.4677-0.22785-0.45028-0.52962-0.91762-0.94984-1.3554-0.42412-0.44181-0.93424-0.8168-1.5309-1.1096-0.79397-0.38969-1.6192-0.57053-2.2365-0.61697z"/>
  <path d="m146.67 129.57c0.62371 0.0469 1.4433 0.0976 2.3426 0.3272 0.67072 0.17128 1.3097 0.42395 1.9076 0.78459 0.59576 0.35934 1.092 0.79096 1.4987 1.2552 0.52997 0.60489 0.86421 1.2173 1.0209 1.6253 2e-3 4e-3 3e-3 8e-3 5e-3 0.0124 0.31098 0.82046 0.44572 2.1268 0.30668 3.596-0.12868 1.3597-0.45349 2.4549-0.51548 2.9309 0.0581-0.44629-6e-3 -1.6076-0.26866-2.8919-0.31603-1.5446-0.67515-2.2553-0.98763-3.0797-1e-3 -3e-3 -3e-3 -7e-3 -4e-3 -0.0103-0.1246-0.33077-0.29376-0.88569-0.58828-1.4677-0.22785-0.45028-0.52961-0.91762-0.94984-1.3554-0.42412-0.44181-0.93423-0.8168-1.5309-1.1096-0.79397-0.38969-1.6192-0.57053-2.2365-0.61697z"/>
  <path d="m185.41 128.12c0.62371 0.0469 1.4433 0.0976 2.3426 0.3272 0.67072 0.17128 1.3097 0.42395 1.9076 0.78459 0.59576 0.35934 1.092 0.79096 1.4987 1.2552 0.52997 0.60489 0.86421 1.2173 1.0209 1.6253 2e-3 4e-3 3e-3 8e-3 5e-3 0.0124 0.31098 0.82046 0.44572 2.1268 0.30668 3.596-0.12868 1.3597-0.45349 2.4549-0.51548 2.9309 0.0581-0.44629-6e-3 -1.6076-0.26866-2.8919-0.31603-1.5446-0.67515-2.2553-0.98763-3.0797-1e-3 -3e-3 -3e-3 -7e-3 -4e-3 -0.0103-0.1246-0.33077-0.29376-0.88569-0.58828-1.4677-0.22785-0.45028-0.52961-0.91762-0.94984-1.3554-0.42412-0.44181-0.93423-0.8168-1.5309-1.1096-0.79397-0.38969-1.6192-0.57053-2.2365-0.61697z"/>
  <path d="m161.21 129.09c1.649 8e-3 6.598-0.4014 8.247-0.39368 0.23627 1e-3 0.94304 0.43667 1.1793 0.43778-0.23626-1e-3 -0.94708 0.42784-1.1833 0.42673-1.649-8e-3 -6.594-0.46312-8.243-0.47083z"/>
  <path d="m166.37 141.28c0.7471 0.0154 2.9973-0.37045 3.7444-0.35502 0.10704 2e-3 0.41924 0.44101 0.52628 0.44322-0.10704-2e-3 -0.43709 0.42333-0.54413 0.42112-0.7471-0.0154-2.9795-0.49389-3.7266-0.50932z"/>
  <path d="m166.72 154.63c0.83189 1e-5 3.3276-0.43224 4.1594-0.43224 0.11919 0 0.47676 0.43227 0.59595 0.43227-0.11919 0-0.47677 0.43226-0.59596 0.43226-0.83189-1e-5 -3.3276-0.43228-4.1594-0.43229z"/>
  <path d="m121.89 129.98c1.649 8e-3 6.598-0.4014 8.247-0.39368 0.23627 1e-3 0.94304 0.43667 1.1793 0.43778-0.23626-1e-3 -0.94708 0.42784-1.1833 0.42673-1.649-8e-3 -6.594-0.46312-8.243-0.47083z"/>
  <path d="m126.6 142.26c0.74709 0.0154 2.9973-0.37045 3.7444-0.35502 0.10704 2e-3 0.41924 0.44101 0.52628 0.44322-0.10704-2e-3 -0.43709 0.42333-0.54413 0.42112-0.7471-0.0154-2.9795-0.49389-3.7266-0.50932z"/>
  <path d="m126.6 155.26c0.83189 1e-5 3.3276-0.43224 4.1594-0.43224 0.11919 0 0.47676 0.43227 0.59595 0.43227-0.11919 0-0.47676 0.43226-0.59596 0.43226-0.83188-1e-5 -3.3275-0.43228-4.1594-0.43229z"/>
  <path d="m104.66 130.11c1.649 8e-3 6.598-0.4014 8.247-0.39368 0.23627 1e-3 0.94304 0.43667 1.1793 0.43778-0.23626-1e-3 -0.94708 0.42784-1.1833 0.42673-1.649-8e-3 -6.594-0.46312-8.243-0.47083z"/>
  <path d="m109.37 142.13c0.7471 0.0154 2.9973-0.37045 3.7444-0.35502 0.10704 2e-3 0.41924 0.44101 0.52628 0.44322-0.10704-2e-3 -0.43709 0.42333-0.54413 0.42112-0.7471-0.0154-2.9795-0.49389-3.7266-0.50932z"/>
  <path d="m109.11 155.17c0.83189 1e-5 3.3276-0.43224 4.1594-0.43224 0.11919 0 0.47676 0.43227 0.59595 0.43227-0.11919 0-0.47677 0.43226-0.59596 0.43226-0.83189-1e-5 -3.3276-0.43228-4.1594-0.43229z"/>
 </g>
 <path d="m94.162 144.7c0.20931 0.10455 0.52423 0.23603 0.90393 0.56299 0.29964 0.25802 0.57074 0.58137 0.80347 0.95209 0.21568 0.34356 0.37007 0.68468 0.44481 0.91648 0.13776 0.42729 0.28646 1.0889 0.3796 1.9984 0.1104 1.078 0.12422 2.3109 0.05063 3.6493-0.09175 1.6686-0.28974 3.0418-0.40133 3.9481 0.10653-0.86522 0.19881-2.3353 0.14478-3.9509-0.04461-1.3339-0.17935-2.5287-0.38291-3.5588-0.17256-0.87323-0.36041-1.4607-0.4894-1.8608-0.06797-0.21082-0.15124-0.54547-0.26658-0.89259-0.12469-0.37526-0.27382-0.72959-0.46903-1.0392-0.24357-0.38635-0.51269-0.62244-0.71798-0.72498z" fill="none"/>
 <path d="m96.481 157.53c0.01866-1.9991 0.1227-3.8616 0.20533-6.2974 0.0585-1.7244 0.07027-3.0438-0.04096-4.0823-0.06362-0.594-0.16339-1.0536-0.29218-1.4271-0.09806-0.28439-0.20794-0.50314-0.31151-0.66565-0.07126-0.11182-0.19611-0.25147-0.36421-0.38588-0.29582-0.23654-0.65119-0.40189-1.0622-0.50854-0.46709-0.12121-0.94934-0.14895-1.2189-0.20524 0.28606 0.0597 0.70905 0.25807 1.0474 0.54572 0.29029 0.24682 0.46099 0.50294 0.59119 0.74189 0.07478 0.13724 0.13071 0.25759 0.1818 0.33775 0.07332 0.11505 0.17175 0.27291 0.27583 0.48834 0.13813 0.2859 0.28312 0.66572 0.41401 1.2054 0.23238 0.95823 0.37454 2.2272 0.4613 3.9581 0.0979 1.9531 0.12728 4.7723 0.11308 6.2948z" fill="#fff"/>
 <path d="m193.81 155.99c-0.14377-1.994-0.19134-3.8589-0.30681-6.2932-0.0817-1.7234-0.17717-3.0395-0.37237-4.0655-0.11166-0.58687-0.24842-1.0368-0.40712-1.3986-0.12083-0.27549-0.24812-0.48459-0.36454-0.63816-0.0801-0.10565-0.21589-0.2347-0.39435-0.35502-0.31405-0.21173-0.68168-0.34768-1.1-0.42059-0.47539-0.0829-0.9583-0.0713-1.2315-0.10557 0.28997 0.0363 0.72766 0.19963 1.0882 0.45885 0.30938 0.22243 0.50031 0.46384 0.64949 0.69143 0.0857 0.13071 0.1512 0.24612 0.20862 0.32187 0.0824 0.10872 0.19335 0.25806 0.31458 0.46432 0.1609 0.27373 0.33626 0.64052 0.51054 1.1678 0.30944 0.93619 0.5542 2.1894 0.78125 3.9076 0.2562 1.9387 0.51447 4.7462 0.62396 6.2648z" fill="#fff"/>
</svg>
