<?xml version="1.0" encoding="UTF-8"?>
<svg cursor="default" version="1.1" viewBox="0 0 256 256" xmlns="http://www.w3.org/2000/svg">
 <g fill="#fd5" stroke="#000" stroke-linejoin="bevel" stroke-width=".9025">
  <path d="m179.05 126.9 0.17405 5.6444 4.3725-0.13482 0.86741 22.971 7.391-0.30742-0.62646-22.898 4.2954-0.0529-0.17648-5.724z"/>
  <path d="m67.852 138.61 0.16716-7.3159c0.03672-1.6095-2.3152-1.732-2.3821-0.15985l-0.76729 18.039c-0.05807 1.3653 2.5798 0.9611 2.6286-0.0705l0.27783-5.8798 7.4325 0.25066c0.06871 9.0994-3.9409 12.191-9.1993 12.025-4.2651-0.13462-8.6538-1.7392-8.6109-8.9649l0.44227-13.402c0.26395-3.9077 2.2759-8.3668 9.1078-7.8432 8.9694 0.68739 8.607 8.1402 8.3733 13.652z"/>
  <path d="m96.736 156 0.65104-28.586 9.6227 0.17933 1.7243 13.365 2.0536-13.319 9.7012 0.22093-0.61396 28.707-6.5186-0.22798 0.47986-19.322-3.065 19.303-4.6119-0.10503-2.3909-19.029-0.43281 19.004z"/>
  <path d="m78.411 126.89 7.0837 0.19508-0.39131 22.382c-0.03267 1.8683 2.083 1.998 2.1364 0.0588l0.61619-22.376 7.4211 0.20437-0.59142 21.476c-0.09231 3.3521-2.326 7.7754-8.6467 7.5262-5.8651-0.23125-8.4968-3.0501-8.3194-8.4435z"/>
  <path d="m159.74 127.72 7.0848-0.14949 0.69713 22.374c0.0582 1.8677 2.1776 1.8944 2.1367-0.0451l-0.47221-22.379 7.4222-0.15662 0.45323 21.479c0.0708 3.3526-1.9453 7.8793-8.2706 7.9376-5.8694 0.0541-8.635-2.6334-8.72-8.0291z"/>
  <path d="m143.79 136.68-6.9742 0.0159 0.0236-3.1499c0.0114-1.5115-2.419-1.804-2.362 0.0244l0.0841 2.6988c0.0964 3.0913 8.8976 3.5281 9.7946 11.654 0.11484 1.0403 0.11725 2.2386 0.0632 3.2053-0.1731 3.1052-3.5755 6.2351-7.7276 6.2106-8.9592-0.053-8.8449-5.5763-8.9417-10.763l6.8054-0.0142 0.2709 4.4405c0.0964 1.5792 2.6606 1.6533 2.6444 0.0852l-0.0314-3.0369c-0.0466-4.5065-9.2057-2.5177-9.8496-11.541-0.0775-1.0866-0.10578-2.1737-0.0337-3.2618 0.27128-4.0987 4.8366-5.7386 7.759-5.7047 9.7262 0.11273 7.9746 5.2412 8.4749 9.1364z"/>
  <path d="m158.32 150.78 0.17279 5.7914-11.98 0.0122-0.35251-28.456 7.3672-0.0767 0.40649 22.831z"/>
 </g>
 <g fill="#fff6d5" stroke="#000" stroke-linejoin="bevel" stroke-width=".9025">
  <path d="m180.5 127.85 0.17404 5.6444 4.3725-0.13482 0.86741 22.971 7.391-0.30742-0.62646-22.898 4.2954-0.0529-0.17648-5.724z"/>
  <path d="m66.414 139.64 0.16716-7.3159c0.03672-1.6095-2.3152-1.732-2.3821-0.15985l-0.76729 18.039c-0.05807 1.3653 2.5798 0.9611 2.6286-0.0705l0.27783-5.8798 7.4325 0.25066c0.06871 9.0994-3.9409 12.191-9.1993 12.025-4.2651-0.13462-8.6538-1.7393-8.6109-8.9649l0.44227-13.402c0.26395-3.9077 2.2759-8.3668 9.1078-7.8432 8.9694 0.68739 8.607 8.1402 8.3733 13.652z"/>
  <path d="m96.356 157.11 0.65104-28.586 9.6227 0.17933 1.7243 13.365 2.0536-13.319 9.7012 0.22093-0.61396 28.707-6.5186-0.22798 0.47986-19.322-3.065 19.303-4.6119-0.10503-2.3909-19.029-0.43281 19.004z"/>
  <path d="m77.064 128.01 7.0837 0.19507-0.39131 22.382c-0.03267 1.8683 2.083 1.998 2.1364 0.0588l0.61619-22.376 7.4211 0.20437-0.59142 21.476c-0.09231 3.3521-2.326 7.7754-8.6467 7.5262-5.8651-0.23124-8.4968-3.0501-8.3194-8.4435z"/>
  <path d="m161.1 128.77 7.0849-0.1495 0.69713 22.374c0.0582 1.8677 2.1776 1.8944 2.1367-0.0451l-0.4722-22.379 7.4222-0.15661 0.45323 21.479c0.0707 3.3526-1.9453 7.8793-8.2706 7.9376-5.8694 0.0541-8.635-2.6334-8.72-8.0291z"/>
  <path d="m144.38 137.62-6.9742 0.0159 0.0236-3.1499c0.0114-1.5115-2.419-1.804-2.362 0.0244l0.0841 2.6988c0.0964 3.0913 8.8976 3.5281 9.7946 11.654 0.11484 1.0403 0.11725 2.2386 0.0632 3.2053-0.1731 3.1052-3.5755 6.2351-7.7276 6.2106-8.9592-0.053-8.8449-5.5763-8.9417-10.763l6.8054-0.0142 0.2709 4.4405c0.0964 1.5792 2.6606 1.6533 2.6444 0.0852l-0.0314-3.0369c-0.0466-4.5065-9.2057-2.5177-9.8496-11.541-0.0775-1.0866-0.10578-2.1737-0.0337-3.2618 0.27128-4.0987 4.8366-5.7386 7.759-5.7047 9.7262 0.11273 7.9746 5.2412 8.4749 9.1364z"/>
  <path d="m159.59 151.92 0.17278 5.7914-11.98 0.0122-0.35251-28.456 7.3672-0.0767 0.40648 22.831z"/>
 </g>
 <g fill="#fff">
  <path d="m143.29 136.72c-0.048-0.9698-6e-3 -2.1595-0.31763-3.5028-0.27308-1.1783-0.74181-1.998-1.14-2.4073-0.0467-0.048-0.10097-0.099-0.16237-0.15188-0.54457-0.46871-1.374-0.87051-2.4372-1.0628-1.1138-0.20148-2.0956-0.12336-2.7398-0.14552 0.62315 0.0214 1.6421 0.25294 2.5436 0.72777 0.88647 0.46694 1.3723 0.99564 1.7518 1.4066 0.0429 0.0464 0.0823 0.0888 0.11869 0.12616 0.30751 0.31605 0.88389 0.77124 1.4303 1.7479 0.59078 1.056 0.9076 2.3518 0.95264 3.2618z"/>
  <path d="m154.05 130.89c-0.18559-0.0249-0.50749-0.23748-0.84876-0.42098-0.32269-0.17351-0.69655-0.33047-0.90977-0.33402-0.0277-4.6e-4 -0.0589 1e-3 -0.0937 5e-3 -0.28362 0.0287-0.81154 0.18316-1.5463 0.32036-0.74095 0.13836-1.6769 0.2533-2.2768 0.23266 0.58561 0.0202 1.5405 0.19257 2.2652 0.35684 0.73187 0.16589 1.2589 0.33111 1.538 0.36857 0.0342 5e-3 0.065 7e-3 0.0921 8e-3 0.20954 3e-3 0.57146-0.14055 0.89402-0.27866 0.34918-0.14952 0.68513-0.2841 0.88596-0.25719z"/>
  <path d="m167.48 130.26c-0.18559-0.0249-0.50749-0.23748-0.84876-0.42098-0.32269-0.17351-0.69655-0.33047-0.90977-0.33402-0.0277-4.6e-4 -0.0589 1e-3 -0.0937 5e-3 -0.28362 0.0287-0.81154 0.18316-1.5463 0.32036-0.74095 0.13836-1.6769 0.2533-2.2768 0.23266 0.58561 0.0202 1.5405 0.19257 2.2652 0.35684 0.73187 0.16589 1.2589 0.33111 1.538 0.36857 0.0342 5e-3 0.0649 7e-3 0.0921 8e-3 0.20954 3e-3 0.57146-0.14055 0.89402-0.27866 0.34918-0.14952 0.68513-0.2841 0.88596-0.25719z"/>
  <path d="m177.11 130.13c-0.18559-0.0249-0.50749-0.23748-0.84876-0.42098-0.32269-0.17351-0.69655-0.33047-0.90977-0.33402-0.0277-4.6e-4 -0.0589 1e-3 -0.0937 5e-3 -0.28362 0.0287-0.81154 0.18316-1.5463 0.32036-0.74095 0.13836-1.6769 0.2533-2.2768 0.23266 0.58561 0.0202 1.5405 0.19257 2.2652 0.35684 0.73187 0.16589 1.2589 0.33111 1.538 0.36857 0.0342 5e-3 0.0649 7e-3 0.0921 8e-3 0.20954 3e-3 0.57146-0.14055 0.89402-0.27866 0.34918-0.14952 0.68513-0.2841 0.88596-0.25719z"/>
  <path d="m83.402 129.81c-0.18435-0.0329-0.49676-0.25917-0.82979-0.45724-0.31489-0.18728-0.68163-0.36024-0.89449-0.37298-0.02762-2e-3 -0.05893-1e-3 -0.09384 6.6e-4 -0.2846 0.0164-0.8187 0.14795-1.5587 0.2533-0.74624 0.10624-1.6862 0.18066-2.2847 0.13414 0.58419 0.0454 1.5308 0.25891 2.2477 0.45432 0.72402 0.19733 1.2435 0.38516 1.5206 0.43462 0.034 6e-3 0.06457 0.0101 0.09171 0.0117 0.20919 0.0125 0.57699-0.11574 0.90521-0.2398 0.35532-0.1343 0.69676-0.25424 0.89624-0.21869z"/>
  <path d="m93.027 130.1c-0.18435-0.0329-0.49676-0.25917-0.82979-0.45724-0.31489-0.18728-0.68163-0.36024-0.89449-0.37298-0.02762-2e-3 -0.05893-1e-3 -0.09384 6.6e-4 -0.2846 0.0164-0.8187 0.14795-1.5587 0.2533-0.74624 0.10624-1.6862 0.18066-2.2847 0.13414 0.58419 0.0454 1.5308 0.25891 2.2477 0.45432 0.72402 0.19733 1.2435 0.38516 1.5206 0.43462 0.034 6e-3 0.06457 0.0101 0.09171 0.0117 0.20919 0.0125 0.57699-0.11574 0.90521-0.2398 0.35532-0.1343 0.69676-0.25424 0.89624-0.21869z"/>
  <path d="m105.9 130.18c-0.18435-0.0329-0.49676-0.25917-0.8298-0.45724-0.31489-0.18728-0.68162-0.36024-0.89449-0.37298-0.0276-2e-3 -0.0589-1e-3 -0.0938 6.6e-4 -0.28459 0.0164-0.81869 0.14795-1.5587 0.2533-0.74624 0.10624-1.6862 0.18066-2.2847 0.13414 0.58419 0.0454 1.5308 0.25891 2.2477 0.45432 0.72402 0.19733 1.2435 0.38516 1.5206 0.43462 0.034 6e-3 0.0646 0.01 0.0917 0.0117 0.20919 0.0125 0.57699-0.11574 0.90521-0.2398 0.35531-0.1343 0.69676-0.25424 0.89624-0.21869z"/>
  <path d="m118.99 130.57c-0.18435-0.0329-0.49676-0.25917-0.8298-0.45724-0.31489-0.18728-0.68162-0.36024-0.89449-0.37298-0.0276-2e-3 -0.0589-1e-3 -0.0938 6.6e-4 -0.28459 0.0164-0.81869 0.14795-1.5587 0.2533-0.74624 0.10624-1.6862 0.18066-2.2847 0.13414 0.58419 0.0454 1.5308 0.25891 2.2477 0.45432 0.72402 0.19733 1.2435 0.38516 1.5206 0.43462 0.034 6e-3 0.0646 0.01 0.0917 0.0117 0.20919 0.0125 0.57699-0.11574 0.90521-0.2398 0.35531-0.1343 0.69676-0.25424 0.89624-0.21869z"/>
  <path d="m195.96 128.7c-0.0524 7e-3 -0.1468-0.0125-0.29941-0.0453-0.12003-0.0258-0.25477-0.0555-0.43785-0.0916-0.34311-0.0677-0.77383-0.14078-1.2245-0.19518-0.37195-0.0449-0.73082-0.0733-0.96627-0.0644-0.50517 0.0191-1.3612 0.096-2.4432 0.19044-1.2483 0.10899-2.565 0.22192-3.9075 0.31898-1.6204 0.11715-2.8301 0.17803-3.4385 0.1571 0.60647 0.0209 1.8544 0.12988 3.4408 0.22517 1.3073 0.0785 2.7108 0.14648 3.9281 0.18962 1.0914 0.0387 1.9618 0.055 2.4626 0.0361 0.23753-9e-3 0.59484-0.0656 0.96475-0.14381 0.44896-0.095 0.87145-0.21139 1.2083-0.32215 0.17598-0.0579 0.31275-0.10872 0.42525-0.15249 0.14666-0.0571 0.23471-0.0959 0.2874-0.10252z"/>
  <path d="m72.36 135.17c-0.048-0.9698-0.0063-2.1595-0.31763-3.5028-0.27308-1.1783-0.74181-1.998-1.14-2.4073-0.04668-0.048-0.10097-0.099-0.16237-0.15188-0.54457-0.46871-1.374-0.87051-2.4372-1.0628-1.1138-0.20148-2.0956-0.12336-2.7398-0.14552 0.62315 0.0214 1.6421 0.25294 2.5435 0.72777 0.88647 0.46694 1.3723 0.99564 1.7518 1.4066 0.04289 0.0464 0.08232 0.0888 0.1187 0.12616 0.30751 0.31605 0.88389 0.77124 1.4303 1.7479 0.59077 1.056 0.9076 2.3518 0.95264 3.2618z"/>
  <path d="m144.11 151.27c-0.0278-0.73905 0.0357-1.5622-0.23661-3.0113-0.22556-1.2006-0.60288-2.2615-0.90715-2.8025-0.0374-0.0665-0.0814-0.13911-0.13143-0.21673-0.42374-0.6569-1.1617-1.4989-2.0106-2.1557-0.37422-0.28952-0.72676-0.51076-1.0518-0.67887-0.43966-0.22739-0.74949-0.31867-0.96378-0.39932 0.20707 0.0779 0.49427 0.26732 0.82235 0.59446 0.24651 0.24581 0.49834 0.55087 0.75117 0.91046 0.60796 0.86472 0.99294 1.692 1.3488 2.3741 0.0391 0.075 0.0758 0.14355 0.11005 0.20444 0.2639 0.46922 0.89177 1.3739 1.3873 2.3819 0.56458 1.1486 0.85829 2.1756 0.88176 2.799z"/>
 </g>
</svg>
