<?xml version="1.0" encoding="UTF-8"?>
<svg cursor="default" version="1.1" viewBox="0 0 256 256" xmlns="http://www.w3.org/2000/svg">
 <path d="m103.76 167.13c-10.872 0.495-14.09 10.676-14.21 17.976-0.387 23.878 20.619 37.131 32.868 37.166 14.311 0.042 35.456-12.744 34.724-41.081-0.15-5.836-2.586-13.248-12.971-14.175l0.7 7.786c3.497 0.247 4.69 2.914 4.877 6.317 0.77 13.978-8.909 33.608-27.013 33.832-17.089 0.211-26.462-16.229-26.28-29.713 0.072-5.431 1.678-9.874 7.013-11.184z" fill="#ffb380" fill-rule="evenodd" stroke="#000" stroke-width="1.03"/>
 <path d="m102.74 163.37-0.257 13.273 43.325 0.085-4e-3 -13.4z" fill="#f95" fill-rule="evenodd" stroke="#000" stroke-width="1.03"/>
 <path class="UnoptimicedTransforms" d="m144.08 165.64h-39.509z" fill="#fff"/>
 <path class="UnoptimicedTransforms" d="m144.08 165.64c-1.496 0-5.984-1.1631-7.48-1.1631-6.4058 0-25.623 1.1631-32.029 1.1631 6.4058 0 25.623 1.1631 32.029 1.1631 1.496 0 5.984-1.1631 7.48-1.1631z" fill="#ffe6d5"/>
 <path class="UnoptimicedTransforms" transform="translate(30.224 11.342)" d="m118.65 158.54c1.0456 0.70376 2.1493 2.253 2.8638 4.0456 0.37407 0.93853 0.5944 1.7972 0.78948 2.2699 0.24008 0.58169 0.50333 1.2975 0.74207 2.1667 0.37328 1.359 0.66133 3.0019 0.75185 4.9948 0.0763 1.6807 7e-3 3.497-0.21812 5.4332-0.43448 3.742-1.3926 7.4476-2.4959 10.605-0.60127 1.7209-1.2216 3.2095-1.7825 4.4034-0.74613 1.5882-1.382 2.65-1.8347 3.2846 0.45272-0.63462 1.1595-1.647 2.0346-3.1808 0.65895-1.1549 1.4028-2.5883 2.1551-4.2802 1.3717-3.0844 2.6573-6.7764 3.4058-10.6 0.38768-1.9807 0.60894-3.8842 0.65668-5.6808 0.0567-2.1326-0.135-3.9654-0.48356-5.5213-0.22324-0.99643-0.50039-1.832-0.78106-2.5121-0.23363-0.56606-0.79097-1.4186-1.5776-2.2654-1.6546-1.7811-3.0264-2.3552-4.226-3.1626z" fill="#ffe6d5"/>
</svg>
