<?xml version="1.0" encoding="UTF-8"?>
<svg cursor="default" version="1.1" viewBox="0 0 256 256" xmlns="http://www.w3.org/2000/svg">
 <g fill="#fd5" stroke="#000" stroke-linejoin="bevel" stroke-width=".94762">
  <path d="m149.65 127.07 0.0973 5.9286 4.5927-0.0754 0.56297 24.13 7.7644-0.21088-0.31112-24.05 4.5105 0.01-0.0987-6.0122z"/>
  <path d="m127.44 127.46 7.4398-0.11212 0.59029 23.497c0.0493 1.9614 2.2744 2.0029 2.2438-0.0338l-0.35409-23.501 7.7942-0.11745 0.33987 22.555c0.0531 3.5206-2.0924 8.2608-8.7342 8.282-6.1631 0.0196-9.0499-2.8197-9.105-8.4856z"/>
  <path d="m104.94 135.91-7.3169-0.29688 0.16643-3.3033c0.08-1.5851-2.4565-2.0012-2.4789-0.0806l-0.03316 2.8349c-0.0379 3.2472 9.1753 4.1012 9.7509 12.666 0.0737 1.0965 0.0223 2.3536-0.0777 3.3653-0.32119 3.2497-4.0312 6.3801-8.3858 6.1677-9.3961-0.45846-9.0279-6.2474-8.8963-11.693l7.1397 0.29109 0.08454 4.6704c0.03012 1.661 2.7167 1.854 2.7702 0.20831l0.10353-3.1872c0.15378-4.7296-9.5439-3.0551-9.8137-12.55-0.03248-1.1434-0.01324-2.285 0.11129-3.4233 0.46886-4.2875 5.3318-5.8026 8.396-5.6356 10.198 0.55555 8.13 5.8568 8.4797 9.9655z"/>
  <path d="m123.02 151.19 0.0824 6.0831-12.578-0.19208 0.11656-29.881 7.7358 0.0455 0.0363 23.976z"/>
 </g>
 <g fill="#fff6d5" stroke="#000" stroke-linejoin="bevel" stroke-width=".94762">
  <path d="m151.16 128.09 0.0973 5.9286 4.5927-0.0754 0.56297 24.13 7.7644-0.21088-0.31111-24.05 4.5105 9e-3 -0.0986-6.0123z"/>
  <path d="m128.55 128.64 7.44-0.11212 0.59029 23.497c0.0493 1.9614 2.2744 2.0029 2.2438-0.0338l-0.35408-23.501 7.7942-0.11744 0.33986 22.555c0.053 3.5206-2.0924 8.2608-8.7342 8.282-6.1631 0.0196-9.0499-2.8197-9.105-8.4856z"/>
  <path d="m103.71 136.86-7.3169-0.29688 0.16643-3.3033c0.0799-1.5851-2.4565-2.0012-2.4789-0.0806l-0.03316 2.8349c-0.0379 3.2472 9.1753 4.1012 9.7509 12.666 0.0737 1.0965 0.0223 2.3536-0.0778 3.3653-0.32119 3.2497-4.0312 6.3801-8.3858 6.1677-9.3962-0.45836-9.0279-6.2474-8.8963-11.693l7.1398 0.2911 0.08453 4.6704c0.03013 1.661 2.7167 1.854 2.7702 0.20831l0.10353-3.1872c0.15379-4.7296-9.5439-3.0551-9.8137-12.55-0.03247-1.1434-0.01324-2.285 0.11129-3.4233 0.46886-4.2875 5.3318-5.8026 8.396-5.6356 10.198 0.55555 8.13 5.8568 8.4797 9.9655z"/>
  <path d="m121.97 152.34 0.0824 6.0831-12.578-0.19208 0.11656-29.881 7.7358 0.0455 0.0363 23.976z"/>
 </g>
 <g fill="#fff" stroke-width="1.05">
  <path d="m102.6 135.87c-7e-3 -1.0195 0.0911-2.2657-0.17572-3.6888-0.23349-1.2484-0.68835-2.1293-1.0877-2.5766-0.0468-0.0525-0.10147-0.1084-0.16351-0.16663-0.5502-0.51619-1.4022-0.97497-2.5089-1.2245-1.1594-0.26145-2.1928-0.22363-2.8676-0.27585 0.65274 0.0505 1.7112 0.33918 2.6356 0.87782 0.90895 0.5297 1.3948 1.1062 1.7745 1.5543 0.0429 0.0506 0.0824 0.0968 0.11883 0.13769 0.30838 0.34536 0.89256 0.8488 1.4219 1.8979 0.57227 1.1343 0.84636 2.5079 0.85269 3.4646z"/>
  <path d="m116.51 130.17c-0.19442-0.0293-0.52874-0.258-0.88388-0.45649-0.33581-0.18768-0.72564-0.35886-0.94942-0.36623-0.0291-9.6e-4 -0.0618 0-0.0985 3e-3 -0.29825 0.0252-0.85514 0.17841-1.6289 0.30989-0.78026 0.13258-1.7648 0.23725-2.3943 0.20532 0.61446 0.0312 1.614 0.22852 2.372 0.41337 0.76553 0.18667 1.316 0.36915 1.6084 0.41325 0.0358 6e-3 0.0681 8e-3 0.0965 0.01 0.21993 7e-3 0.60236-0.13778 0.94336-0.27726 0.36915-0.151 0.72415-0.28655 0.93454-0.25486z"/>
  <path d="m135.23 130.24c-0.19471-0.0274-0.53136-0.25257-0.88851-0.4474-0.33772-0.18422-0.72928-0.35141-0.95313-0.35647-0.0291-6.7e-4 -0.0618 6.2e-4 -0.0985 4e-3 -0.29798 0.0283-0.85327 0.18718-1.6256 0.32659-0.77887 0.14057-1.7623 0.25533-2.3921 0.22987 0.61475 0.0249 1.6163 0.21194 2.3762 0.38901 0.7674 0.17881 1.3197 0.35564 1.6125 0.39674 0.0359 6e-3 0.0682 7e-3 0.0967 9e-3 0.21999 5e-3 0.6009-0.14397 0.94046-0.28693 0.36759-0.15478 0.72117-0.29397 0.93187-0.26443z"/>
  <path d="m145.35 130.17c-0.1947-0.0274-0.53135-0.25257-0.88852-0.4474-0.33771-0.18424-0.72927-0.35141-0.95312-0.35647-0.0291-6.7e-4 -0.0618 6.2e-4 -0.0985 4e-3 -0.29797 0.0282-0.85326 0.18718-1.6256 0.32658-0.77886 0.14057-1.7623 0.25534-2.3921 0.22986 0.61475 0.0249 1.6163 0.21196 2.3762 0.38902 0.76741 0.17882 1.3197 0.35565 1.6125 0.39674 0.0359 6e-3 0.0682 7e-3 0.0967 9e-3 0.21999 5e-3 0.6009-0.14396 0.94046-0.28692 0.36758-0.15479 0.72116-0.29397 0.93187-0.26444z"/>
  <path d="m167.38 129.21c-0.0551 7e-3 -0.15393-0.0153-0.31367-0.0521-0.12562-0.0289-0.26662-0.0621-0.4583-0.10284-0.35921-0.0763-0.81032-0.15952-1.2826-0.22346-0.38982-0.0527-0.76617-0.088-1.0135-0.0822-0.53066 0.0125-1.4306 0.0802-2.568 0.16297-1.3122 0.0956-2.6963 0.19416-4.1073 0.27574-1.703 0.0985-2.974 0.14408-3.6124 0.11289 0.6364 0.0311 1.945 0.16442 3.609 0.28849 1.3713 0.1022 2.8438 0.19481 4.1212 0.25853 1.1453 0.0572 2.0588 0.0875 2.5849 0.0752 0.24952-6e-3 0.62552-0.0598 1.0151-0.13637 0.47281-0.0929 0.91813-0.20874 1.2735-0.31993 0.18563-0.0581 0.33-0.10941 0.44878-0.15366 0.15484-0.0578 0.24787-0.0971 0.3033-0.10329z"/>
  <path d="m102.81 151.17c4e-3 -0.77654 0.10769-1.6372-0.11283-3.1696-0.18264-1.2696-0.53077-2.3995-0.82563-2.9807-0.0363-0.0714-0.0792-0.14959-0.12813-0.23327-0.41499-0.70816-1.1513-1.6246-2.0123-2.3518-0.37954-0.32055-0.73942-0.56849-1.0728-0.75946-0.45099-0.2583-0.77191-0.36799-0.99309-0.46222 0.21372 0.091 0.50649 0.30263 0.83595 0.66058 0.24755 0.26894 0.49801 0.60027 0.74708 0.98887 0.59888 0.93446 0.96554 1.8196 1.3082 2.5512 0.0377 0.0804 0.073 0.154 0.10625 0.21942 0.25574 0.5041 0.87373 1.4814 1.3482 2.5611 0.54063 1.2303 0.80257 2.3209 0.79916 2.9759z"/>
 </g>
</svg>
