<?xml version="1.0" encoding="UTF-8"?>
<svg cursor="default" version="1.1" viewBox="0 0 256 256" xmlns="http://www.w3.org/2000/svg">
 <g fill="#fd5" stroke="#000">
  <path d="m101.09 125.87-0.59053 31.633 8.3268 0.15586 0.20511-13.35 2.5545 0.092-0.2489 13.35 8.1946 0.15331 0.63697-31.765-8.2395-0.10967-0.21176 11.323-2.5113-0.0465 0.16724-11.323z" stroke-linejoin="bevel"/>
  <path d="m131.99 125.06c-5.1358-0.045-8.8948 3.1886-8.9548 7.707l0.0796 18.287c-0.0519 4.6161 3.8653 7.0428 9.373 7.1429 5.2493 0.0954 9.6293-2.1895 9.5308-7.313l-0.16958-18.771c-0.18764-3.8868-5.2549-7.0126-9.859-7.0529zm0.4355 5.3712c0.53262 7.6e-4 1.3144 0.23084 1.3237 2.1348l0.0909 18.205c9e-3 1.756-0.72198 2.0058-1.2901 2.0057-0.42987-3.8e-4 -1.2041-0.11853-1.2257-2.0396l-0.20357-18.052c-0.0223-1.9748 0.80969-2.2542 1.3047-2.2537z" stroke-linejoin="bevel"/>
  <path d="m167.77 125.91 0.47261 30.939 14.105-0.30069-0.20764-6.0676-5.7583 0.10613-0.23976-7.0491 5.1796-0.087-0.23977-5.7096-4.9594-0.0551-0.16044-6.0249 5.4015-0.0942-0.0727-6.0723z" fill-rule="evenodd"/>
  <path d="m65.591 124.78 2.8958 31.537 10.481 0.4151 2.492-16.516 2.0055 16.442 10.395 0.32495 4.4212-31.546-7.8436-0.0906-3.061 22.145-1.2295-22.284-8.5732-0.15352-2.6945 21.536-1.2703-21.626z" stroke-linejoin="bevel"/>
  <path d="m145.42 125.42 0.41903 31.593 8.2391-0.14297-0.16886-14.186c1.2107 0.24949 2.5192 0.61026 2.543 2.6125l0.1374 11.544 7.6255-3e-3 -0.22825-11.631c-0.0445-2.2881-1.0979-4.2794-4.4198-4.8833 4.0571-0.26975 4.447-2.3273 4.3628-7.4548-0.10903-6.6317-5.2746-7.5427-9.1252-7.515zm8.6766 5.2662c1.7801 0.043 2.2976 1.6768 2.3509 3.3746 0.0572 1.8218-0.42726 3.7157-2.5974 3.6425l-0.12638-7.0048c0.13014-0.0118 0.25426-0.0152 0.37292-0.0125z" stroke-linejoin="bevel"/>
 </g>
 <g fill="#fff6d5" stroke="#000">
  <path d="m99.843 126.8-0.59053 31.633 8.3268 0.15586 0.20511-13.35 2.5545 0.092-0.2489 13.35 8.1946 0.15331 0.63697-31.765-8.2395-0.10967-0.21176 11.323-2.5113-0.0465 0.16724-11.323z" stroke-linejoin="bevel"/>
  <path d="m131.87 126.18c-5.1358-0.045-8.8948 3.1886-8.9548 7.707l0.0796 18.287c-0.0519 4.6161 3.8653 7.0428 9.373 7.1429 5.2493 0.0954 9.6293-2.1895 9.5308-7.313l-0.16958-18.771c-0.18764-3.8868-5.2549-7.0126-9.859-7.0529zm0.4355 5.3712c0.53262 7.6e-4 1.3144 0.23084 1.3237 2.1348l0.0909 18.205c9e-3 1.756-0.72198 2.0058-1.2901 2.0057-0.42987-3.8e-4 -1.2041-0.11853-1.2257-2.0396l-0.20357-18.052c-0.0223-1.9748 0.80969-2.2542 1.3047-2.2537z" stroke-linejoin="bevel"/>
  <path d="m169.78 126.94 0.47261 30.939 14.105-0.30069-0.20764-6.0676-5.7583 0.10613-0.23976-7.0491 5.1796-0.087-0.23977-5.7096-4.9594-0.0551-0.16044-6.0249 5.4015-0.0942-0.0727-6.0723z" fill-rule="evenodd"/>
  <path d="m63.848 125.82 2.8958 31.537 10.481 0.4151 2.492-16.516 2.0055 16.442 10.395 0.32495 4.4212-31.546-7.8436-0.0906-3.061 22.145-1.2295-22.284-8.5732-0.15352-2.6945 21.536-1.2703-21.626z" stroke-linejoin="bevel"/>
  <path d="m146.67 126.6 0.41903 31.593 8.2391-0.14297-0.16886-14.186c1.2107 0.24949 2.5192 0.61026 2.543 2.6125l0.1374 11.544 7.6255-3e-3 -0.22825-11.631c-0.0445-2.2881-1.0979-4.2794-4.4198-4.8833 4.0571-0.26975 4.447-2.3273 4.3628-7.4548-0.10903-6.6317-5.2746-7.5427-9.1252-7.515zm8.6766 5.2662c1.7801 0.043 2.2976 1.6768 2.3509 3.3746 0.0572 1.8218-0.42726 3.7157-2.5974 3.6425l-0.12638-7.0048c0.13014-0.0118 0.25426-0.0152 0.37292-0.0125z" stroke-linejoin="bevel"/>
 </g>
 <g fill="#fff">
  <path d="m70.724 127.39c-0.21151 0-0.84605-0.54623-1.0576-0.54623-0.93418 0-3.7367 0.54624-4.6709 0.54624 0.93418 0 3.7367 0.54622 4.6709 0.54622 0.21151 0 0.84605-0.54623 1.0576-0.54623z"/>
  <path d="m83.327 127.61c-0.21151 0-0.84605-0.54623-1.0576-0.54623-0.93418 0-3.7367 0.54624-4.6709 0.54624 0.93418 0 3.7367 0.54622 4.6709 0.54622 0.21151 0 0.84605-0.54623 1.0576-0.54623z"/>
  <path d="m95.621 127.83c-0.21151 0-0.84605-0.54623-1.0576-0.54623-0.93418 0-3.7367 0.54624-4.6709 0.54624 0.93418 0 3.7367 0.54622 4.6709 0.54622 0.21151 0 0.84605-0.54623 1.0576-0.54623z"/>
  <path d="m107.08 128.36c-0.21151 0-0.84605-0.54623-1.0576-0.54623-0.93418 0-3.7367 0.54624-4.6709 0.54624 0.93418 0 3.7367 0.54622 4.6709 0.54622 0.21151 0 0.84605-0.54623 1.0576-0.54623z"/>
  <path d="m117.92 128.49c-0.21151 0-0.84605-0.54623-1.0576-0.54623-0.93418 0-3.7367 0.54624-4.6709 0.54624 0.93418 0 3.7367 0.54622 4.6709 0.54622 0.21151 0 0.84605-0.54623 1.0576-0.54623z"/>
  <path d="m140.81 137.73c0.0204-1.6755 0.20962-3.2619-0.43325-5.3022-0.17355-0.55084-0.37332-0.98463-0.54098-1.2476-0.42619-0.66848-1.1452-1.497-2.1739-2.2344-1.0879-0.7799-2.2778-1.2867-3.4048-1.5671-0.58263-0.14496-1.1048-0.21887-1.5466-0.25334-0.58678-0.0458-1.0141-0.0213-1.2863-0.015 0.2711-6e-3 0.69817 0.0447 1.2527 0.20301 0.4159 0.11871 0.89512 0.29568 1.4087 0.54372 1.0011 0.48352 1.9691 1.1563 2.8121 1.9986 0.803 0.80237 1.2961 1.5555 1.666 2.1356 0.14218 0.22301 0.3936 0.5447 0.67341 0.96756 0.93695 1.416 1.5918 3.2349 1.5731 4.7712z"/>
  <path d="m164.03 136.67c-0.0176-0.64416 0.0338-1.7645-0.0628-2.8317-0.0832-0.918-0.25318-1.7171-0.50344-2.3966-0.1653-0.44882-0.34899-0.79651-0.50482-1.0102-0.17873-0.24501-0.41866-0.52439-0.72228-0.80817-0.45381-0.42415-1.0102-0.82165-1.6784-1.1566-1.1534-0.57807-2.4188-0.86098-3.6829-0.98281-1.4154-0.13642-2.9832-0.0578-3.5531-0.0676 0.65914 0.0113 2.0522 0.15959 3.4584 0.5669 1.1934 0.34564 2.2602 0.83458 3.159 1.5029 0.51487 0.38287 0.9143 0.7792 1.2404 1.1603 0.21906 0.25601 0.39397 0.4921 0.53831 0.68997 0.12487 0.1712 0.33851 0.40754 0.58483 0.72724 0.3745 0.48608 0.76907 1.096 1.1028 1.9094 0.39914 0.97281 0.60522 2.0063 0.62404 2.6968z"/>
  <path d="m182.17 128.23c-0.40675 2e-3 -1.6292-0.53971-2.036-0.53808-1.7965 7e-3 -7.1838 0.57499-8.9803 0.58218 1.7965-7e-3 7.1882 0.51746 8.9847 0.51027 0.40676-2e-3 1.6248-0.55274 2.0316-0.55437z"/>
  <path d="m182.43 140.3c-0.21151 0-0.84605-0.54623-1.0576-0.54623-0.93418 0-3.7367 0.54624-4.6709 0.54624 0.93418 0 3.7367 0.54622 4.6709 0.54622 0.21151 0 0.84605-0.54623 1.0576-0.54623z"/>
  <path d="m183.4 153.21c-0.21151 0-0.84605-0.54623-1.0576-0.54623-0.93418 0-3.7367 0.54624-4.6709 0.54624 0.93418 0 3.7367 0.54622 4.6709 0.54622 0.21151 0 0.84605-0.54623 1.0576-0.54623z"/>
 </g>
</svg>
