<?xml version="1.0" encoding="UTF-8"?>
<svg version="1.1" viewBox="0 0 64 64" xml:space="preserve" xmlns="http://www.w3.org/2000/svg" xmlns:xlink="http://www.w3.org/1999/xlink"><defs><linearGradient id="linearGradient19435" x1="31.969" x2="32" y1="22.247" y2="20.129" gradientTransform="matrix(1.331 0 0 1.331 -10.566 -10.373)" gradientUnits="userSpaceOnUse"><stop stop-color="#ffb380" offset="0"/><stop stop-color="#fca" offset="1"/></linearGradient><linearGradient id="linearGradient19530" x1="32.312" x2="32.249" y1="26.547" y2="21.624" gradientTransform="matrix(1.331 0 0 1.331 -10.566 -10.373)" gradientUnits="userSpaceOnUse"><stop stop-color="#ffb380" offset="0"/><stop stop-color="#fca" offset=".47526"/><stop stop-color="#ffb380" offset="1"/></linearGradient><linearGradient id="linearGradient19540" x1="32.093" x2="32.125" y1="17.854" y2="20.222" gradientTransform="matrix(1.331 0 0 1.331 -10.566 -10.373)" gradientUnits="userSpaceOnUse"><stop stop-color="#fd5" offset="0"/><stop stop-color="#ffe680" offset="1"/></linearGradient><linearGradient id="linearGradient19548" x1="31.751" x2="31.844" y1="16.171" y2="10.127" gradientTransform="matrix(1.331 0 0 1.331 -10.566 -10.373)" gradientUnits="userSpaceOnUse"><stop stop-color="#ffe680" offset="0"/><stop stop-color="#fea" offset="1"/></linearGradient><linearGradient id="linearGradient19556" x1="31.128" x2="33.535" y1="16.545" y2="14.699" gradientTransform="matrix(1.331 0 0 1.331 -10.566 -10.373)" gradientUnits="userSpaceOnUse"><stop stop-color="#ff8080" offset="0"/><stop stop-color="#ffd5d5" offset="1"/></linearGradient><linearGradient id="linearGradient20156" x1="31.805" x2="32" y1="53.568" y2="48.514" gradientTransform="matrix(1.331 0 0 1.331 -10.566 -10.373)" gradientUnits="userSpaceOnUse"><stop stop-color="#ffb380" offset="0"/><stop stop-color="#fca" offset=".38564"/><stop stop-color="#f95" offset="1"/></linearGradient><linearGradient id="linearGradient20228" x1="26.672" x2="36.643" y1="50.352" y2="23.057" gradientTransform="matrix(1.3578 0 0 1.3578 -11.424 -11.358)" gradientUnits="userSpaceOnUse"><stop stop-color="#f55" offset="0"/><stop stop-color="#faa" offset="1"/></linearGradient><linearGradient id="linearGradient20500" x1="25.908" x2="41.006" y1="43.779" y2="41.841" gradientTransform="matrix(1.331 0 0 1.331 -10.566 -10.373)" gradientUnits="userSpaceOnUse"><stop stop-color="#bcd35f" offset="0"/><stop stop-color="#dde9af" stop-opacity=".502" offset=".51792"/><stop stop-color="#dde9af" stop-opacity="0" offset="1"/></linearGradient><linearGradient id="linearGradient20514" x1="44.893" x2="21.243" y1="37.267" y2="39.002" gradientTransform="matrix(1.331 0 0 1.331 -10.566 -10.373)" gradientUnits="userSpaceOnUse"><stop stop-color="#bcd35f" offset="0"/><stop stop-color="#dde9af" stop-opacity=".502" offset=".53799"/><stop stop-color="#dde9af" stop-opacity="0" offset="1"/></linearGradient><linearGradient id="linearGradient20516" x1="16.85" x2="46.26" y1="33.533" y2="30.304" gradientTransform="matrix(1.331 0 0 1.331 -10.566 -10.373)" gradientUnits="userSpaceOnUse"><stop stop-color="#bcd35f" offset="0"/><stop stop-color="#dde9af" stop-opacity=".502" offset=".62696"/><stop stop-color="#dde9af" stop-opacity="0" offset="1"/></linearGradient><linearGradient id="linearGradient20524" x1="43.312" x2="21.119" y1="26.632" y2="26.395" gradientTransform="matrix(1.331 0 0 1.331 -10.566 -10.373)" gradientUnits="userSpaceOnUse"><stop stop-color="#bcd35f" offset="0"/><stop stop-color="#dde9af" stop-opacity=".502" offset=".72804"/><stop stop-color="#dde9af" stop-opacity="0" offset="1"/></linearGradient></defs><path d="m13.925 24.015c3.8174-2.1489 7.9434-2.7374 13.171-1.8611 4.873 0.8168 6.1861 1.4283 10.001 0.45125 3.9105-1.0016 9.2603-0.63551 12.393 0.89494-8.9776 2.3064-19.421 3.6412-35.565 0.51496z" fill="#ffe6d5" fill-opacity=".5" stroke="#000" stroke-linejoin="bevel" stroke-width=".05"/><g stroke="#000"><path d="m36.962 53.712c0.617 1.4731 1.5482 2.8939 3.4837 4.1472 0.43602 0.70503 0.28898 1.4208 0.04153 2.1151-0.2401 0.67366-4.2938 1.1834-8.378 1.1834-4.0842 1e-6 -8.3038-0.50971-8.5439-1.1834-0.24745-0.69427-0.3945-1.4101 0.04153-2.1151 1.9355-1.2534 2.8667-2.6741 3.4837-4.1472h4.9358z" fill="url(#linearGradient20156)" stroke-width=".2662"/><path d="m27.225 13.416c2.5284 1.9167 2.4557 4.1144 2.4236 6.3386l5.2381-0.05879c-0.08399-2.1542-0.8245-4.3917 1.946-6.2478-3.8557-1.687-6.8508-1.7669-9.6077-0.03198z" fill="url(#linearGradient19540)" stroke-linejoin="bevel" stroke-width=".24349"/><path d="m29.663 54.85c-4.8845-3.7392-10.943-8.801-16.417-14.15-5.8961-5.7617-1.6803-16.458 1.4884-17.104 2.242 0.13707 21.681 0.58049 34.549-0.25619 4.0523 0.79479 7.1839 12.114 1.7858 17.327-5.9308 5.7276-11.732 10.554-16.655 14.243-1.2381 0.92748-3.6965 0.74772-4.7514-0.05982z" fill="url(#linearGradient20228)" stroke-width=".2444"/><path d="m27.274 22.293c1.4157-1.0685 1.4575-2.1822 1.4076-3.6363l6.7419-0.1173c-0.13201 1.6288 0.55518 3.0528 1.6715 4.3695-2.0626 2.2678-8.5271 1.6987-9.821-0.61583z" fill="url(#linearGradient19530)" stroke-width=".2662"/><path d="m27.448 19.8 9.0029 0.02932c2.3214 0.0076 2.5121-3.7162 0-3.7243l-9.0615-0.02932c-2.2055-0.0071-2.0841 3.7173 0.05865 3.7243z" fill="url(#linearGradient19435)" stroke-width=".2662"/><path d="m27.182 13.464h9.6929l-4.9691-10.465z" fill="url(#linearGradient19548)" stroke-width=".24349"/><path d="m34.042 10.826c-0.55875 0.84168-1.3378 1.2047-2.0156 1.7804-0.67778-0.57567-1.4568-0.93872-2.0156-1.7804-0.77302-1.1645 0.45051-2.5542 2.0156-1.0078 1.565-1.5464 2.7886-0.15667 2.0156 1.0078z" fill="url(#linearGradient19556)" stroke-linejoin="bevel" stroke-width=".21562"/></g><g fill="#fff"><path d="m32.482 9.8657c0.10379-0.049487 0.25624-0.13597 0.41435-0.20234 0.12232-0.051347 0.24366-0.089869 0.364-0.10716 0.12887-0.018513 0.24308-0.010473 0.34041 0.018042 0.07108 0.020823 0.126 0.050683 0.16071 0.078894 0.03145 0.025557 0.06609 0.062904 0.0978 0.11151 0.05112 0.078388 0.08832 0.17612 0.10332 0.28886 0.01296 0.09739 0.0083 0.19749-0.01 0.29633-0.04662 0.25187-0.16443 0.43121-0.22643 0.55266 0.06193-0.12132 0.0994-0.34152 0.04699-0.55048-0.02066-0.08238-0.05232-0.15153-0.08958-0.20714-0.04259-0.06355-0.08774-0.10267-0.12453-0.13024-0.02319-0.017374-0.0429-0.030169-0.05733-0.041893-0.01592-0.012941-0.03421-0.035617-0.06327-0.063182-0.03905-0.037031-0.09801-0.082225-0.19299-0.11459-0.0902-0.030738-0.20035-0.045344-0.32673-0.037709-0.16508 0.00997-0.32888 0.057-0.43673 0.10842z"/><path d="m37.729 18.409c0.0012-0.16841 0.03841-0.43641 0.04188-0.69045 0.0014-0.10026-0.0026-0.19922-0.01629-0.29582-0.01391-0.09829-0.0374-0.19095-0.07284-0.27857-0.03996-0.0988-0.09206-0.18336-0.15059-0.25348-0.05771-0.06914-0.1182-0.11993-0.16864-0.1507-0.02088-0.01274-0.04397-0.02556-0.06932-0.03824-0.14876-0.07442-0.35041-0.13265-0.63991-0.16554-0.22691-0.02577-0.49392-0.03497-0.8243-0.0345-0.31166 4.48e-4 -0.67135 0.0095-1.0738 0.01861-1.1052 0.02506-2.1697 0.03433-3.1019-0.01903 0.59234 0.03391 2.3326 0.16099 3.0945 0.23193 0.40206 0.03743 0.7527 0.07666 1.0549 0.12281 0.32002 0.04886 0.56174 0.10188 0.75398 0.16059 0.24181 0.07385 0.37446 0.1478 0.45991 0.19924 0.01474 0.0089 0.02856 0.01738 0.04052 0.02468 0.03005 0.01833 0.06882 0.03495 0.1145 0.05702 0.0448 0.02165 0.09655 0.04874 0.14975 0.08914 0.048 0.03645 0.09665 0.08326 0.14385 0.14587 0.04671 0.06196 0.08891 0.13535 0.12575 0.22028 0.09392 0.21652 0.13924 0.48232 0.13801 0.65617z"/><path class="UnoptimicedTransforms" transform="matrix(1.331 0 0 1.331 -10.566 -10.373)" d="m35.087 17.648c-1.1132-2.5626-1.9459-4.2574-3.2168-7.1385z"/><path class="UnoptimicedTransforms" transform="matrix(1.331 0 0 1.331 -10.669 -10.402)" d="m35.164 17.67c-0.11566-0.26627-0.62795-0.94299-0.73562-1.1841-0.19924-0.4462-0.57041-1.3494-0.92579-2.2143-0.45588-1.1094-1.2323-3.0079-1.5553-3.7402 0.43987 0.9972 1.106 2.3105 1.7797 3.6373 0.45541 0.89698 0.83019 1.645 1.059 2.1575 0.10796 0.24176 0.26237 1.0775 0.37803 1.3438z"/></g><path d="m23.637 57.905c4.1693 1.2181 14.932 1.2606 16.818-0.0096" fill="none" stroke="#000" stroke-linejoin="bevel" stroke-width=".1331"/><g><path d="m22.192 48.694c6.0359-9.8173 18.596-1.1366 26.621-5.977l-3.3178 3.1934c-8.6843 0.80037-17.867-0.8002-19.82 5.7697z" fill="url(#linearGradient20500)"/><path d="m52.314 38.796c0.96389-1.3133 1.0708-2.6266 1.2806-3.9399-10.975 9.3713-32.157-1.6764-41.088 4.7672 0.96029 1.7695 3.1972 3.4803 5.0889 5.2498-2.1122-10.97 32.052-0.69349 34.718-6.0772z" fill="url(#linearGradient20514)"/><path d="m10.872 29.387c-0.60412 1.7572-0.40443 3.8635-0.13656 5.9477 14.873 2.2206 31.469-5.9216 42.988-2.7715 0.44664-2.1922-0.44474-4.3339-1.759-6.416-12.667 3.3137-29.879 10.184-41.093 3.2399z" fill="url(#linearGradient20516)"/><path d="m14.905 23.42c-1.681 0.58506-1.7126 1.9167-2.8478 2.9384 7.9553 6.9915 26.1-0.6322 38.249-2.1737l-0.72673-0.56969c-12.049 1.322-33.466 6.5404-34.674-0.19495z" fill="url(#linearGradient20524)"/><path d="m20.967 21.264c-13.361 0.41286-13.015 15.352-7.7988 20.207 6.1024 5.6787 11.356 10.332 16.676 14.404 1.149 0.8796 3.0448 1.0102 4.3933 0 5.3624-4.0172 10.091-8.0383 16.676-14.404 5.7669-5.5746 5.5637-24.268-14.389-19.422-1.6489 2.9282-6.8259 2.9549-8.9661 0-2.4941-0.60574-4.6838-0.84406-6.5926-0.78508zm0.33275 0.84227c1.7467-0.03821 3.7406 0.19063 6.0025 0.74869 1.9261 2.6594 8.5791 2.6952 10.063 0.05978 17.957-4.3613 18.429 12.601 13.331 17.711-5.7085 5.722-11.502 10.347-16.328 13.963-1.2137 0.90921-3.6218 0.73445-4.6559-0.0572-4.7882-3.6655-10.939-8.4207-16.094-13.871-4.674-4.9421-4.5454-18.286 7.6818-18.553z" fill="#ffe6d5" stroke="#000" stroke-width=".2662"/></g><g fill="#fff"><g><path transform="matrix(.57295 0 0 .57295 .55666 13.095)" d="m33.269 36.53-1.1174 0.73284 0.74128 1.1069-1.0423-0.83629-0.82362 1.047 0.47328-1.2497-1.2503-0.45976 1.3348 0.06394 0.05089-1.3312 0.35166 1.2892z"/><path transform="matrix(.53694 .19992 -.19992 .53694 38.935 12.794)" d="m33.269 36.53-1.1174 0.73284 0.74128 1.1069-1.0423-0.83629-0.82362 1.047 0.47328-1.2497-1.2503-0.45976 1.3348 0.06394 0.05089-1.3312 0.35166 1.2892z"/><path transform="matrix(.55288 .15032 -.15032 .55288 20.332 20.04)" d="m33.269 36.53-1.1174 0.73284 0.74128 1.1069-1.0423-0.83629-0.82362 1.047 0.47328-1.2497-1.2503-0.45976 1.3348 0.06394 0.05089-1.3312 0.35166 1.2892z"/><path transform="matrix(.53583 -.20287 .20287 .53583 23.56 16.661)" d="m33.269 36.53-1.1174 0.73284 0.74128 1.1069-1.0423-0.83629-0.82362 1.047 0.47328-1.2497-1.2503-0.45976 1.3348 0.06394 0.05089-1.3312 0.35166 1.2892z" opacity=".3443"/><path transform="matrix(.40518 .4051 -.4051 .40518 15.216 4.0596)" d="m33.269 36.53-1.1174 0.73284 0.74128 1.1069-1.0423-0.83629-0.82362 1.047 0.47328-1.2497-1.2503-0.45976 1.3348 0.06394 0.05089-1.3312 0.35166 1.2892z"/><path transform="matrix(.4389 .15083 -.15083 .4389 22.165 6.3108)" d="m33.269 36.53-1.1174 0.73284 0.74128 1.1069-1.0423-0.83629-0.82362 1.047 0.47328-1.2497-1.2503-0.45976 1.3348 0.06394 0.05089-1.3312 0.35166 1.2892z" opacity=".61842"/><path transform="matrix(.33832 0 0 .33832 14.437 35.801)" d="m33.269 36.53-1.1174 0.73284 0.74128 1.1069-1.0423-0.83629-0.82362 1.047 0.47328-1.2497-1.2503-0.45976 1.3348 0.06394 0.05089-1.3312 0.35166 1.2892z"/><path transform="matrix(.25359 .22395 -.22395 .25359 35.846 22.749)" d="m33.269 36.53-1.1174 0.73284 0.74128 1.1069-1.0423-0.83629-0.82362 1.047 0.47328-1.2497-1.2503-0.45976 1.3348 0.06394 0.05089-1.3312 0.35166 1.2892z"/><path transform="matrix(.25226 .22545 -.22545 .25226 40.589 28.697)" d="m33.269 36.53-1.1174 0.73284 0.74128 1.1069-1.0423-0.83629-0.82362 1.047 0.47328-1.2497-1.2503-0.45976 1.3348 0.06394 0.05089-1.3312 0.35166 1.2892z" opacity=".62061"/><path transform="matrix(.30279 .15094 -.15094 .30279 21.454 22.622)" d="m33.269 36.53-1.1174 0.73284 0.74128 1.1069-1.0423-0.83629-0.82362 1.047 0.47328-1.2497-1.2503-0.45976 1.3348 0.06394 0.05089-1.3312 0.35166 1.2892z" opacity=".62061"/><path transform="matrix(.25359 .22395 -.22395 .25359 28.37 16.538)" d="m33.269 36.53-1.1174 0.73284 0.74128 1.1069-1.0423-0.83629-0.82362 1.047 0.47328-1.2497-1.2503-0.45976 1.3348 0.06394 0.05089-1.3312 0.35166 1.2892z"/><path transform="matrix(.042858 .3356 -.3356 .042858 52.257 18.175)" d="m33.269 36.53-1.1174 0.73284 0.74128 1.1069-1.0423-0.83629-0.82362 1.047 0.47328-1.2497-1.2503-0.45976 1.3348 0.06394 0.05089-1.3312 0.35166 1.2892z" opacity=".5636"/><path transform="matrix(.32698 .086859 -.086859 .32698 32.098 10.558)" d="m33.269 36.53-1.1174 0.73284 0.74128 1.1069-1.0423-0.83629-0.82362 1.047 0.47328-1.2497-1.2503-0.45976 1.3348 0.06394 0.05089-1.3312 0.35166 1.2892z"/></g><path d="m48.781 41.509c0.85785-1.0269 1.9943-2.3754 2.9235-4.0953 0.69279-1.2824 1.1894-2.6277 1.4203-4.0357 0.23297-1.4201 0.17102-2.7606-0.09954-3.9721-0.32526-1.4565-0.92021-2.5772-1.4144-3.237-0.0672-0.08973-0.14183-0.18362-0.22385-0.2807-1.223-1.4476-3.5302-2.9906-6.5289-3.4638-1.2617-0.19911-2.4631-0.17865-3.5642-0.0078-1.4762 0.22906-2.5639 0.6909-3.3372 1.0105 0.7727-0.31941 1.9541-0.55707 3.3584-0.43439 1.0502 0.09175 2.1137 0.37405 3.1333 0.839 2.4399 1.1126 3.7637 2.8111 4.5885 3.9303 0.0564 0.07652 0.10927 0.14826 0.15932 0.21511 0.35897 0.47938 0.9683 1.2125 1.4805 2.2271 0.42838 0.84867 0.78216 1.8793 0.89675 3.1049 0.11447 1.2243-0.02187 2.5273-0.43602 3.8648-0.55117 1.7801-1.5056 3.3166-2.3564 4.335z" fill-opacity=".75"/><path d="m39.879 57.946c-0.09399-0.04909-0.30333-0.29209-0.3854-0.3398-0.06116-0.03555-0.15244-0.08718-0.24181-0.14076-0.17763-0.1065-0.38419-0.24137-0.59586-0.43105-0.19572-0.17539-0.3815-0.38441-0.56536-0.64511-0.23856-0.33827-0.43839-0.71591-0.56905-0.99905 0.13253 0.2872 0.30624 0.66654 0.52118 1.03 0.16386 0.2771 0.33093 0.50993 0.5143 0.7132 0.19942 0.22106 0.39927 0.38546 0.5776 0.51146 0.0925 0.06536 0.17792 0.11928 0.24463 0.15805 0.08486 0.04933 0.40578 0.09397 0.49977 0.14305z"/></g><path d="m42.126 49.551c-2.8418 1.3135-10.052 5.4361-14.806 1.6965-9.0264-7.1006-15.765-13.089-17.406-18.199-0.22649 2.2534 1.0657 5.1712 2.2914 7.3589 5.2996 5.1262 11.181 10.252 17.538 15.379 0.93045 0.85928 3.4452 1.2386 4.8724-0.28248 3.2328-2.3963 6.0584-4.694 7.5099-5.9527z" fill-opacity=".25"/></svg>
