<?xml version="1.0" encoding="UTF-8"?>
<svg version="1.1" viewBox="0 0 64 64" xml:space="preserve" xmlns="http://www.w3.org/2000/svg" xmlns:xlink="http://www.w3.org/1999/xlink"><defs><linearGradient id="linearGradient6671"><stop stop-color="#fd5" offset="0"/><stop stop-color="#fea" offset="1"/></linearGradient><linearGradient id="linearGradient6129" x1="32.238" x2="32.092" y1="48.494" y2="54.753" gradientTransform="translate(-.14021)" gradientUnits="userSpaceOnUse" xlink:href="#linearGradient6671"/><linearGradient id="linearGradient6137" x1="17.636" x2="8.0389" y1="33.464" y2="35.459" gradientTransform="translate(-.14021)" gradientUnits="userSpaceOnUse" xlink:href="#linearGradient6671"/><linearGradient id="linearGradient6141" x1="17.636" x2="8.0389" y1="33.464" y2="35.459" gradientTransform="matrix(-1 0 0 1 64.14 .076853)" gradientUnits="userSpaceOnUse" xlink:href="#linearGradient6671"/></defs><g stroke="#000" stroke-linejoin="round"><g stroke-width=".5"><path d="m50.546 14.676c8.9949 15.304 3.2221 39.267-18.82 40.569 0.01146-3.143 1.3515-5.2958 1.6826-6.7303 19.428-5.2484 12.892-24.785 11.093-31.72z" fill="url(#linearGradient6141)"/><path d="m13.454 14.599c-8.9949 15.304-3.2221 39.267 18.82 40.569-0.011464-3.143-1.3515-5.2958-1.6826-6.7303-19.428-5.2484-12.892-24.785-11.093-31.72z" fill="url(#linearGradient6137)"/><path d="m18.44 52.675 3.6144-6.4187c-5.0602-3.9489-9.9749-14.168-4.2376-28.604l-5.577-2.9382c-0.37809-0.1992-0.42699-0.47045-0.18136-0.88959l3.8132-6.5066c0.20167-0.34284 0.49206-0.43222 0.79142-0.29226l6.2015 2.8993c0.4074 0.18484 0.939 2.1862 0.74781 2.555-3.3115 6.3885-5.8658 12.255-5.5006 18.769 0.44952 8.0182 5.0159 16.11 13.976 16.191 8.9599-0.08067 13.526-8.1729 13.976-16.191 0.3652-6.514-2.1891-12.38-5.5006-18.769-0.19119-0.36884 0.34041-2.3702 0.74781-2.555l6.2015-2.8993c0.29936-0.13996 0.58975-0.050582 0.79142 0.29226l3.8132 6.5066c0.24564 0.41914 0.19674 0.69039-0.18136 0.88959l-5.577 2.9382c5.7374 14.436 0.82257 24.655-4.2376 28.604l3.6144 6.4187c-3.513 2.9379-8.6352 4.4245-13.648 4.3597-5.0123 0.06483-10.135-1.4217-13.648-4.3597z" fill="#ff8080"/><path d="m23.223 47.658-2.4236 4.0099c7.4307 4.4993 14.807 4.797 22.121 0.1322l-2.1592-3.9659c-6.7768 3.1723-12.406 2.877-17.538-0.17626z" fill="url(#linearGradient6129)"/></g><path d="m50.213 19.597c-0.05218-2e-3 -0.10511-5.16e-4 -0.1582 0.0039-0.70792 0.05896-1.4605 0.66772-1.3047 1.3418 1.9065 8.2506 1.7457 16.974-3.5137 23.969-0.91057 1.2111 0.53817 2.6276 1.6016 1.6855 8.176-7.243 6.8219-19.942 4.2363-26.402-0.16326-0.40792-0.4961-0.5838-0.86133-0.59766zm0.57226 3.3359a0.73063 0.88273 0 0 1 0.73047 0.88281 0.73063 0.88273 0 0 1-0.73047 0.88281 0.73063 0.88273 0 0 1-0.73047-0.88281 0.73063 0.88273 0 0 1 0.73047-0.88281zm0.62109 7.4141a0.73063 0.88273 0 0 1 0.73047 0.88281 0.73063 0.88273 0 0 1-0.73047 0.88281 0.73063 0.88273 0 0 1-0.73047-0.88281 0.73063 0.88273 0 0 1 0.73047-0.88281zm-1.2422 7.1953a0.73063 0.88273 0 0 1 0.73047 0.88281 0.73063 0.88273 0 0 1-0.73047 0.88281 0.73063 0.88273 0 0 1-0.73047-0.88281 0.73063 0.88273 0 0 1 0.73047-0.88281zm-2.7402 5.6484a0.73063 0.88273 0 0 1 0.73242 0.88281 0.73063 0.88273 0 0 1-0.73242 0.88281 0.73063 0.88273 0 0 1-0.73047-0.88281 0.73063 0.88273 0 0 1 0.73047-0.88281z" fill="#ff7f2a" stroke-width=".45563"/><path d="m13.834 19.597c0.05218-2e-3 0.10511-5.16e-4 0.1582 0.0039 0.70792 0.05896 1.4605 0.66772 1.3047 1.3418-1.9065 8.2506-1.7457 16.974 3.5137 23.969 0.91057 1.2111-0.53817 2.6276-1.6016 1.6855-8.176-7.243-6.8219-19.942-4.2363-26.402 0.16326-0.40792 0.4961-0.5838 0.86133-0.59766zm-0.57226 3.3359a0.73063 0.88273 0 0 0-0.73047 0.88281 0.73063 0.88273 0 0 0 0.73047 0.88281 0.73063 0.88273 0 0 0 0.73047-0.88281 0.73063 0.88273 0 0 0-0.73047-0.88281zm-0.62109 7.4141a0.73063 0.88273 0 0 0-0.73047 0.88281 0.73063 0.88273 0 0 0 0.73047 0.88281 0.73063 0.88273 0 0 0 0.73047-0.88281 0.73063 0.88273 0 0 0-0.73047-0.88281zm1.2422 7.1953a0.73063 0.88273 0 0 0-0.73047 0.88281 0.73063 0.88273 0 0 0 0.73047 0.88281 0.73063 0.88273 0 0 0 0.73047-0.88281 0.73063 0.88273 0 0 0-0.73047-0.88281zm2.7402 5.6484a0.73063 0.88273 0 0 0-0.73242 0.88281 0.73063 0.88273 0 0 0 0.73242 0.88281 0.73063 0.88273 0 0 0 0.73047-0.88281 0.73063 0.88273 0 0 0-0.73047-0.88281z" fill="#ff7f2a" stroke-width=".45563"/></g><g><path class="UnoptimicedTransforms" transform="translate(-.14021)" d="m23.12 10.033c-0.70346 1.5218-2.0641 4.4786-4.6426 11.716z"/><path class="UnoptimicedTransforms" transform="translate(-.14021)" d="m23.12 10.033-0.18263-0.084417c-0.15865 0.34323-0.70585 1.6221-1.5286 3.7609-1.0704 2.7825-1.89 5.1164-2.9314 8.0392 0.91493-2.5679 2.0822-5.5778 3.1176-7.963 0.94622-2.1798 1.4967-3.2119 1.7077-3.6683 0 0-0.18263-0.08442-0.18263-0.08442z"/><path class="UnoptimicedTransforms" transform="matrix(-1 0 0 1 64.416 -.12463)" d="m23.12 10.033-0.18263-0.084417c-0.15865 0.34323-0.70585 1.6221-1.5286 3.7609-1.0704 2.7825-1.89 5.1164-2.9314 8.0392 0.91493-2.5679 2.0822-5.5778 3.1176-7.963 0.94622-2.1798 1.4967-3.2119 1.7077-3.6683 0 0-0.18263-0.08442-0.18263-0.08442z"/><path class="UnoptimicedTransforms" transform="translate(-.14021)" d="m24.241 48.327c-0.3165 0.6252-0.72759 1.2057-1.0906 1.8072z"/><path class="UnoptimicedTransforms" transform="translate(-.14021)" d="m24.241 48.327s-0.1795-0.09087-0.1795-0.09087c-0.18448 0.36441-0.69328 1.5372-0.91105 1.8981 0.21778-0.36089 1.0747-1.3305 1.2701-1.7163 0 0-0.1795-0.09087-0.1795-0.09087z"/><path class="UnoptimicedTransforms" transform="translate(-.14021)" d="m25.862 48.95c-0.06539 0.4256-0.60313 1.6084-0.65433 1.7449z"/><path class="UnoptimicedTransforms" transform="translate(-.14021)" d="m25.862 48.95s-0.19886-0.03055-0.19886-0.03055c-0.0047 0.03078-0.01066 0.08591-0.02578 0.17047-0.01178 0.0659-0.02791 0.1442-0.05042 0.2398-0.04017 0.17058-0.09198 0.35969-0.1506 0.56319-0.05346 0.18559-0.09708 0.33034-0.15054 0.51594-0.02288 0.07982-0.03854 0.13674-0.05095 0.1838-0.0071 0.02706-0.01206 0.04651-0.01629 0.06309-0.0023 0.0091-0.0043 0.0167-0.0059 0.02285-0.0019 0.0071-0.0035 0.01241-5e-3 0.01631 0.0015-0.0039 0.0039-0.0089 0.0074-0.01531 0.0031-0.0056 7e-3 -0.01232 0.01181-0.02037 0.0083-0.01389 0.01972-0.03243 0.03384-0.05551 0.02475-0.04046 0.05657-0.09285 0.09807-0.16354 0.07266-0.12376 0.16446-0.28582 0.26386-0.47137 0.09853-0.18391 0.1939-0.37118 0.26912-0.53252 0.04296-0.09215 0.07824-0.17344 0.10525-0.24304 0.03554-0.09159 0.05577-0.16038 0.0638-0.21266 0 0-0.19886-0.03055-0.19886-0.03055z"/><path class="UnoptimicedTransforms" transform="translate(-.14021)" d="m27.762 49.542c-0.23477 0.61823-0.39717 1.3169-0.59202 1.963z"/><path class="UnoptimicedTransforms" transform="translate(-.14021)" d="m27.762 49.542-0.18809-0.07143c-0.14502 0.38188-0.28702 1.6468-0.40393 2.0344 0.1169-0.38763 0.6434-1.5316 0.7801-1.8916l-0.18809-0.07143z"/><path class="UnoptimicedTransforms" transform="translate(-.14021)" d="m29.694 49.947c-0.1427 0.70003-0.16659 1.416-0.24927 2.1188z"/><path class="UnoptimicedTransforms" transform="translate(-.14021)" d="m29.694 49.947-0.19714-0.04019c-0.05033 0.24689-0.05966 0.62871-0.05014 1.0889 0.0095 0.4601 0.02622 0.83024-2e-3 1.0701 0.01983-0.16857 0.12008-0.67213 0.20226-1.0508 0.09088-0.41871 0.20269-0.82443 0.24415-1.0278l-0.19714-0.04019z"/><path class="UnoptimicedTransforms" transform="matrix(-1 0 0 1 64.021 -.079199)" d="m24.241 48.327c-0.3165 0.6252-0.72759 1.2057-1.0906 1.8072z"/><path class="UnoptimicedTransforms" transform="matrix(-1 0 0 1 64.021 -.079199)" d="m24.241 48.327s-0.1795-0.09087-0.1795-0.09087c-0.18448 0.36441-0.69328 1.5372-0.91105 1.8981 0.21778-0.36089 1.0747-1.3305 1.2701-1.7163 0 0-0.1795-0.09087-0.1795-0.09087z"/><path class="UnoptimicedTransforms" transform="matrix(-1 0 0 1 64.021 -.079199)" d="m25.862 48.95c-0.06539 0.4256-0.60313 1.6084-0.65433 1.7449z"/><path class="UnoptimicedTransforms" transform="matrix(-1 0 0 1 64.021 -.079199)" d="m25.862 48.95s-0.19886-0.03055-0.19886-0.03055c-0.0047 0.03078-0.01066 0.08591-0.02578 0.17047-0.01178 0.0659-0.02791 0.1442-0.05042 0.2398-0.04017 0.17058-0.09198 0.35969-0.1506 0.56319-0.05346 0.18559-0.09708 0.33034-0.15054 0.51594-0.02288 0.07982-0.03854 0.13674-0.05095 0.1838-0.0071 0.02706-0.01206 0.04651-0.01629 0.06309-0.0023 0.0091-0.0043 0.0167-0.0059 0.02285-0.0019 0.0071-0.0035 0.01241-5e-3 0.01631 0.0015-0.0039 0.0039-0.0089 0.0074-0.01531 0.0031-0.0056 7e-3 -0.01232 0.01181-0.02037 0.0083-0.01389 0.01972-0.03243 0.03384-0.05551 0.02475-0.04046 0.05657-0.09285 0.09807-0.16354 0.07266-0.12376 0.16446-0.28582 0.26386-0.47137 0.09853-0.18391 0.1939-0.37118 0.26912-0.53252 0.04296-0.09215 0.07824-0.17344 0.10525-0.24304 0.03554-0.09159 0.05577-0.16038 0.0638-0.21266 0 0-0.19886-0.03055-0.19886-0.03055z"/><path class="UnoptimicedTransforms" transform="matrix(-1 0 0 1 64.021 -.079199)" d="m27.762 49.542c-0.23477 0.61823-0.39717 1.3169-0.59202 1.963z"/><path class="UnoptimicedTransforms" transform="matrix(-1 0 0 1 64.021 -.079199)" d="m27.762 49.542-0.18809-0.07143c-0.14502 0.38188-0.28702 1.6468-0.40393 2.0344 0.1169-0.38763 0.6434-1.5316 0.7801-1.8916l-0.18809-0.07143z"/><path class="UnoptimicedTransforms" transform="matrix(-1 0 0 1 64.021 -.079199)" d="m29.694 49.947c-0.1427 0.70003-0.16659 1.416-0.24927 2.1188z"/><path class="UnoptimicedTransforms" transform="matrix(-1 0 0 1 64.021 -.079199)" d="m29.694 49.947-0.19714-0.04019c-0.05033 0.24689-0.05966 0.62871-0.05014 1.0889 0.0095 0.4601 0.02622 0.83024-2e-3 1.0701 0.01983-0.16857 0.12008-0.67213 0.20226-1.0508 0.09088-0.41871 0.20269-0.82443 0.24415-1.0278l-0.19714-0.04019z"/></g></svg>
