<?xml version="1.0" encoding="UTF-8"?>
<svg version="1.1" viewBox="0 0 64 64" xml:space="preserve" xmlns="http://www.w3.org/2000/svg" xmlns:xlink="http://www.w3.org/1999/xlink"><defs><linearGradient id="linearGradient9402"><stop stop-color="#faa" offset="0"/><stop stop-color="#ff8080" offset="1"/></linearGradient><radialGradient id="radialGradient9396" cx="32.775" cy="49.96" r="16.832" gradientTransform="matrix(1 0 0 .74287 -3.219e-8 12.221)" gradientUnits="userSpaceOnUse" xlink:href="#linearGradient9402"/><radialGradient id="radialGradient9406" cx="16.467" cy="34.023" r="6.1212" gradientTransform="matrix(1 0 0 1.4649 -3.219e-8 -15.818)" gradientUnits="userSpaceOnUse" xlink:href="#linearGradient9402"/><radialGradient id="radialGradient9416" cx="47.533" cy="34.376" r="6.1212" gradientTransform="matrix(1 0 0 1.4649 -3.219e-8 -15.982)" gradientUnits="userSpaceOnUse" xlink:href="#linearGradient9402"/><radialGradient id="radialGradient9426" cx="38.388" cy="19.448" r="5.6866" gradientTransform="matrix(1 0 0 1.6163 .75052 -11.985)" gradientUnits="userSpaceOnUse" xlink:href="#linearGradient9402"/><radialGradient id="radialGradient9436" cx="24.111" cy="19.932" r="5.6866" gradientTransform="matrix(1 0 0 1.6163 .75052 -12.284)" gradientUnits="userSpaceOnUse" xlink:href="#linearGradient9402"/></defs><g stroke="#000" stroke-linejoin="round"><path d="m23.559 59.782c-2.5597 0.123-5.2001-1.2517-6.6426-4.2862-3.9867-8.3864 5.1965-11.118 7.0126-13.795 1.9869-2.9292 3.2326-6.435 8.5967-6.435 5.3642 0 6.6099 3.5058 8.5967 6.435 1.8161 2.6774 10.999 5.4088 7.0126 13.795-1.4425 3.0344-4.0829 4.4092-6.6426 4.2862-3.3921-0.163-6.8108-2.2028-8.9667-2.2028-2.1558 0-5.5746 2.0398-8.9667 2.2028z" fill="url(#radialGradient9396)" stroke-width=".48331"/><g stroke-width=".5"><path d="m10.816 36.832c-1.0202-3.9263 1.6861-10.931 5.1115-11.501 2.1845-0.36327 6.1316 3.657 6.3894 8.5927 0.5308 10.162-9.1171 12.082-11.501 2.9083z" fill="url(#radialGradient9406)"/><path d="m14.782 24.581c-1.8248-0.44099 0.82587-5.5654 1.366-5.42 1.6071 0.43269 0.95651 5.9813-1.366 5.42z" fill="#ff8080"/><path d="m53.184 37.184c1.0202-3.9263-1.6861-10.931-5.1115-11.501-2.1845-0.36327-6.1316 3.657-6.3894 8.5927-0.5308 10.162 9.1171 12.082 11.501 2.9083z" fill="url(#radialGradient9416)"/><path d="m49.218 24.934c1.8248-0.44099-0.82587-5.5654-1.366-5.42-1.6071 0.43269-0.95651 5.9813 1.366 5.42z" fill="#ff8080"/><path d="m29.854 25.242c0.48855-3.9952 0.48909-7.9905 0.39659-11.986-0.07445-3.2156-4.6587-2.6643-6.742-0.48472-2.0259 2.1195-6.946 8.4956-1.8507 14.233 2.5255 2.8438 7.6649 2.5815 8.1961-1.7626z" fill="url(#radialGradient9436)"/><path d="m34.146 24.758c-0.48855-3.9952-0.48909-7.9905-0.39659-11.986 0.07445-3.2156 4.6587-2.6643 6.742-0.48472 2.0259 2.1195 6.946 8.4956 1.8507 14.233-2.5255 2.8438-7.6649 2.5815-8.1961-1.7626z" fill="url(#radialGradient9426)"/><path d="m27.827 9.9078c-1.8248-0.44099 0.82587-5.5654 1.366-5.42 1.6071 0.43269 0.95651 5.9813-1.366 5.42z" fill="#ff8080"/><path d="m37.688 9.6434c1.8248-0.44099-0.82587-5.5654-1.366-5.42-1.6071 0.43269-0.95651 5.9813 1.366 5.42z" fill="#ff8080"/></g></g></svg>
