<?xml version="1.0" encoding="UTF-8"?>
<svg version="1.1" viewBox="0 0 64 64" xml:space="preserve" xmlns="http://www.w3.org/2000/svg" xmlns:xlink="http://www.w3.org/1999/xlink"><defs><linearGradient id="linearGradient9402"><stop stop-color="#faa" offset="0"/><stop stop-color="#ff8080" offset="1"/></linearGradient><radialGradient id="radialGradient9396" cx="32.775" cy="49.96" r="16.832" gradientTransform="matrix(1.0948 0 0 .76836 -3.609 9.1013)" gradientUnits="userSpaceOnUse" xlink:href="#linearGradient9402"/><radialGradient id="radialGradient9406" cx="16.467" cy="34.023" r="6.1212" gradientTransform="matrix(.93052 -.36624 .53651 1.3631 -21.607 -5.1379)" gradientUnits="userSpaceOnUse" xlink:href="#linearGradient9402"/><radialGradient id="radialGradient9514" cx="16.467" cy="34.023" r="6.1212" gradientTransform="matrix(-.93052 -.36624 -.53651 1.3631 85.607 -5.4023)" gradientUnits="userSpaceOnUse" xlink:href="#linearGradient9402"/><radialGradient id="radialGradient9520" cx="16.467" cy="34.023" r="6.1212" gradientTransform="matrix(.99489 .10095 -.14789 1.4574 11.872 -29.953)" gradientUnits="userSpaceOnUse" xlink:href="#linearGradient9402"/><radialGradient id="radialGradient9526" cx="16.467" cy="34.023" r="6.1212" gradientTransform="matrix(-.99489 .10095 .14789 1.4574 52.128 -29.998)" gradientUnits="userSpaceOnUse" xlink:href="#linearGradient9402"/></defs><g stroke="#000" stroke-linejoin="round"><path d="m22.185 58.295c-2.8025 0.12722-5.6934-1.2947-7.2727-4.4333-4.3648-8.6742 5.1606-11.676 7.149-14.445 2.1753-3.0297 4.0679-6.4796 9.9409-6.4796 5.8729 0 7.7215 3.4058 9.8968 6.4355 1.9883 2.7693 11.558 5.8148 7.193 14.489-1.5793 3.1386-4.4702 4.5605-7.2727 4.4333-3.7138-0.1686-7.3246-1.7056-9.685-1.7056-2.3603 0-6.2355 1.537-9.9494 1.7056z" fill="url(#radialGradient9396)" stroke-width=".51431"/><g stroke-width=".5"><path d="m7.6152 40.889c-2.7868-2.9479-1.9984-11.662 0.9805-13.446 1.8997-1.1381 7.6978 1.3756 10.058 5.7179 3.8402 7.064-5.9048 13.159-11.039 7.7285z" fill="url(#radialGradient9406)"/><path d="m7.6415 25.935c-1.2159 0.17879-0.43905-5.3094-0.43905-5.3094s2.8866 3.1079 2.4217 4.6569c-0.089941 0.29968-1.4639 0.57618-1.9825 0.65246z" fill="#ff8080"/><path d="m56.385 40.625c2.7868-2.9479 1.9984-11.662-0.9805-13.446-1.8997-1.1381-7.6978 1.3756-10.058 5.7179-3.8402 7.064 5.9048 13.159 11.039 7.7285z" fill="url(#radialGradient9514)"/><path d="m16.134 23.158c-0.52651-4.0223 3.877-10.267 7.3425-10.488 2.21-0.14088 6.1144 4.9279 5.9667 9.8682-0.28614 9.5735-12.041 10.311-13.309 0.62002z" fill="url(#radialGradient9520)"/><path d="m22.525 10.855c-1.2003-0.26397 1.4722-5.1201 1.4722-5.1201s1.5969 3.9295 0.61292 5.2131c-0.19036 0.24831-1.573 0.01966-2.0851-0.09295z" fill="#ff8080"/><path d="m47.866 23.114c0.52651-4.0223-3.877-10.267-7.3425-10.488-2.21-0.14088-6.1144 4.9279-5.9667 9.8682 0.28614 9.5735 12.041 10.311 13.309 0.62002z" fill="url(#radialGradient9526)"/><path d="m41.475 10.811c1.2003-0.26397-1.4722-5.1201-1.4722-5.1201s-1.5969 3.9295-0.61292 5.2131c0.19036 0.24831 1.573 0.01966 2.0851-0.09295z" fill="#ff8080"/><path d="m56.603 25.935c1.2159 0.17879 0.43905-5.3094 0.43905-5.3094s-2.8866 3.1079-2.4217 4.6569c0.08994 0.29968 1.4639 0.57618 1.9825 0.65246z" fill="#ff8080"/></g></g></svg>
