<?xml version="1.0" encoding="UTF-8"?>
<svg version="1.1" viewBox="0 0 100 100" xmlns="http://www.w3.org/2000/svg" xmlns:xlink="http://www.w3.org/1999/xlink">
 <defs>
  <linearGradient id="linearGradient1076">
   <stop stop-color="#f95" offset="0"/>
   <stop stop-color="#fca" offset="1"/>
  </linearGradient>
  <linearGradient id="linearGradient1070">
   <stop stop-color="#faa" offset="0"/>
   <stop stop-color="#ff8080" offset="1"/>
  </linearGradient>
  <linearGradient id="linearGradient899" x1="172.07" x2="179.93" y1="122.44" y2="103.5" gradientTransform="scale(.38714) rotate(-5.205 5996.6 887.12)" gradientUnits="userSpaceOnUse" xlink:href="#linearGradient1076"/>
  <linearGradient id="linearGradient907" x1="14.25" x2="16.544" y1="232.35" y2="227.81" gradientTransform="matrix(1.4572 -.13274 .13274 1.4572 -47.637 -74.744)" gradientUnits="userSpaceOnUse" xlink:href="#linearGradient1076"/>
  <linearGradient id="linearGradient982" x1="134.46" x2="96.964" y1="69.917" y2="163.67" gradientTransform="scale(.38714) rotate(-5.205 5996.6 887.12)" gradientUnits="userSpaceOnUse" xlink:href="#linearGradient1070"/>
  <linearGradient id="linearGradient982-5" x1="110.75" x2="113.57" y1="79.546" y2="174.6" gradientTransform="matrix(.3488 .16798 -.16798 .3488 48.706 -15.065)" gradientUnits="userSpaceOnUse" xlink:href="#linearGradient1070"/>
  <linearGradient id="linearGradient899-1" x1="178.15" x2="180.1" y1="124.97" y2="104.51" gradientTransform="matrix(.3488 .16798 -.16798 .3488 48.706 -15.065)" gradientUnits="userSpaceOnUse" xlink:href="#linearGradient1076"/>
  <linearGradient id="linearGradient907-9" x1="15.706" x2="15.838" y1="232.74" y2="227.18" gradientTransform="matrix(1.3183 .63488 -.63488 1.3183 174.49 -273.65)" gradientUnits="userSpaceOnUse" xlink:href="#linearGradient1076"/>
  <linearGradient id="linearGradient1225" x1="121.47" x2="120.69" y1="120.36" y2="113.28" gradientTransform="matrix(.3488 .16798 -.16798 .3488 48.706 -15.065)" gradientUnits="userSpaceOnUse">
   <stop stop-color="#f55" offset="0"/>
   <stop stop-color="#faa" offset="1"/>
  </linearGradient>
  <linearGradient id="linearGradient2123" x1="29.098" x2="28.388" y1="58.484" y2="54.857" gradientUnits="userSpaceOnUse" xlink:href="#linearGradient1076"/>
  <linearGradient id="linearGradient2133" x1="70.125" x2="71.055" y1="47.404" y2="44.754" gradientUnits="userSpaceOnUse" xlink:href="#linearGradient1076"/>
 </defs>
 <path d="m84.754 52.398c-0.35063 0.63461 0.76707 1.5086 1.4464 0.96082 0.61255-0.49396 1.3657-1.5185 1.6858-2.1367-0.96272 0.20693-2.5414 0.10661-3.1322 1.1759z" fill="#ffb380" stroke="#000" stroke-width=".2"/>
 <path d="m89.645 52.74-37.042-12.979-0.034426-2.5475 39.245 13.667z" fill="url(#linearGradient2133)" stroke="#000" stroke-width=".2"/>
 <g fill="#ffb380" stroke="#000" stroke-width=".2">
  <path d="m55.352 42.086c-0.16241 0.70661-1.578 0.61153-1.7184-0.24977-0.12655-0.77666-0.0037-2.0423 0.17054-2.7163 0.57885 0.7966 1.8215 1.7755 1.5479 2.9661z"/>
  <path d="m44.389 54.621c0.26955 0.67306 1.4524 0.51057 1.4581-0.36207 0.0051-0.78689-0.26774-1.6681-0.54395-2.3072-0.44893 0.87642-1.3683 1.5352-0.91413 2.6693z"/>
  <path d="m13.039 61.39c-0.03446 0.72421-1.5594 0.93462-1.8504 0.11189-0.26236-0.74188-0.29287-1.6639-0.24098-2.3582 0.711 0.68126 2.1494 1.026 2.0914 2.2463z"/>
 </g>
 <g stroke="#000" stroke-width=".2">
  <path d="m8.6904 57.96 39.606-8.3496 0.73028 2.5073-39.971 8.1792z" fill="url(#linearGradient2123)"/>
  <path transform="translate(0 -197)" d="M5.578 253.086c-1.596.127-3.006 1.403-3.362 2.967-.35 1.38.182 2.932 1.315 3.798 1.177.99 2.767 1.171 4.115.45 1.212-.622 2.181-1.963 2.178-3.335-.024-.615-.04-1.248-.35-1.792-.707-1.385-2.353-2.288-3.896-2.088z" fill="url(#linearGradient907)"/>
  <path transform="translate(0 -197)" d="M50.63 243.627c-1.799.174-3.206 1.664-3.517 3.274.524.684.603 1.54.518 2.456.204.51.808.85 1.224 1.188 1.415.99 3.473.85 4.76-.294.936-.799 1.477-2.057 1.294-3.288-.13-1.563-1.39-2.905-2.902-3.253-.448-.12-.918-.126-1.377-.083z" fill="url(#linearGradient899)"/>
  <path transform="translate(0 -197)" d="M35.04 236.235c-2.755.234-5.32 1.688-7.167 3.697-.73.763-1.3 1.744-2.063 2.471-.345.166-.692-.146-1.01-.25-1.804-.912-3.742-1.755-5.777-1.9-1.227-.071-2.479.054-3.683.294-2.056.495-4.097 1.487-5.564 3.026-1.49 1.6-2.242 3.988-2.092 6.15.149 2.645 1.346 5.253 3.254 7.099 1.994 1.788 4.413 2.933 6.84 4.004a63.938 63.938 0 0 0 10.596 3.395c1.006.19 2.18.473 3.212.414.869-.055 1.453-.718 2.139-1.189 2.41-1.865 4.47-4.161 6.454-6.466 2.006-2.396 4.087-4.94 5.335-7.825.99-2.248 1.093-4.854.1-7.127-1.208-2.838-4.08-4.978-7.05-5.629a9.865 9.865 0 0 0-3.524-.164zm.3 3.06c1.868-.125 3.753.021 5.382 1.05 1.421.87 2.203 2.385 2.307 4.03.141 1.34-.081 2.656-.423 3.952-.584 1.612-1.605 2.9-2.661 4.224-2.435 2.92-5.134 5.545-8.034 7.992-.414.31-.802.645-1.3.812-1.224-.158-2.432-.527-3.628-.839-3.712-1.06-7.403-2.192-10.921-3.792-1.386-.624-2.716-1.338-3.684-2.53-1.088-1.31-1.809-2.923-1.849-4.65-.13-1.936.854-3.812 2.474-4.873 1.73-1.167 3.836-1.532 5.89-1.45 1.722.111 3.342.696 4.867 1.47.754.339 1.523.843 2.33 1.057.546.103.916-.531 1.229-.867 1.215-1.524 2.32-3.132 3.983-4.207 1.167-.788 2.635-1.263 4.037-1.38z" fill="url(#linearGradient982)"/>
 </g>
 <path d="m7.043 56.63c-0.927-0.287-1.789 0.094-1.789 0.094s0.914-0.097 1.71 0.158c0.145 0.046 0.278 0.104 0.401 0.173 0.723 0.394 1.264 1.153 1.264 1.153s-0.293-0.909-1.135-1.385a2.418 2.418 0 0 0-0.451-0.193zm44.925-9.432c-0.927-0.287-1.789 0.094-1.789 0.094s0.913-0.097 1.71 0.158c0.145 0.046 0.278 0.104 0.401 0.173 0.723 0.395 1.264 1.154 1.264 1.154s-0.293-0.91-1.135-1.385a2.418 2.418 0 0 0-0.451-0.194zm-27.348 15.907a207.35 207.35 0 0 0-3.253-0.936 39.007 39.007 0 0 0 3.895 1.334c1.48 0.431 2.994 0.739 2.994 0.739s-1.46-0.5-2.939-0.931c-0.235-0.069-0.468-0.137-0.698-0.206zm-5.197-19.433c-2.096-0.26-4.07 0.37-4.07 0.37s2.018-0.425 4.046-0.172c0.287 0.036 0.578 0.085 0.874 0.148 2.039 0.432 3.887 1.443 3.887 1.443s-1.747-1.193-3.845-1.639c-0.302-0.064-0.6-0.114-0.892-0.15zm19.564-3.756c-2.01-0.595-4.01-0.24-4.01-0.24s2.014-0.143 3.953 0.432c0.254 0.075 0.506 0.16 0.757 0.257 1.578 0.607 2.982 1.58 2.982 1.58s-1.282-1.14-2.91-1.767a10.3 10.3 0 0 0-0.772-0.262z" fill="#fff"/>
 <path d="m49.662 34.596c-0.891 0.1-1.754 0.503-2.379 1.155-1.01 1.003-1.35 2.609-0.823 3.934 0.5 1.454 1.772 2.426 3.299 2.5 1.36 0.09 2.88-0.563 3.583-1.742 0.077-0.14 0.154-0.283 0.228-0.427a10.77 10.77 0 0 1-0.292-3.727c-0.396-0.59-0.941-1.075-1.586-1.356a3.65 3.65 0 0 0-2.03-0.337z" fill="url(#linearGradient907-9)" stroke="#000" stroke-width=".2"/>
 <path d="m94.416 49.156c-1.632-0.775-3.605-0.22-4.7 1 0.099 0.858-0.273 1.632-0.817 2.374-0.087 0.542 0.257 1.144 0.44 1.648 0.705 1.576 2.543 2.514 4.235 2.194 1.213-0.204 2.323-1.006 2.799-2.155 0.691-1.41 0.3-3.207-0.818-4.283-0.323-0.332-0.723-0.58-1.139-0.778z" fill="url(#linearGradient899-1)" stroke="#000" stroke-width=".2"/>
 <path d="m53.173 37.392c-0.031-3e-3 -0.057 0.08 0.036 0.126 2e-3 -0.09-0.018-0.123-0.036-0.126z" fill="url(#linearGradient1225)"/>
 <path d="m84.84 34.804c-2.484-1.215-5.43-1.286-8.048-0.512-1.017 0.28-2.011 0.829-3.04 1.06-0.38-0.035-0.518-0.48-0.736-0.734-1.08-1.709-2.31-3.428-3.981-4.597-1.016-0.692-2.154-1.228-3.31-1.64-2.019-0.633-4.28-0.831-6.33-0.264-2.1 0.608-3.972 2.27-4.954 4.202-1.231 2.344-1.544 5.197-0.856 7.761 0.792 2.559 2.279 4.784 3.81 6.95a63.937 63.937 0 0 0 7.346 8.357c0.765 0.68 1.628 1.527 2.543 2.006 0.774 0.398 1.616 0.13 2.446 0.079 3.025-0.363 5.973-1.273 8.86-2.23 2.95-1.026 6.044-2.14 8.596-3.973 2.004-1.42 3.433-3.602 3.748-6.063 0.423-3.055-0.941-6.366-3.156-8.451a9.865 9.865 0 0 0-2.937-1.951zm-1.315 2.778c1.667 0.854 3.209 1.948 4.078 3.667 0.772 1.477 0.664 3.178-0.091 4.643-0.569 1.222-1.435 2.237-2.395 3.173-1.329 1.082-2.866 1.662-4.453 2.256-3.588 1.253-7.253 2.119-10.998 2.729-0.515 0.053-1.02 0.14-1.533 0.028-0.969-0.765-1.816-1.702-2.682-2.584-2.639-2.817-5.224-5.685-7.42-8.865-0.868-1.247-1.642-2.544-1.86-4.064-0.261-1.682-0.05-3.436 0.803-4.939 0.883-1.727 2.691-2.832 4.626-2.909 2.084-0.112 4.079 0.657 5.799 1.783 1.42 0.98 2.509 2.314 3.42 3.76 0.472 0.68 0.873 1.507 1.455 2.105 0.415 0.37 1.058 0.015 1.5-0.112 1.826-0.683 3.6-1.494 5.578-1.562 1.406-0.077 2.91 0.27 4.173 0.891z" fill="url(#linearGradient982-5)" stroke="#000" stroke-width=".2"/>
 <path d="m60.671 46.413a207.36 207.36 0 0 0-2.176-2.591 39.007 39.007 0 0 0 2.487 3.28 42.427 42.427 0 0 0 2.073 2.284s-0.933-1.23-1.92-2.412l-0.464-0.56z" fill="#fff"/>
 <path d="m51.13 35.266c-0.927-0.287-1.789 0.095-1.789 0.095s0.913-0.097 1.71 0.158c0.145 0.046 0.278 0.104 0.401 0.172 0.723 0.395 1.264 1.154 1.264 1.154s-0.293-0.909-1.135-1.385a2.418 2.418 0 0 0-0.451-0.194zm42.512 13.969c-0.922-0.22-1.78 0.113-1.78 0.113s0.902-0.055 1.718 0.144c0.155 0.038 0.3 0.086 0.434 0.144 0.799 0.337 1.435 1.042 1.435 1.042s-0.408-0.885-1.33-1.285a2.972 2.972 0 0 0-0.477-0.158zm-27.562-20.332c-2.009-0.767-4.14-0.824-4.14-0.824s2.11 0.261 4.07 1.01c0.277 0.107 0.557 0.225 0.838 0.356 1.89 0.882 3.503 2.228 3.503 2.228s-1.478-1.503-3.419-2.41a12.877 12.877 0 0 0-0.851-0.36zm18.964 6.352c-1.852-0.989-3.874-1.015-3.874-1.015s1.994 0.238 3.78 1.191c0.232 0.124 0.462 0.258 0.689 0.401 1.434 0.907 2.688 2.083 2.688 2.083s-1.11-1.32-2.582-2.252c-0.23-0.145-0.464-0.282-0.701-0.408z" fill="#fff"/>
</svg>
