<?xml version="1.0" encoding="UTF-8"?>
<svg cursor="default" version="1.1" viewBox="0 0 256 256" xmlns="http://www.w3.org/2000/svg" xmlns:xlink="http://www.w3.org/1999/xlink">
 <defs>
  <linearGradient id="linearGradient4350">
   <stop stop-color="#faa" offset="0"/>
   <stop stop-color="#f55" offset="1"/>
  </linearGradient>
  <radialGradient id="radialGradient4356" cx="159.39" cy="162.73" r="34.706" gradientTransform="matrix(.57874 0 0 .58604 -26.295 83.882)" gradientUnits="userSpaceOnUse" xlink:href="#linearGradient4350"/>
  <radialGradient id="radialGradient4356-3" cx="159.39" cy="162.73" r="34.706" gradientTransform="matrix(.57874 0 0 .58604 145.97 65.678)" gradientUnits="userSpaceOnUse" xlink:href="#linearGradient4350"/>
  <linearGradient id="linearGradient1502" x1="152.55" x2="149.81" y1="186.7" y2="161.03" gradientTransform="translate(-.59202)" gradientUnits="userSpaceOnUse">
   <stop stop-color="#ff2a2a" offset="0"/>
   <stop stop-color="#f55" offset=".083483"/>
   <stop stop-color="#ff8080" offset=".43988"/>
   <stop stop-color="#faa" offset=".56782"/>
   <stop stop-color="#ff8080" offset=".72032"/>
   <stop stop-color="#f55" offset="1"/>
  </linearGradient>
 </defs>
 <g fill="#ff7f2a" fill-rule="evenodd" stroke="#000">
  <path d="m17.715 109.17c11.37 0.24012 8.9287-10.996 5.6032-12.722 16.519-2.9021 1.82 23.487-5.6032 12.722z" stroke-width="1.2236"/>
  <path d="m36.571 97.805c9.2796 0.2068 7.2547-8.9944 3.6754-11.567 12.185 0.57042 8.2132 16.959-3.6754 11.567zm19.4-7.0587c9.2796 0.20778 7.2861-9.4893 4.5731-10.978 11.008 4.1899 0.38518 18.197-4.5731 10.979zm24.048-5.0632c9.2345-0.93404 6.0658-10.313 3.1902-11.457 11.44 2.806 2.6169 18.011-3.1902 11.457z" stroke-width="1.0276"/>
  <path d="m149.13 74.313c9.0365 0.17348 7.0959-7.9545 4.4536-9.2031 10.722 3.5127 0.3744 15.253-4.4536 9.2031z" stroke-width=".92763"/>
  <path d="m127 77.359c9.3227 0.1921 7.3194-8.7739 4.5947-10.151 11.058 3.8743 0.38616 16.824-4.5947 10.151zm-23.558 3.4147c9.3217 0.1921 7.3194-8.7739 4.5947-10.151 11.058 3.8743 0.38616 16.824-4.5947 10.151z" stroke-width=".9801"/>
 </g>
 <g fill-rule="evenodd" stroke="#000" stroke-width=".9801">
  <path d="m230.06 170.5c-0.46554 0.31363 1.0213 13.829 1.8485 15.901 1.2506 3.1304 5.4837 3.5901 6.1168 1.8524 0.60864-1.6691 0.30579-6.3579-0.0451-9.4923z" fill="#ffe680"/>
  <path d="m168.64 54.447c-25.26 0.10781-50.004 5.2886-76.137 9.6481-29.064 4.8476-64.298 13.945-84.031 39.64-6.06 10.053-4.2507 21.742 2.0357 34.357 9.406-17.265 28.954-39.077 79.148-45.494 27.194-3.4764 54.956-8.9826 81.184-13.613 23.699 9.948 58.844 28.57 71.094 29.845l1.181-13.016-27.723-24.503-35.888-16.583a176.22 176.22 0 0 0-10.863-0.28129zm-16.054 10.863c2.7002 0 4.1458 1.8524 4.1458 4.6721-9.8e-4 2.8178-1.7554 4.4222-4.4546 4.4222-2.6992 0-3.9596-1.5417-3.9606-4.3605 0-2.8197 1.5701-4.7339 4.2703-4.7339zm-22.463 2.3199c2.7345 0 4.9515 2.2719 4.9505 5.075 0 2.8021-2.217 5.073-4.9495 5.073-2.7345 0-4.9495-2.2709-4.9505-5.073 0-2.8031 2.215-5.075 4.9495-5.075zm-23.473 2.8354c0.45085-0.0049 0.89777 0.05881 1.3261 0.1872 2.6178 0.78702 4.0184 3.8263 3.1275 6.7882-0.89189 2.9609-3.7352 4.7241-6.353 3.9361-2.6178-0.788-4.0184-3.8263-3.1285-6.7882 0.72527-2.4101 2.7815-4.0968 5.0279-4.1233zm-23.577 4.579c0.45085-5e-3 0.89777 0.05783 1.3261 0.1872 2.6178 0.78702 4.0184 3.8263 3.1285 6.7882-0.89189 2.9609-3.7361 4.7231-6.354 3.9351-2.6178-0.78702-4.0184-3.8263-3.1275-6.7872 0.72429-2.4101 2.7805-4.0968 5.0269-4.1233zm-22.444 4.7025a3.1559 3.1559 0 0 1 1.1114 0.18622c2.1974 0.78702 3.3735 3.8253 2.6267 6.7882-0.74782 2.9619-3.1363 4.7241-5.3337 3.9371-2.1964-0.788-3.3715-3.8263-2.6237-6.7882 0.60766-2.4091 2.3326-4.0958 4.2184-4.1233zm-18.743 7.3017c0.34304-0.0058 0.68313 0.05783 1.0095 0.1872 1.9867 0.788 3.0491 3.8263 2.3728 6.7882s-2.8364 4.7241-4.8241 3.9351c-1.9867-0.78702-3.0491-3.8263-2.3728-6.7872 0.54886-2.4101 2.1102-4.0968 3.8145-4.1233zm-16.348 10.396h2e-3c0.27247-0.0058 0.54298 0.05685 0.80172 0.18622 1.5829 0.78702 2.4297 3.8253 1.8916 6.7872-0.53906 2.9628-2.2591 4.726-3.842 3.938-1.5829-0.78702-2.4306-3.8263-1.8916-6.7882 0.4381-2.4091 1.6799-4.0949 3.0383-4.1233z" fill="#ffb380"/>
  <path d="m181.23 94.207c25.718 11.075 31.544 23.549 45.542 35.766-0.32833 3.6411-0.30383 6.0727-3.8626 8.2946-0.099 7.6575 2.5022 19.168 4.0615 27.641l7.8457 5.7708 6.5628-3.7371c-0.30089-10.584-0.9899-29.994-3.055-36.671-5.4298-18.171-10.989-41.546-23.309-48.078-18.109-14.294-36.994-23.395-47.152-25.617-2.66 13.437 8.9111 24.421 13.366 36.631z" fill="#ffb380"/>
  <path d="m163.56 88.737c-7.0587-0.39694-14.117-2.5434-21.177-4.7692l5.9512-0.87523c5.464 1.3712 10.113 2.364 14.789 3.3696z" fill="#ffe680"/>
  <path d="m182.05 94.888c-7.8359-1.8004-16.502-4.826-22.72-7.9202-0.51847-9.4286-0.30677-18.767 0.49495-28.031 1.6603 2.2062 3.6166 3.5891 21.657 9.2815 2.5551 0.22934 3.4666-0.22542 3.3108-1.1144l-0.40479 26.855c-0.71939 1.181-1.0115 0.81152-2.3375 0.92914z" fill="#ffb380"/>
  <path d="m63.694 200c-6.9636 4.186-19.227 1.0409-29.303-8.8797l7.7075-1.6603c2.8521 3.8126 5.9188 7.0489 14.608 8.0613z" fill="#ffe680"/>
  <path d="m41.521 157.14 5.27 31.95c-0.61942 6.5343-11.8 4.0449-14.991 2.8207-9.6912-12.407-27.614-26.367-28.103-35.783l-1.1663-39.523 10.767 26.36c2.7786 1.378 6.649 8.8013 6.204 2.2278 5.8708 4.3683 10.267 2.1974 22.019 11.947z" fill="#ffb380"/>
  <path d="m233.5 146.68c-26.256 0.1088-25.926 40.246 0.3102 40.098 26.661-0.14931 26.11-40.208-0.3102-40.098z" fill="url(#radialGradient4356-3)"/>
 </g>
 <path d="m68.456 172.25 149.54-15.108c7.5186-1.3779 9.9564 21.995 3.2582 22.556l-151.56 16.241z" fill="url(#linearGradient1502)" stroke="#000" stroke-linejoin="bevel"/>
 <g fill-rule="evenodd" stroke="#000">
  <g stroke-width=".9801">
   <path d="m61.24 164.88c-26.256 0.1088-25.926 40.246 0.3102 40.098 26.661-0.14933 26.11-40.208-0.3102-40.098z" fill="url(#radialGradient4356)"/>
   <path d="m184.64 66.734c1.183 0.97226-0.89189 2.4061-2.4434 1.7632-15.105-5.7708-18.63-4.3595-22.493-9.6834 0.57335-1.33-1.6407-2.9413 8.7258-3.2804 7.3821 3.7097 34.088 17.183 46.47 25.68 17.452 11.977 23.934 41.726 24.38 55.072 0.34597 10.373-15.85 4.7143-16.275 2.3513-0.73997-4.1203 3.943-7.4792 4.6751-11.156 0.47927-2.3993-1.1222-5.3023-0.90071-7.2233 0.92717-1.1261 4.3213-0.87229 5.5699 0.31069 0.38714 2.02 0.70763 3.3029 1.1026 5.7414 0.96442 5.9443-8.2818 11.049-3.3921 12.017 5.9894 1.3133 6.65-7.3811 4.5643-14.343-8.8856-29.663-12.862-34.6-21.874-41.125-8.4308-6.106-22.744-13.911-30.514-17.412-4.8172-2.1699-7.3802-2.4797-10.778-4.8936-5.4543-3.8753-4.6192-1.9504-5.1945-0.87229-1.7603 0.6008 0.25972 1.4084 6.157 3.2314 3.1393 0.96932 9.7716 2.5581 12.221 3.8224z" fill="#fca"/>
   <path d="m17.727 144.3c-1.2771-0.75467 1.0654-2.4944 1.9249-2.1876 7.3596 8.2162 26.817 11.294 21.046 16.539-8.8454 8.0398-35.598-9.9921-38.153-38.591-3.1461-35.198 62.609-52.367 77.883-54.955 37.678-6.3863 56.69-10.894 85.204-11.581 8.7866-0.21268 14.296 0.13721 19.363 2.4728 13.247 6.106 19.844 8.9101 32.997 15.408l26.603 22.753 0.30775 14.319-3.3343 0.46359-0.12349-13.383-28.879-24.153c-17.411-6.8244-27.701-17.235-46.491-16.43-28.144 1.2055-47.395 5.1847-84.947 11.793-30.617 5.3876-78.197 25.481-74.733 53.468 3.0716 24.814 25.522 37.908 28.746 37.454 2.8874-0.83308-8.6317-5.0926-17.413-13.388z" fill="#fca"/>
  </g>
  <path d="m169.39 58.53c0.46555-2.3679 12.636-6.2432 12.387-4.2703l3.4323 1.2604c0.54101-0.23326 0.33911-2.3885-0.71841-3.7871-1.2104-1.6005-12.636 0.60178-17.006 3.0314-1.3574 0.99088-0.54494 3.1892-0.83995 5.6532z" fill="#ffe680" stroke-width=".73161"/>
 </g>
 <ellipse transform="matrix(.99675 -.080558 -.049878 .99876 0 0)" cx="68.452" cy="175.8" rx="4.3466" ry="2.1407" fill="#ff2a2a" stroke="#000" stroke-linejoin="bevel" stroke-width=".91474"/>
 <ellipse transform="matrix(-.99964 .026644 .15654 .98767 0 0)" cx="-207.38" cy="158.18" rx="4.3466" ry="2.1407" fill="#ff2a2a" stroke="#000" stroke-linejoin="bevel" stroke-width=".91474"/>
 <g fill="#ffe680" stroke="#000">
  <path d="m57.131 171.71c-6.3432-10.426-19.515-21.043-22.084-14.183-2.0935 0.0362-3.6999-1.1585-4.3693-1.8034 2.0629-9.9992 22.316-8.0544 32.334 14.869-0.74476 1.4201-4.5999 2.1747-5.881 1.1171z" fill-rule="evenodd" stroke-width=".9801"/>
  <ellipse transform="matrix(.44708 .8945 -.64629 .7631 0 0)" cx="131.45" cy="61.403" rx="6.11" ry="4.4673" stroke-width=".86526"/>
  <path d="m166.27 60.647c-0.87523-2.3052-25.278-7.5213-24.808-5.6013l-3.544 0.26267c-1.0193-0.2264 1.1173-4.3997 4.7251-4.2879 1.8269 0.05587 24.07 5.073 25.465 5.6003 2.5532 0.96442 2.7708 3.4656 3.3255 5.863z" fill-rule="evenodd" stroke-width=".9801"/>
  <ellipse transform="matrix(.5258 .85061 -.7233 .69053 0 0)" cx="182.17" cy="-108.76" rx="5.2964" ry="4.0694" stroke-width=".76923"/>
  <path d="m230.24 131.7c0.39694-1.8132 4.3516-1.2839 3.8979 0.55768-0.47405 5.8928 0.34139 13.937 1.0435 19.738-1.7371 0.84524-4.0692 1.0276-5.7721-0.1323-0.33189-6.8561-0.61435-14.656 0.83076-20.163z" fill-rule="evenodd" stroke-width=".9801"/>
 </g>
 <g fill="#fff">
  <path d="m17.198 159.1c0.9703 0.14996 1.7132 0.62433 2.2621 1.2379 0.55082 0.61648 0.92914 1.3986 1.1506 2.215 0.07645 0.28227 0.13329 0.56943 0.17348 0.85562 0.21954 0.50672 0.38224 1.0428 0.47927 1.5691 0.14702 0.79683 0.14898 1.5927-0.03528 2.2425 0.43124-0.54395 0.72135-1.3447 0.83994-2.2562 0.07841-0.59492 0.08233-1.2359 0.0068-1.8857-0.11564-0.32251-0.25149-0.63743-0.40674-0.94286-0.45085-0.88405-1.0663-1.6701-1.8298-2.2219-0.76742-0.55474-1.6554-0.85269-2.6414-0.81349zm155.52-83.563c0.39988-0.02352 0.76056 0.04411 1.083 0.17446 0.32148 0.13133 0.61061 0.32735 0.86837 0.56846 0.51456 0.48025 0.92522 1.1565 1.2202 1.9102 0.10095 0.25973 0.18916 0.52925 0.26266 0.80172 0.26627 0.47329 0.48619 0.97121 0.65667 1.4868 0.25483 0.77036 0.39008 1.5535 0.35774 2.216 0.27051-0.6204 0.38812-1.4486 0.35773-2.3395-0.0229-0.60513-0.10688-1.2064-0.2509-1.7946-0.14249-0.28967-0.3012-0.57108-0.47535-0.84289-0.49985-0.77918-1.1202-1.4427-1.8269-1.8524-0.33952-0.20152-0.71388-0.3375-1.1036-0.40086-0.38398-0.05859-0.77608-0.03385-1.1497 0.07253zm-31.889-23.276c0.39204-0.04508 0.90169-0.04312 1.5094-2e-3 0.60767 0.04214 1.3153 0.12349 2.1053 0.24012 1.578 0.23326 3.4833 0.6057 5.567 1.0712 4.1674 0.9311 9.0473 2.2366 13.451 3.5529 0.69587 0.22542 1.2908 0.40282 1.9867 0.62726l0.29403 0.06371c0.70763 0.1529 1.3369 0.30873 1.8877 0.50965 0.54788 0.19994 1.0242 0.44791 1.4172 0.78996 0.39596 0.34402 0.71841 0.7929 0.94286 1.4015-0.13134-0.63314-0.3744-1.1555-0.73508-1.6005-0.3597-0.44594-0.8272-0.80368-1.3839-1.1134-0.55474-0.30873-1.1928-0.5665-1.8896-0.8174l-0.29109-0.10193c-0.63413-0.14996-1.3104-0.29795-2.0259-0.47339-4.4496-1.2016-9.3737-2.3895-13.578-3.202-2.1023-0.40674-4.0253-0.71841-5.6189-0.89189-0.70576-0.08063-1.4147-0.13-2.1249-0.148-0.61354-0.01176-1.1242 0.01862-1.5133 0.09409zm27.352 3.0158c4.0909-2.0023 8.5543-2.5894 13.261-2.9207 0.36166-0.01372 0.69882 0.01862 1.0056 0.08821 0.4136 0.02548 0.79682 0.11957 1.131 0.27345 0.58218 0.26953 1.0409 0.73508 1.2212 1.3859-0.0432-0.67725-0.39498-1.2957-1.0056-1.7446-0.37317-0.26794-0.79546-0.45977-1.2428-0.56454-0.38498-0.03966-0.77337-0.03208-1.1565 0.02254-4.7329 0.51455-9.1875 1.2879-13.214 3.4598z" fill-rule="evenodd" stroke-width=".9801"/>
  <path d="m60.005 168.92c-0.12715-0.26135 0.12591-1.3706-0.0099-1.6312-0.75253-1.444-1.997-3.5671-3.6836-5.7706-1.5411-2.0133-3.3717-3.9935-5.4838-5.6777-2.0835-1.6614-4.2346-2.8708-6.4199-3.6484-2.9111-1.0359-5.4081-1.1373-7.2061-1.0656 1.8004-0.0718 4.2974 0.16105 7.0954 1.3497 2.0984 0.89147 4.1178 2.2123 6.0346 3.9483 1.9449 1.7615 3.6011 3.7843 4.9943 5.8097 1.5296 2.2237 2.6513 4.3195 3.3835 5.7246 0.13205 0.25339 1.1684 0.69983 1.2956 0.96118z"/>
  <path d="m233.04 150.25c-0.0251-0.27726 0.45937-1.203 0.43661-1.5104-0.0387-0.52321-0.1155-1.3097-0.20442-2.2653-0.11526-1.2386-0.23944-2.6388-0.35367-4.2176-0.10675-1.4753-0.1893-2.899-0.23816-4.1763-0.0643-1.682-0.0614-2.8858-0.0143-3.5967-0.0462 0.69655-0.1571 1.9427-0.24325 3.5949-0.0672 1.2892-0.11698 2.7009-0.14364 4.1954-0.0278 1.557-0.0272 3.0355-5e-3 4.2556 0.0178 0.9738 0.0489 1.756 0.0886 2.2924 0.023 0.31075 0.65203 1.1507 0.67717 1.428z"/>
 </g>
</svg>
