<?xml version="1.0" encoding="UTF-8"?>
<svg cursor="default" version="1.1" viewBox="0 0 256 256" xml:space="preserve" xmlns="http://www.w3.org/2000/svg" xmlns:xlink="http://www.w3.org/1999/xlink"><defs><linearGradient id="linearGradient20106"><stop stop-color="#f95" offset="0"/><stop stop-color="#ffb380" offset="1"/></linearGradient><linearGradient id="linearGradient19977" x1="100.58" x2="69.796" y1="193.43" y2="145.95" gradientTransform="translate(-.14507 -.050819)" gradientUnits="userSpaceOnUse"><stop stop-color="#f95" offset="0"/><stop stop-color="#ffb380" offset=".35247"/><stop stop-color="#ffb380" offset=".84094"/><stop stop-color="#f95" offset="1"/></linearGradient><linearGradient id="linearGradient20074" x1="72.537" x2="71.416" y1="167.63" y2="171.37" gradientTransform="translate(-.14507 -.050819)" gradientUnits="userSpaceOnUse"><stop stop-color="#f95" offset="0"/><stop stop-color="#ffb380" offset="1"/></linearGradient><linearGradient id="linearGradient20092" x1="187.36" x2="201.29" y1="229.67" y2="193.53" gradientTransform="translate(-.14507 -.050819)" gradientUnits="userSpaceOnUse"><stop stop-color="#f95" offset="0"/><stop stop-color="#ffb380" offset="1"/></linearGradient><linearGradient id="linearGradient20100" x1="174.67" x2="185.07" y1="231.61" y2="210.98" gradientTransform="translate(-.14507 -.050819)" gradientUnits="userSpaceOnUse"><stop stop-color="#ff7f2a" offset="0"/><stop stop-color="#f95" offset="1"/></linearGradient><linearGradient id="linearGradient20108" x1="160.93" x2="178.38" y1="189.66" y2="180.4" gradientTransform="translate(-.14507 -.050819)" gradientUnits="userSpaceOnUse" xlink:href="#linearGradient20106"/><linearGradient id="linearGradient20116" x1="141.54" x2="148.68" y1="192.65" y2="190.54" gradientTransform="translate(-.14507 -.050819)" gradientUnits="userSpaceOnUse" xlink:href="#linearGradient20106"/><linearGradient id="linearGradient20880" x1="191.69" x2="203.78" y1="29.663" y2="41.628" gradientTransform="translate(-.14507 -.050819)" gradientUnits="userSpaceOnUse" xlink:href="#linearGradient20106"/><linearGradient id="linearGradient20882" x1="112.05" x2="130.49" y1="148.81" y2="140.34" gradientTransform="translate(-.14507 -.050819)" gradientUnits="userSpaceOnUse" xlink:href="#linearGradient20106"/><linearGradient id="linearGradient20890" x1="77.772" x2="80.14" y1="139.84" y2="135.23" gradientTransform="translate(-.14507 -.050819)" gradientUnits="userSpaceOnUse" xlink:href="#linearGradient20106"/></defs><g fill="#ff7f2a" stroke="#000" stroke-linecap="round" stroke-linejoin="round" stroke-width=".75"><path d="m173.85 183.54c0.80119 6.559 9.6067 3.8756 6.1694-2.4927-1.116 2.5519-1.3047 4.8423-6.1694 2.4927z"/><path d="m156.98 49.675c2.349 1.9303 5.1797-1.8511 2.9526-3.2106 5.7308 1.9408 1.0336 10.259-2.9526 3.2106z"/><path d="m135.99 126.14c2.8061 1.1704 4.4253-3.2668 1.9007-3.926 6.0471 0.20479 3.9498 9.5248-1.9007 3.926z"/><path d="m141.71 107.22c2.953 0.72384 3.8688-3.91 1.2727-4.1721 6.0064-0.72988 5.3709 8.802-1.2727 4.1721z"/></g><g fill="#f55" stroke="#000" stroke-linecap="round" stroke-linejoin="round" stroke-width=".75"><path d="m76.088 139.99c-1.907 1.583-6.1621 0.49572-8.6368 2.2032l1.8948 1.7185c3.7373-2.996 5.199-0.92796 7.2267-1.1457z"/><path d="m134.9 223.11-92.541 13.71 4.4245 1.6826 90.547-13.834z"/><path d="m49.117 239.19 0.84129 2.1188 88.553-12.152-10.158 0.0623z"/></g><g stroke="#000" stroke-linecap="round" stroke-linejoin="round" stroke-width=".75"><path d="m154.84 217.31-1.1217 2.4304c-20.284 3.9858-38.113 7.8998-59.575 11.591-10.959 1.8848-16.84 5.7338-26.36 6.668-7.2153 0.70802-13.885 1.2136-21.5 1.2464-4.3347 0.0187-7.1457-2.3452-7.2288-4.4245-0.14533-3.6342 3.3702-5.9609 6.2317-7.665 5.7847-3.4449 9.8708-5.027 14.956-6.9796l51.287-19.692 1.2464 1.6826-51.474 19.942c-5.1135 1.981-9.7629 3.4138-15.018 6.9172-2.3511 1.5673-5.5964 2.8863-4.9854 5.6086 0.27959 1.2456 2.6988 2.3213 5.11 2.4304 6.9651 0.31505 13.684-0.33519 21.188-1.3087 9.539-1.2374 15.293-4.9514 25.363-6.5433 21.542-3.4052 40.786-7.6046 61.881-11.903z" fill="#ff8080"/><path d="m129.04 219.24c-22.559 0.54009-45.893 0.30486-67.677 1.6203-11.971-11.695-20.147-25.533-28.292-35.77-1.017-1.2782-1.3994-2.2254-3.4898-1.6202l-9.4722 2.742 0.3739 1.371 8.2259-2.1188c1.6334-0.42074 2.5548-0.33607 3.4898 0.87244 8.4296 10.896 16.316 23.215 25.924 33.963 2.4622 2.7053 4.5616 2.8171 7.3535 2.555l66.119-2.1811z" fill="#ff8080"/><path d="m43.832 229.88 1.8507-1.4101c-7.4323-8.8152-15.389-17.093-22.297-26.527-4.3345-5.9195-5.2202-19.54 3.6133-26.615 6.4248-5.1462 13.807-8.2784 20.711-12.074l-1.1457-1.4982c-7.193 3.9771-14.977 7.1539-20.887 12.162-8.1498 6.9064-10.151 21.541-4.4946 29.083 7.2337 9.6444 15.242 17.92 22.649 26.88z" fill="#f55"/><path d="m24.782 201.48 14.395 31.283 0.74781-1.5579-13.897-30.847z" fill="#ff8080"/><path d="m52.953 207.67c-11.299 2.8585-28.8 1.483-29.952-1.4252-1.4216-3.5891 5.1301-7.6771 11.313-10.825 1.0594-0.53935 2.1473-1.084 3.2589-1.6336 0.0086 0.0702-1.1376-1.2162-1.1376-1.2162l-10.317 5.4056c-5.6156 2.9422-6.8495 7.905-4.6709 10.135 5.7437 5.879 32.123 2.2583 32.784 1.4982z" fill="#f55"/><path d="m112.71 192.88-2.4927 2.0565c7.9407 14.723 20.204 27.292 36.578 36.522l-0.43438-2.8087c-12.762-7.7262-24.528-18.459-33.651-35.77z" fill="#f55"/><path d="m62.868 184.41 19.124-10.487-24.941-5.5963z" fill="#ff7f2a"/><path d="m101.47 183.35-53.407 22.738 1.0576 1.6745 53.848-23.443z" fill="#ff8080"/><path d="m56.501 168.08 3.2877 8.8749c-1.3635 4.056 1.6363 7.4804 2.6948 7.2653 1.5555-0.31599 0.83158-5.3121-1.213-7.4598l-3.9594-9.0543z" fill="#f95"/><path d="m100.75 143.22 32.405-11.903-3.3028 13.834z" fill="#ff7f2a"/><path d="m176.65 232.21c15.219 6.3614 12.202-21.374-2.5239-8.3817 3.125-1.9924 5.1556 6.6054 2.5239 8.3817z" fill="#f95"/></g><g fill="#ff7f2a" stroke="#000" stroke-linecap="round" stroke-linejoin="round" stroke-width=".75"><path d="m165.96 234.23 14.863 0.56085c-2.3857-0.98413-4.6322-1.9355-8.3817-3.2405-3.927 0.82779-4.5694 1.7772-6.481 2.6796z"/><path d="m193.54 146.18c-0.60677 3.0227-0.1165 5.6341 0.59202 8.1636 4.1019-4.8198 8.7325-9.199 11.934-14.769-1.481-0.10949-7.583 2.3686-12.526 6.6056z"/><path d="m219.3 87.727-4.8472-2.9964c0.77928-3.4827-3.9977-12.82-0.96943-17.714 2.287 6.7936 5.5738 13.271 5.8166 20.711z"/></g><g stroke="#000" stroke-linecap="round" stroke-linejoin="round" stroke-width=".75"><path d="m168.92 229.78 0.97218 0.88573c1.511-0.96258 8.3332-4.5798 13.915-12.498 7.8624-11.153 12.564-36.916 20.01-68.528 6.24-26.492 10.508-29.463 13.834-44.869 1.0991-5.0897 1.6232-15.651-0.77392-21.866-1.8437-4.7799-2.5841-9.0851-2.7007-12.731-0.058-1.8112-1.0911-4.4154-2.1339-3.7907-1.1022 0.66035-0.96218 3.6759 0.18695 6.1071l3.8895 11.001-1.7084 1.2753c-0.42637-2.5517-0.17688-5.2454-1.9256-8.2379-0.8083-2.1686-2.0865-3.1241-2.8105-5.098-0.93656-4.7771 0.18489-7.2022 2.5336-8.2246 3.6393-1.8302 9.7773 9.3883 14.666 14.082-0.24403 48.352-22.554 93.8-34.212 140.65-7.604 4.5209-13.172 12.808-23.743 11.84z" fill="url(#linearGradient20100)"/><path d="m215.51 63.05-3.2168 0.08813c4.7737 1.1562 3.863 10.61 5.42 16.128 1.24 5.1997 2.533 10.338 2.6439 15.599 0.34293 16.275-6.5481 23.396-12.571 45.6-6.711 24.742-12.497 58.805-17.746 70.996-5.0057 11.626-11.712 16.903-20.103 19.369l0.0979 0.98898c5.0997-0.52907 11.829-2.073 16.128-4.4946 9.244-5.2072 14.61-15.397 15.775-18.772 8.0066-23.178 13.122-46.46 19.917-69.623 4.0365-13.759 6.9623-21.092 9.518-33.489l-2.1151-32.961z" fill="url(#linearGradient20092)"/><path d="m210.11 153.25c3.0267 0.22281 6.0022 0.57376 9.3476 0l1.7449-7.4158z" fill="#f95"/><path d="m93.191 127.99c-0.90736 7.5215-1.2824 10.214-4.3604 13.733-3.8448 0.9058-6.8671 0.16667-10.269 0.18695l3.926-9.6592 53.344-74.469 20.44-19.942 2.1188 1.2463c-4.279 4.653-6.9909 7.284-12.397 13.078-5.878 6.2997-10.207 12.03-14.251 19.805-5.9564 11.453-14.462 23.218-22.084 33.049-5.4802 7.0682-11.824 14.648-16.467 22.972z" fill="#f95"/></g><g fill="#ff7f2a" stroke="#000" stroke-linecap="round" stroke-linejoin="round" stroke-width=".75"><path d="m146.8 88.59c3.0347 0.18602 3.1101-4.5368 0.50886-4.3321 5.7802-1.7886 6.8535 7.704-0.50886 4.3321z"/><path d="m151.92 69.231c3.0225-0.32934 2.2989-4.9971-0.23033-4.3558 5.3949-2.7394 8.0565 6.4354 0.23033 4.3558z"/><path d="m85.121 137.17c-2.6451 2.3035 2.2272 3.9393 3.1727 1.8067 1.1396-2.5705 1.729-5.1409 2.5558-7.7114-1.8499 1.9484-3.2509 3.7471-5.7285 5.9047z"/><path d="m154.59 227.69 0.62317 7.665c17.204-1.2884 12.14-5.5366 14.458-5.2658-7.1998-3.2088-11.687-3.4099-15.081-2.3992z"/></g><g stroke="#000" stroke-linecap="round" stroke-linejoin="round" stroke-width=".75"><path d="m100.68 144.46 34.15-12.339-1.6202-0.99708-33.215 12.027z" fill="#ffb380"/><path d="m156.33 228.47c3.7468 0.87566 9.0384 2.1499 12.129 2.6976-3.4144 0.58908-8.8521-0.0391-12.908-1.2955-8.8109-4.6845-25.241-12.373-31.252-39.416-5.9283-26.671 7.894-63.301 10.744-75.847 5.5716-24.529 10.703-47.858 19.653-71.121l3.2608 1.2338-22.561 82.402-6.6979 66.891c9.9172 11.714 7.5699 24.264 27.633 34.455z" fill="#ffb380"/><path d="m165.52 32.353c-0.0689 4.28e-4 -0.13742 3e-3 -0.20508 0.0059-4.7626 0.20236-6.5195 6.413-9.1152 10.949-8.0159 19.47-12.264 40.586-17.217 60.652-5.9299 24.025-13.259 46.252-14.951 66.168-2.8504 33.54 20.711 56.037 35.152 59.322l7.2715 1.3477 1.9941-3.3848c-16.256-0.0122-36.058-21.882-35.164-55.699 0.46608-17.637 9.1583-41.517 15.531-64.939 6.1798-22.712 10.859-44.954 17.676-60.15l3.1152-1.1836 4.4258-8.9121c-3.6495-3.0156-6.3785-4.1891-8.5137-4.1758zm-5.6191 15.186a1.7626 1.8067 0 0 1 1.7617 1.8066 1.7626 1.8067 0 0 1-1.7617 1.8066 1.7626 1.8067 0 0 1-1.7637-1.8066 1.7626 1.8067 0 0 1 1.7637-1.8066zm-5.9492 18.244a1.9829 1.8507 0 0 1 1.9824 1.8496 1.9829 1.8507 0 0 1-1.9824 1.8516 1.9829 1.8507 0 0 1-1.9824-1.8516 1.9829 1.8507 0 0 1 1.9824-1.8496zm-4.9785 18.859a1.9389 2.1592 0 0 1 1.9375 2.1582 1.9389 2.1592 0 0 1-1.9375 2.1602 1.9389 2.1592 0 0 1-1.9395-2.1602 1.9389 2.1592 0 0 1 1.9395-2.1582zm-4.4219 18.877a1.7185 2.2914 10.822 0 1 0.22461 0.0234 1.7185 2.2914 10.822 0 1 1.2578 2.5723 1.7185 2.2914 10.822 0 1-2.1191 1.9297 1.7185 2.2914 10.822 0 1-1.2578-2.5742 1.7185 2.2914 10.822 0 1 1.8945-1.9512zm-5.3047 19.654a1.7626 2.0711 13.46 0 1 0.24805 0.0391 1.7626 2.0711 13.46 0 1 1.2324 2.4238 1.7626 2.0711 13.46 0 1-2.1953 1.6035 1.7626 2.0711 13.46 0 1-1.2324-2.4238 1.7626 2.0711 13.46 0 1 1.9473-1.6426z" fill="#f95"/><path d="m168.42 46.999-11.155-0.06232c-3.3348-0.49749-2.7319-2.7461-3.3651-4.6738l5.7332-7.9143c2.6587 5.2077 5.1712 10.951 8.7868 12.65z" fill="#f95"/><path d="m229.06 22.508-14.894-1.371c-10.311-2.3875-19.925-2.5463-29.414-2.3057 12.12-5.6264 39.02-3.7954 44.308 3.6767z" fill="#ff7f2a"/><path d="m192.6 36.841-11.778-0.31159-4.2999-2.3057c6.2293-8.0537 11.269-0.85266 16.078 2.6173z" fill="#ff7f2a"/></g><g fill="#f95" stroke="#000" stroke-linecap="round" stroke-linejoin="round" stroke-width=".75"><path d="m190.61 27.867c3.3501-3.4487 9.3506-2.6163 13.648-2.4927-7.9309 5.0627-7.5006 4.7323-8.5998 5.11-1.6861-0.85711-3.3235-1.8615-5.0477-2.6173z"/><path d="m200.7 27.68 9.8462 8.7868 13.585 1.4956c-8.6474-4.1291-18.658-15.531-23.431-10.282z"/><path d="m242.39 117.98-6.1071 9.8462-7.852-7.2288c-4.113-17.947-7.0234-37.097-12.339-53.842-1.5906-5.0109-5.6062-7.5287-7.6027-9.8462-10.34-12.001-15.981-23.716-28.791-26.423l0.49854-3.1159c19.663-1.3256 28.432 22.98 42.625 34.524z"/></g><g stroke="#000"><path d="m221.5 75.08c2.2181 5.4907 4.7882 5.9369 7.7114 1.322-1.3954-5.6447-4.7607-2.5653-7.7114-1.322z" fill="#ff7f2a" stroke-width=".75"/><path d="m222.16 75.036c5.7393-2.08 5.7796 2.1281 6.4335 3.5252 0.19882-2.4108 1.1738-4.7928-1.6304-7.3148-2.7064 0.37178-5.6297 0.56859-4.8031 3.7896z" fill="#f95" stroke-linecap="square" stroke-width=".75"/><g stroke-linecap="round" stroke-linejoin="round"><g stroke-width=".75"><path d="m191.1 27.094-10.713 0.14258c12.304 1.2864 26.399 22.978 35.553 34.246 3.8888 4.7871 9.3542 38.994 13.408 57.619l7.4043 7.0508 5.4629-8.2852c-5.1115-18.977-11.912-49.099-15.334-56.932-1.3545-3.1006-4.3093-3.64-5.8164-5.4648-8.7276-10.568-15.392-22.993-29.965-28.377zm-10.713 0.14258c-0.84455-0.0883-1.6804-0.08074-2.5059 0.0332zm45.26 45.508a2.732 2.4236 0 0 1 2.7324 2.4238 2.732 2.4236 0 0 1-2.7324 2.4238 2.732 2.4236 0 0 1-2.7324-2.4238 2.732 2.4236 0 0 1 2.7324-2.4238z" fill="url(#linearGradient20880)"/><path d="m192.42 21.075-8.7244 0.06232c-3.4173 1.2293-6.8639 2.4119-8.6621 6.2317l5.9825 2.6796c2.7745-3.5047 5.4007-7.0835 11.404-8.9737z" fill="#fca"/><path d="m216.91 34.037c3.179-2.5745 5.0796-5.876 1.4956-11.093 5.108 0.40325 10.788-0.03293 11.092 7.4158-3.4466 11.593-8.2231 4.7885-12.588 3.6767z" fill="#ff7f2a"/><path d="m178.27 34.411c-6.8923 4.8439-4.2888 12.896-9.8462 12.401-5.1135-0.45525-7.2227-7.199-6.1071-9.4099l2.1188 0.18695c-0.8564 1.9912-0.1506 6.9686 3.926 7.4781 3.6712 0.45882 1.6069-4.5928 7.852-11.093z" fill="#ffb380"/><path d="m196.21 29.21c2.5964-1.0984 3.4158-3.5979 8.4507-3.5733 8.1618 0.0398 14.83 11.135 19.398 11.063 2.8651-0.04573 4.3662-3.9864 4.3744-7.0441 0.01-3.5784-1.9709-5.0503-4.9655-5.3501-9.0672-0.90791-9.2206 1.2681-18.854 1.0201-5.4363-0.13993-7.9738-2.7477-12.017-2.4623-5.7842 0.4083-7.8424 7.4874-12.955 11.104-4.9444 3.4979-8.5358 2.6187-12.644 2.8504l-0.13533-2.4979c3.9365-0.77222 7.7577 0.0747 11.809-2.9083 4.5725-3.3664 8.3585-9.6065 12.338-10.223 5.0814-0.78729 7.606 2.8251 13.904 2.4516 11.014-0.65321 8.8189-1.7194 18.195-1.2543 3.5225 0.17476 6.5002 1.863 6.7086 7.581 0.11886 3.2619-2.2151 8.3579-5.5824 8.2308-7.4904-0.2827-11.271-10.543-19.673-11.25-4.0684-0.34206-3.695 2.7442-5.1792 4.1991z" fill="#ffb380"/><path d="m180.64 26.123c0.5405 0.05641-0.0127 2.0267-0.0623 3.1159-3.6495 4.0376-9.0427 6.1614-17.013 6.0448l-0.0623-2.3057z" fill="#f95"/><path d="m172.41 25.25c3.9687-0.07038 9.1962-0.06092 8.2882 1.2463-4.5169 6.5031-11.234 6.4396-17.698 6.7303z" fill="#ffb380"/><path d="m155.15 33.538 6.1694 0.68549c2.7152-6.068 14.007-13.959 25.924-17.574-8.7945 2.3152-20.339 3.7155-32.093 16.888z" fill="#ffb380"/><path d="m161.26 34.099 1.8695 0.87244c4.7031-6.629 10.455-12.622 25.052-16.514 19.746-5.2657 36.69 1.0306 41.067 3.8637l-0.0623-2.555c-17.786-5.9355-24.483-6.2382-42.064-3.1159-11.978 2.1271-20.113 9.2396-25.862 17.449z" fill="#f95"/></g><ellipse transform="rotate(-27.799)" cx="139.71" cy="106.33" rx="3.9111" ry="1.8798" fill="#ffe680" stroke-width=".79628"/><g stroke-width=".75"><path d="m167.74 40.611c0.80631-1.1775 2.4438-2.2405 0.96591-3.3651l-6.3875-4.8608c-0.95001-0.72294-1.7202-1.2265-3.739-0.99708l-5.4839 0.62318c-2.7897 1.0812-1.1535 1.7274-1.4128 3.4878 2.3992-0.67597 5.6604-1.1753 7.3299-0.94832 2.6134 0.7404 7.2799 4.3193 8.7276 6.0603z" fill="#fd5"/><path d="m152.66 36.031-2.6485-2.15c-0.0925-0.53562-0.19938-1.451 1.0906-1.3087l2.8354 2.5862z" fill="#ffe680"/><path d="m157.43 37.757c-6.9329 7.1679-17.526 17.415-21.416 23.09-6.0846 8.878-13.663 24.435-25.91 40.099-7.3148 10.017-20.226 28.039-22.561 30.052-9.4862 8.177-5.6208 9.7983-2.2914 11.281l-9.4299-0.17626c-3.5925-2.283-2.431-7.2451 3.7015-11.898 1.4092-1.0691 7.9242-12.987 11.016-17.009 8.1547-10.608 18.323-24.707 29.524-38.689 9.8174-12.256 20.507-23.777 30.934-35.516z" fill="url(#linearGradient20890)"/><path d="m211.36 51.486c-1.9119 0.51594-1.4547 3.9442 0 4.7361 2.5323-1.268 5.0124-4.1963 0-4.7361z" fill="#fd5"/><path d="m213.29 67.034-0.99708 0.03116c-0.91537 0.02861-1.4716-0.558-1.371-2.3681l0.43622-7.852c0.0662-1.192 0.72691-1.527 1.3087-1.5579 4.0018-0.21269 7.9422-0.11837 11.778 0.49854 1.0508 0.169 1.0342 0.27332 1.1217 1.6203l0.0912 1.4035c0.70098 0.97174 1.2037 1.4943 1.7527 3.6403l0.088-5.5424c0.0372-2.3446-1.2994-3.172-3.1782-3.3028-4.0778-0.28386-7.1451-0.91358-11.386-1.0273-1.6304-0.04373-3.9533 0.97873-4.0689 2.8968l-0.62318 10.345c-0.12387 2.0562 1.1685 3.6508 2.4304 3.8637l2.5862 0.43622c0.84052-0.86206 0.79164-2.0357 0.0312-3.0847z" fill="#ffe680"/><path d="m211.86 70.866c-0.40411 2.0074 0.25005 3.366 1.9942 3.3028 1.1543-1.1425 2.4024-2.285 4.0506-3.4275 4.9022-0.33233 8.4725-0.07269 11.903 0.24927l0.61065 1.5353 0.5048 1.8702c0.87174-1.2423 0.52588-2.4955 0.56713-3.904-0.10387-0.74781-0.0831-1.5579-0.18696-2.3057-0.10694-0.76998-0.49941-1.4053-1.7449-1.4333l-11.093-0.24927c-1.4085-0.03165-2.0525 0.2927-2.6173 0.74781-1.4034 1.1309-2.7507 2.3178-3.9883 3.6144z" fill="#ffe680"/><path d="m211.3 51.486c2.3116-0.24838 2.576 4.0411 0.74781 4.3622l12.277 0.62318c1.9109-0.57369 1.6691-4.3256-0.43622-4.5492z" fill="#fea"/><ellipse cx="218.73" cy="58.093" rx="2.4236" ry="1.1457" fill="#ff7f2a"/></g></g></g><path d="m216.18 52.782c1.4937-0.03044 3.9226-0.21696 5.1497-0.30027 0.73387-0.04982 1.25-0.0769 1.5554-0.06507 9e-3 3.52e-4 0.0187 0.0011 0.0288 0.0021 0.31258 0.03288 1.0641 0.40302 1.328 0.42034-0.26392-0.01732-1.0461 0.26827-1.3554 0.27667-0.01 2.71e-4 -0.0195 2.45e-4 -0.0284-1.01e-4 -0.29571-0.01145-0.80705-0.07252-1.5332-0.13661-1.363-0.12029-3.5033-0.23054-5.1448-0.19709z" fill="#fff"/><g stroke="#000" stroke-width=".75"><g stroke-linecap="round" stroke-linejoin="round"><path d="m217.53 58.934 0.56529-7.5102c1.1851-0.81231 1.7053-0.29474 2.2434 0.18695l-0.10195 7.0317c-0.44228 0.9278-2.4653 0.58933-2.7068 0.2915z" fill="#ffe680"/><path d="m192.68 158.67c0.10242 2.5286 6.5715 15.387 7.6232 10.928l1.6157-1.9378-6.0662-8.4616z" fill="#fd5"/><path d="m192.29 147.02-0.65614 4.292c-0.59799 2.4206 0.77053 2.646-0.68848 3.0408l-0.5249 2.2329c-0.10945 2.3539 2.8628 4.1333 5.6397 2.6796l3.147-9.5969c-3.7946 1.1643-5.773-0.16866-6.9172-2.6485z" fill="#f95"/><path d="m191.53 151.37c-0.75333 0.36059-1.0946 2.3652-0.28487 3.349 1.0101 0.75861 2.7553 1.831 5.493 1.9228l1.0135-2.9964c-2.5152 1.2928-6.1187-1.1818-6.2216-2.2754z" fill="#fd5"/><path d="m234.48 128.95-6.668 0.24804c-9.4198 6.479-20.569 12.613-26.982 19.693-2.7984 5.1516-4.934 11.704-10.781 19.629-5.1214 6.9411-14.755 11.219-32.717 12.713l1.6191 14.457 15.455-4.0508c6.9036-1.8094 19.08-9.3545 22.373-20.688 1.5273-5.2556 4.6256-9.9954 10.469-14.084 8.7452-6.1192 16.082-10.64 23.119-16.453zm-56.48 52.68a2.027 2.5558 72.941 0 1 1.9688 1.3242 2.027 2.5558 72.941 0 1-1.8477 2.6875 2.027 2.5558 72.941 0 1-3.0391-1.1875 2.027 2.5558 72.941 0 1 1.8496-2.6875 2.027 2.5558 72.941 0 1 1.0684-0.13672z" fill="url(#linearGradient20108)"/><path d="m159.79 181.95c1.3773 1.804 5.9177 8.8798 0.84129 13.741-4.8422 1.5951-9.99 2.579-15.33 3.1782-1.6201 0.18178-2.4185-0.29898-3.4275-0.49853-0.79242-4.6176-1.6588-9.3831-2.6173-14.333 5.3262 1.2816 14.435-0.8988 20.534-2.0876z" fill="url(#linearGradient20116)"/><path d="m234.48 128.79-1.2464-0.62318-5.5151 0.62318c-7.987 5.3385-22.936 14.944-23.961 16.016-6.5536 6.8493-6.8446 12.711-10.721 19.065-4.6612 7.6398-13.121 11.35-22.121 13.925-6.286 1.7985-13.03 2.469-19.389 3.5252-3.3451 0.55564-5.5603 0.34627-7.7995 0.70505-2.2439 0.35953-4.3366 0.90254-4.4732 2.0127-0.0979 0.7958 0.8717 1.4018 3.9359 1.2524 6.179-0.60748 12.255-1.385 17.375-2.2369-0.32213-0.32027-0.33643-1.1573-1.6137-1.1212-4.6643 0.5297-10.225 1.4333-15.271 1.963-1.7181 0.23301-1.8953-0.41456 0.44357-1.0328 2.2564 0.031 4.2166 0.13142 7.5792-0.30846 6.4965-0.84982 13.038-1.7425 19.565-3.3489 7.1198-1.7525 18.828-6.4482 23.134-14.497 2.5165-4.7039 5.0642-13.035 10.708-18.684 1.7701-1.7716 15.628-11.016 23.443-16.524z" fill="#fca"/><path d="m211.41 133.95c-1.064-0.16952-2.1589-0.39006-3.4371 0.30845-1.9316 1.0556-0.31026 2.3144-1.8507 3.1286-4.1139 2.1744-8.5161 3.8672-11.942 6.786-2.1524 1.834-2.7143 4.2574-1.1898 5.7725 1.3784 1.3698 3.8167 1.0317 5.1267 0.49007 3.1531-1.3038 4.3962-5.8341 8.785-9.0151l3.7099-0.0881 2.732-1.2279-7.3544-0.20357c-4.7796 3.3298-5.5182 7.9226-8.6368 8.8989-1.994 0.62427-2.573 0.32782-2.9524-0.35252-0.62455-1.12 0.13763-2.5076 1.4101-3.4811 3.1876-2.4389 7.7216-4.3889 11.809-6.8301 0.89336-0.53349-0.37713-1.9447 0.8813-2.9083 1.0486-0.80297 2.0551-0.20368 2.9964-0.17626z" fill="#fca"/><path d="m197.84 148.02 0.30846-3.0565c0.26375-0.68126 0.45656-1.3714 1.6304-1.9389 2.2335 0.39483 6.5307 1.0333 7.1826 1.5864 2.5875 2.9135 3.0037 6.1497 2.732 9.1655-0.68545 7.6089-3.7932 7.4674-6.4776 6.6979l0.26439-2.3795 2.2032 0.39659c1.7692-3.395 2.7472-9.7225-0.52878-11.545l-5.0772-1.0705c-0.21373 0.89803-1.5718 2.2722-2.2376 2.1441z" fill="#ffe680"/><path d="m203.57 152.94c-1.2061 0.092-2.0105 2.0546-1.2338 2.8642l8.9452 2.1151c0.92844 0.46298 2.1396-1.7835 0.83724-2.4236z" fill="#fea"/><path d="m199.95 159.16c0.0192 5.2432 4.1889 4.9154 5.5963 0.61691 0.1142-2.3628-5.9272-2.1644-5.5963-0.61691z" fill="#fd5"/><path d="m194.38 148.16c0.39711-1.0501 0.63434-1.9666 2.5337-1.1677 2.3348 2.5139 4.2234 5.1281 5.8166 7.7114 0.90075 1.4606 1.2972 2.8749 1.1457 4.4065l-0.39659 4.0099-2.4676-0.26439 0.44065-3.7455c0.13595-1.1556-0.43499-2.2263-1.1898-3.4371-1.2819-2.0564-2.8574-4.2302-4.4946-6.3454-0.55566-0.23429-1.1698-0.37106-1.388-1.1677z" fill="#ffe680"/><path d="m200.09 159.24c0.38244 2.4702 4.5008 3.0349 5.2878 0.52878l-1.2338 8.813c-2.0182 3.0518-5.2713 1.1244-5.3759-0.57285z" fill="#ffe680"/><path d="m158.17 225.38h-9.8462c-4.6998 2.5828-5.0555 7.5188 0.56085 10.532l10.246 0.37546c-6.1686-4.0407-5.8333-7.5306-0.96057-10.907z" fill="#f95"/><path d="m148.62 198.41c1.9726 4.731 4.0145 9.8012 4.1677 16.088 0.10426 4.2769-1.715 10.925-7.5688 10.913-7.6836-0.0161-14.739-6.0716-21.105-12.713-5.1435-5.3663-13.648-17.636-13.648-17.636l-2.0565 1.371s10.775 15.152 17.636 21.313c4.2051 3.7763 9.9242 7.9942 14.146 9.3476 6.6013 2.1162 10.892-0.43174 12.944-4.1218 2.3977-4.312 2.0316-9.1411 1.172-13.157-1.1438-5.3444-1.4906-6.3436-3.2864-11.807z" fill="#ff8080"/><path d="m183.29 218.03c-3.1561-0.63804-7.0058-0.0275-10.532 0-5.2093 2.8327-6.3378 6.2699-9.4722 9.4099l6.1383 2.4304c5.0742-3.0399 6.9851-9.5955 13.866-11.84z" fill="#fca"/><path d="m183.72 218.06c-0.87708 0.92361-1.1182 1.6427-2.1188 2.6485-1.8642-0.14857-4.0688 0.78761-5.3905 3.0224-1.3672 2.3118-2.8906 5.812-5.9202 6.8549-4.2886 1.4763-7.0376-3.4418-11.498-3.2717-2.5931 0.0989-3.1757 1.8931-3.334 3.4586-0.13751 1.3598 2.0184 3.7176 4.5492 3.5832 4.7332-0.25137 5.872-3.0488 10.407-3.4586 6.563-0.59315 7.3267 3.1084 11.778 1.7449 2.5431-0.77898 3.082-2.6291 3.6456-4.4869l3.334-2.6173c-0.3972 2.1876-1.5494 7.5214-6.7303 9.0984-3.4806 1.0594-7.0065-2.5786-11.965-1.5891-6.4608 1.2894-4.3844 2.9221-10.563 3.2405-3.534 0.1821-6.7266-2.0659-6.7303-5.4839-3e-3 -2.7826 1.4496-5.4366 5.4528-5.4216 6.0631 0.0228 7.6835 4.6926 11.186 3.0536 5.029-2.3534 3.6805-6.7779 8.3505-10.095 1.009-0.71674 3.7367-0.83354 5.5462-0.28044z" fill="#ffb380"/><path d="m140.69 138.67s-8.7225-1.2179-13.087-0.93476c-6.9598 0.4516-20.502 4.1753-20.502 4.1753l4.0506 11.716s9.1927-1.6827 13.834-2.1811c2.3727-0.25477 13.772 1.6826 13.772 1.6826 1.5694 0.10122 3.9052-14.312 1.9318-14.458z" fill="url(#linearGradient20882)"/><path d="m45.242 163.96 1.4101 2.1151c5.039 2.6819 9.2669 4.405 13.572 5.4641 8.835 2.1734 19.592 5.0492 31.551 8.7249l7.8436-4.4065z" fill="#ff7f2a"/><path d="m48.767 161.05-3.8777 2.732c5.3631 1.691 10.989 5.2892 17.009 6.6098 12.167 2.669 20.559 5.4578 29.788 8.6368l7.5792-4.4946c-11.601-10.934-29.774-13.779-50.499-13.484z" fill="url(#linearGradient20074)"/><path d="m46.564 159.99 0.74689 2.0937s10.168 2.7751 16.791 4.4279c6.7127 1.6753 15.374 2.5992 23.619 5.0234 2.4347 0.71586 6.4471 2.425 8.5486 5.1116 3.9286 5.0224 10.928 18.772 10.928 18.772l-7.4911-22.914c-17.714-9.6583-35.428-11.936-53.142-12.514z" fill="#f95"/><path d="m137.95 178.24c-4.2135-7.327-8.6132-14.73-13.043-19.565-6.3017-6.8782-7.8189-10.828-12.426-14.718-2.645-2.2329-7.4406-8.2254-16.028-6.211-2.3319 0.547-3.5245-0.3442-4.8144-0.66338-0.82506 1.6837-1.5466 3.4192-3.0088 4.7844-2.6111 0.42899-6.466 0.57714-11.653 0.42451-8.5596 4.8628-17.417 10.286-24.513 15.149l-4.054 0.44065c-1.9 0.20653-2.2471 2.2719-1.4101 2.6439 0.5136 0.22826 13.936 3.783 18.684 4.5828 7.9558 1.3402 15.929 2.846 23.619 5.2878 3.2184 1.022 7.2082 4.294 8.2842 5.6403 3.546 4.4368 6.5804 12.867 9.8706 19.3z" fill="url(#linearGradient19977)"/><path d="m98.565 161.67 1.4875 1.7475c4.146-2.5972 6.7712-2.4396 9.3658-3.8055l-1.046-1.2158z" fill="#f55"/><path d="m108.35 196.93 15.143-8.4752-6.2941-10.906c-4.3761-7.5824-17.866 1.3475-14.458 8.1636z" fill="#ffb380"/><path d="m125.66 189.75 14.146-7.3535-7.6027-14.146c-4.1445-7.7114-15.673-0.28093-12.837 6.7926z" fill="#ffb380"/><path d="m139.01 180.64c2.4724-0.3649 3.1635 1.3946 3.6404 3.1063 1.2963 0.30451 1.95-7e-3 2.688-0.26439-1.364-5.2703-4.6661-5.6449-7.6931-5.286z" fill="#ffe680"/><path d="m38.056 191.7 23.681-12.214c0.42809 0.75745 0.50464 1.6321 0.43622 2.555l-22.87 11.404z" fill="#f55"/><path d="m159.99 232.83-1.0135 1.4541c-2.0869-0.70649-7.8396-5.2881-9.9587-5.3759-2.314-0.096-36.677 2.1151-55.302 3.0846-1.9222 0.10005-2.7135-1.4327-3.4371-2.8202l-18.155-34.811c-0.6296-1.2072-2.2598-2.7219-4.6709-2.8202l-48.326-1.97c-0.37654-0.80086-1.2667-1.5688 0.38276-2.6127l47.59 2.5558c3.6194 0.19437 5.8343 1.1433 6.9623 3.349l17.802 34.811c0.76353 1.493 2.4496 2.9136 5.0234 2.732l49.97-3.5252c3.0753-0.21695 4.4711 0.60137 5.4641 1.2338z" fill="#faa"/><path d="m83.236 215.82c-1.0844 1.3413-0.54792 2.1038 0.68549 2.6173 22.725-5.4839 46.243-12.364 68.175-16.452 1.2793-0.23845 2.5148-0.10309 3.3651 1.0594 2.5136 3.4364 11.085 23.958 1.9111 28.259l1.7814 1.0512c2.6674-0.93681 3.3803-3.0914 3.7856-5.8786 1.187-8.1624-0.8252-16.933-4.9231-23.431-1.3829-2.1931-3.7563-3.9572-6.1694-3.4275-23.486 5.1558-45.925 10.836-68.611 16.203z" fill="#faa"/></g><path d="m90.056 140.12c1.2188 0.71802 2.7797 1.3108 5.1556 0.66098 2.8561-0.78122 5.5904-0.45249 7.7555 1.8507 4.5315 4.8206 9.315 9.8006 13.484 14.013 0.93133 0.94098 1.9292 2.1655-0.44065 3.5252l-16.128 9.2537c-1.2094 0.6939-2.9263 0.55413-4.759 0-7.5772-2.2909-14.094-6.1167-22.649-7.1386-9.245-1.1043-19.051-2.7485-19.477-3.9658-0.31215-0.89343-0.26916-1.0633-0.35252-1.5864" fill="none" stroke-dasharray="1.5, 1.5" stroke-linecap="square"/><g stroke-linecap="round" stroke-linejoin="round"><path d="m93.361 144.39c-3.3609 1.3228-6.1173-0.0292-9.8265 1.8507l-1.4101-1.6304c2.853-1.0403 6.8487-0.48027 9.5181-1.6304z" fill="#f55"/><path d="m124.56 186.61c-2.5602-8.4174-15.758-38.969-39.343-49.395-0.55578 0.73582-0.63795 1.5081-0.11394 2.327 15.653 5.5497 32.6 31.086 37.694 48.83z" fill="#ff8080"/><path d="m23.386 188.2 2.2914 0.17626c1.1075 6.8294 2.9842 13.688 5.9047 20.358l-1.8507-0.0881c-2.9205-6.8154-4.9186-13.631-6.3454-20.446z" fill="#ff8080"/></g></g><g fill="#faa" stroke="#000" stroke-linecap="round" stroke-linejoin="round" stroke-width=".75"><path d="m49.683 239.19 0.36856 2.1188-2.5559-1.8179c-7.547-13.886-13.27-27.591-18.029-37.631-8.0451-16.974 4.9427-35.254 17.89-41.862 14.292-7.2942 29.777-14.35 45.211-21.416 2.2669-0.43636 3.47 0.37111 2.1188 4.1364-0.41688-0.34999-1.3946-0.76305-1.7869-1.1839-0.31126-0.33393 0.19491-1.0188-0.19964-0.83739-15.607 7.2989-29.361 12.928-44.55 21.063-11.83 6.3357-23.853 22.634-17.274 39.13 5.2703 13.213 12.494 25.504 18.806 38.3z"/><path d="m69.83 237.81 3.6133-0.96944c-5.9603-8.0731-12.334-20.693-18.507-31.11-5.6059-9.4594 3.1894-23.471 9.4299-26.351 16.162-7.4582 30.447-14.603 45.331-21.848 0.48794-0.23751 0.69609 1.9241 1.1854 1.6864 1.5206-1.8784 1.6871-5.0411-1.7528-4.0942-15.654 7.3588-30.57 14.104-46.438 22.317-6.699 3.4676-16.169 18.351-9.4299 30.757 5.5586 10.233 10.614 19.9 16.568 29.612z"/><path d="m74.271 136.6c-15.68 8.2449-29.24 16.183-46.311 25.065-7.7895 4.053-20.528 18.588-10.906 40.569 5.7684 13.177 13.514 23.182 20.52 35.052l3.7015 1.2338c-7.4617-12.485-16.929-24.733-22.385-37.455-7.1056-16.567-0.07628-32.066 9.6943-37.72 17.101-9.8959 30.192-15.867 45.255-23.795-0.07252-0.98329-0.18083-1.9666 0.43114-2.9499z"/></g><g fill="#ff8080" stroke="#000" stroke-linecap="round" stroke-linejoin="round" stroke-width=".75"><path d="m104.33 190.22c-16.833 6.4464-31.947 13.217-48.78 16.568l1.4982 2.2914c18.264-4.6645 32.07-10.617 48.339-16.833z"/><path d="m57.58 239.84-11.148-28.995 2.2473-0.13219 11.369 28.863z"/><path d="m45.639 208.91 2.3354-0.26439-6.8742-19.565c-0.85685-0.50604-1.6094-0.66447-2.1151 0z"/><path d="m44.309 239.09-2.1516-0.21903-11.193-27.408 2.027 0.0881z"/><path d="m19.298 189.71 4.5492 9.8462 1.1217-0.99707-3.8637-8.7244z"/></g><g fill="#ff7f2a" stroke="#000" stroke-linecap="round" stroke-linejoin="round"><ellipse cx="209.1" cy="46.372" rx="2.4274" ry="1.1055" stroke-width=".61016"/><ellipse cx="199.45" cy="35.51" rx="2.2881" ry="1.1644" stroke-width=".62436"/><ellipse transform="matrix(.36645 .93044 -.72627 .68741 0 0)" cx="149.97" cy="-93.919" rx="1.0974" ry="2.0255" stroke-width=".65519"/><ellipse transform="matrix(.19192 .98141 -.74317 .6691 0 0)" cx="156.52" cy="-140.86" rx=".92203" ry="2.0543" stroke-width=".64328"/><ellipse transform="matrix(.99678 .080235 -.66301 .74861 0 0)" cx="175.58" cy="45.392" rx=".9955" ry="2.0314" stroke-width=".7058"/><ellipse transform="matrix(.91147 -.41136 .54851 .83614 0 0)" cx="127.18" cy="92.707" rx="2.0065" ry=".44478" stroke-width=".57425"/></g><g stroke="#000" stroke-linecap="round" stroke-linejoin="round"><path d="m165.84 43.65 1.4647-0.7375c1.6459-0.82875 1.5432-3.0831 0.52878-3.5693l-7.447-3.5693c-1.9755-0.94685-3.35-1.4477-4.8472-0.83724l-4.715 1.5423 1.1898 2.1592 3.5693-0.57284c1.0896-0.17488 1.7009-0.12727 2.4676 0.22032l6.6098 2.9964-0.17832 0.3151c0.11104 0.92818 0.66902 1.5371 1.3575 2.0528z" fill="#ffe680" stroke-width=".75"/><path d="m155.76 34.1-9.2537 2.9083c-2.0917 0.8221-2.557 3.383 0.22032 4.5828l8.4164-2.7761c-3.8474-0.06193-3.0653-3.9505 0.61692-4.715z" fill="#fea" stroke-width=".75"/><ellipse transform="matrix(.26431 .96444 -.82698 .56223 0 0)" cx="161.75" cy="-50.948" rx="2.7269" ry="3.9205" fill="#ffe680" stroke-width=".63777"/><ellipse cx="119.88" cy="146.49" rx="3.2405" ry="4.0818" fill="#ffe680" stroke-width=".75"/><ellipse transform="rotate(1.0588)" cx="122.63" cy="144.37" rx="1.5579" ry="2.15" fill="#ffd42a" stroke-width=".75"/><ellipse transform="matrix(.88503 .46553 -.43827 .89885 0 0)" cx="250.02" cy="61.274" rx=".50633" ry="2.2562" fill="#ff7f2a" stroke-width=".6225"/></g><g fill="#ffe680" stroke="#000" stroke-linecap="round" stroke-linejoin="round" stroke-width=".75"><ellipse cx="110.53" cy="183.97" rx="4.4869" ry="4.7361"/><ellipse cx="127.61" cy="174.13" rx="4.7361" ry="4.9231"/><ellipse cx="154.31" cy="190.08" rx="5.1412" ry="4.7984"/></g><path d="m22.769 166.6-0.13697-0.14737c-1.7756 1.6503-4.6002 4.6691-6.5956 8.7873-2.0671 4.266-2.4087 7.956-2.3448 10.572-0.06367-2.6104 0.38205-6.3097 2.5249-10.483 2.0774-4.0454 4.9287-6.9458 6.6895-8.5823l-0.13697-0.14737z" fill="none"/><g fill="#fff"><g><path d="m16.512 178.28c-0.02164-0.4869 0.02766-1.1942 0.28844-2.1238 0.19463-0.69381 0.48879-1.4477 0.89074-2.2579 0.853-1.7194 1.9986-3.3096 2.9791-4.5378 0.32721-0.40989 0.61997-0.75972 0.84433-1.0274 0.63716-0.76013 1.5177-1.8242 2.7032-3.0044 0.60385-0.60118 1.1776-1.1212 1.7023-1.5492 0.68852-0.56155 1.1984-0.88746 1.5201-1.0544-0.3297 0.17113-0.84788 0.44399-1.5922 0.95848-0.56188 0.3884-1.1788 0.86418-1.8321 1.4272-1.2366 1.0657-2.2809 2.1682-2.8908 2.8959-0.22837 0.27245-0.51655 0.63279-0.83536 1.0603-0.94998 1.2739-2.0336 2.9581-2.7985 4.739-0.36191 0.84265-0.61487 1.6195-0.77354 2.3295-0.21292 0.95279-0.22736 1.6562-0.20566 2.1447z"/><path d="m30.86 180.91c-0.02164-0.4869 0.02766-1.1942 0.28844-2.1238 0.19463-0.69381 0.48879-1.4477 0.89074-2.2579 0.853-1.7194 1.9986-3.3096 2.9791-4.5378 0.32721-0.40989 0.61997-0.75972 0.84433-1.0274 0.63716-0.76013 1.5177-1.8242 2.7032-3.0044 0.60385-0.60118 1.1776-1.1212 1.7023-1.5492 0.68852-0.56155 1.1984-0.88746 1.5201-1.0544-0.3297 0.17113-0.84788 0.44399-1.5922 0.95848-0.56188 0.3884-1.1788 0.86418-1.8321 1.4272-1.2366 1.0657-2.2809 2.1682-2.8908 2.8959-0.22837 0.27245-0.51655 0.63279-0.83536 1.0603-0.94998 1.2739-2.0336 2.9581-2.7985 4.739-0.36191 0.84265-0.61487 1.6195-0.77354 2.3295-0.21292 0.95279-0.22736 1.6562-0.20566 2.1447z"/><path d="m53.222 193.12c-0.02164-0.4869 0.02766-1.1942 0.28844-2.1238 0.19463-0.69381 0.48879-1.4477 0.89074-2.2579 0.853-1.7194 1.9986-3.3096 2.9791-4.5378 0.32721-0.40989 0.61997-0.75972 0.84433-1.0274 0.63716-0.76013 1.5177-1.8242 2.7032-3.0044 0.60385-0.60118 1.1776-1.1212 1.7023-1.5492 0.68852-0.56155 1.1984-0.88746 1.5201-1.0544-0.3297 0.17113-0.84788 0.44399-1.5922 0.95848-0.56188 0.3884-1.1788 0.86418-1.8321 1.4272-1.2366 1.0657-2.2809 2.1682-2.8908 2.8959-0.22837 0.27245-0.51655 0.63279-0.83536 1.0603-0.94998 1.2739-2.0336 2.9581-2.7985 4.739-0.36191 0.84265-0.61487 1.6195-0.77354 2.3295-0.21292 0.95279-0.22736 1.6562-0.20566 2.1447z"/></g><path class="UnoptimicedTransforms" transform="translate(-.14507 -.050819)" d="m85.188 216.18c7.521-1.2791 19.46-4.7235 26.298-5.9202z"/><g><path class="UnoptimicedTransforms" transform="translate(-.14507 -.050819)" d="m85.188 216.18c1.0745-0.18275 4.1068-0.58846 6.3853-1.012 0.71497-0.13289 1.3392-0.25901 1.7586-0.35774 1.2485-0.29394 3.0309-0.75528 5.3241-1.364 2.2864-0.6069 4.7082-1.2602 6.9192-1.8265 2.8484-0.72959 4.7233-1.1522 5.9107-1.36-1.3817 0.2418-2.8869 0.49682-5.9619 1.14-2.231 0.46667-4.6915 1.0148-6.9941 1.5319-2.0152 0.45257-4.4073 0.99213-5.3543 1.2151-0.41984 0.0988-1.031 0.26188-1.7323 0.45243-2.5485 0.69248-4.9593 1.3603-6.2554 1.5808z"/><path d="m62.297 189.83c0.62122 0.0761 3.6817 0.5364 4.4865 0.66794 0.84022 0.13734 1.1042 0.19475 1.6001 0.2851 0.0733 0.0134 0.13889 0.0248 0.19624 0.0338 0.28452 0.0445 0.69638 0.10145 1.1059 0.19555 0.36363 0.0836 0.74112 0.19872 1.1263 0.3807 0.35921 0.16972 0.71348 0.3918 1.0763 0.68947 0.38436 0.31532 0.75315 0.69505 1.1123 1.1257 0.47344 0.56766 0.9035 1.1942 1.199 1.6695-0.29432-0.47336-0.68954-1.1261-1.1124-1.7354-0.32092-0.46242-0.65119-0.89135-1.0042-1.2674-0.33453-0.35637-0.674-0.6489-1.0375-0.89142-0.39174-0.26138-0.78724-0.44815-1.1773-0.5879-0.4422-0.15842-0.87016-0.2526-1.1756-0.3004-0.06075-0.01-0.13021-0.0183-0.20803-0.0264-0.40295-0.0417-0.92358-0.0538-1.6602-0.0584-1.5576-0.01-3.1683-0.0138-4.5275-0.18042z"/><path d="m107.07 185.77c-0.0142-0.47402 0.27838-1.1732 0.85638-1.8548 0.53555-0.63158 1.2142-1.1079 1.4874-1.3876 7e-3 -7e-3 0.0132-0.0136 0.0199-0.0208 0.28121-0.29861 0.74417-0.96828 1.2623-1.4679 0.22799-0.21987 0.45264-0.40153 0.66739-0.53516 0.28587-0.17788 0.52765-0.2522 0.68599-0.24181-0.15244-0.01-0.40672-0.0667-0.77087-0.0606-0.28032 5e-3 -0.60047 0.0439-0.95697 0.13459-0.843 0.21451-1.6443 0.66311-2.0328 1.0435-9e-3 8e-3 -0.0169 0.0168-0.025 0.025-0.35486 0.36333-0.82414 1.1988-1.0643 2.1509-0.26992 1.0702-0.14517 1.6922-0.12948 2.2148z"/><path d="m124.07 175.42c-0.0142-0.47402 0.27838-1.1732 0.85638-1.8548 0.53555-0.63158 1.2142-1.1079 1.4874-1.3876 7e-3 -7e-3 0.0132-0.0136 0.0199-0.0208 0.28121-0.29861 0.74417-0.96828 1.2623-1.4679 0.22799-0.21987 0.45264-0.40153 0.66739-0.53516 0.28587-0.17788 0.52765-0.2522 0.68599-0.24181-0.15244-0.01-0.40672-0.0667-0.77087-0.0606-0.28032 5e-3 -0.60047 0.0439-0.95697 0.13459-0.843 0.21451-1.6443 0.66311-2.0328 1.0435-9e-3 8e-3 -0.0169 0.0168-0.025 0.025-0.35486 0.36333-0.82414 1.1988-1.0643 2.1509-0.26992 1.0702-0.14517 1.6922-0.12948 2.2148z"/><path d="m150.51 191.86c-0.0142-0.47402 0.27838-1.1732 0.85638-1.8548 0.53555-0.63158 1.2142-1.1079 1.4874-1.3876 7e-3 -7e-3 0.0132-0.0136 0.0199-0.0208 0.28121-0.29861 0.74417-0.96828 1.2623-1.4679 0.22799-0.21987 0.45264-0.40153 0.66739-0.53516 0.28587-0.17788 0.52765-0.2522 0.68599-0.24181-0.15244-0.01-0.40672-0.0668-0.77087-0.0606-0.28032 5e-3 -0.60047 0.0439-0.95697 0.13459-0.843 0.21451-1.6443 0.66311-2.0328 1.0435-9e-3 8e-3 -0.0169 0.0168-0.025 0.025-0.35486 0.36333-0.82414 1.1988-1.0643 2.1509-0.26992 1.0702-0.14517 1.6922-0.12948 2.2148z"/><path d="m82.344 129.66c-0.01435-0.4779 0.18383-1.1599 0.63308-1.8321 0.38651-0.57833 0.79561-0.93411 1.0184-1.186 0.04718-0.0534 0.10144-0.11868 0.16202-0.19179 0.31079-0.37511 0.66596-0.79168 1.1358-1.1679 0.20156-0.16139 0.39182-0.28752 0.56334-0.37691 0.22908-0.11939 0.40592-0.16301 0.51937-0.15849-0.11466-5e-3 -0.28896-0.0255-0.56509 0.01-0.20501 0.026-0.44306 0.0804-0.70979 0.17587-0.59436 0.21275-1.1614 0.56973-1.5554 0.92837-0.08047 0.0733-0.14885 0.14237-0.20326 0.2039-0.24189 0.27357-0.58593 0.85319-0.79915 1.5626-0.2693 0.89604-0.21452 1.5242-0.19924 2.033z"/><path d="m170.55 30.285c0.0241-0.11709 0.10342-0.28289 0.26308-0.47826 0.11963-0.14637 0.27474-0.2981 0.46272-0.45206 0.44437-0.36396 0.90454-0.61282 1.2684-0.82201 0.0458-0.02631 0.0872-0.0506 0.12364-0.07294 0.24934-0.15306 0.72679-0.50575 1.2423-0.76689 0.24408-0.12364 0.48123-0.22254 0.70602-0.29241 0.29747-0.09246 0.53708-0.12207 0.69282-0.11185-0.16536-0.01085-0.38263-0.03982-0.71619-0.02905-0.24492 0.0079-0.51141 0.03686-0.79819 0.09359-0.62524 0.12366-1.1929 0.35201-1.4813 0.52907-0.0399 0.02448-0.0839 0.05362-0.13107 0.08703-0.35563 0.25177-0.80786 0.68103-1.1436 1.1698-0.1487 0.21645-0.25731 0.41886-0.33367 0.60375-0.10281 0.2489-0.13053 0.42352-0.15498 0.54228z"/><path d="m145.51 39.664c0.0237-0.11523 0.093-0.27759 0.21569-0.44221 0.093-0.12478 0.20974-0.24252 0.35435-0.35505 0.33436-0.26019 0.73037-0.43017 1.0946-0.60327 0.0459-0.02181 0.0885-0.04252 0.12651-0.062 0.26052-0.13351 0.80411-0.46764 1.6086-0.8273 0.89409-0.39974 2.0138-0.79921 2.7303-0.98701-0.65931 0.1728-1.9046 0.41974-2.846 0.64731-0.90123 0.21787-1.4949 0.40651-1.802 0.56389-0.0417 0.02136-0.0873 0.04678-0.13551 0.07576-0.37382 0.22466-0.76968 0.57206-1.0186 0.98247-0.10911 0.17989-0.17842 0.35058-0.22503 0.50979-0.0601 0.20528-0.0802 0.3874-0.10293 0.49763z"/><path d="m153.49 32.871c0.98988-0.14077 2.563-0.27896 3.7894-0.29072 1.228-0.01177 1.9004 0.0939 2.4004 0.18158 0.062 0.01087 0.11667 0.02052 0.16497 0.02839 0.17319 0.0282 0.4233 0.05612 0.69522 0.11032 0.25115 0.05006 0.50797 0.11923 0.77856 0.2261 0.26507 0.10468 0.51854 0.23591 0.76486 0.39077 0.31853 0.20026 0.60473 0.42861 0.77715 0.59472-0.17199-0.1657-0.41472-0.43549-0.68822-0.70649-0.2097-0.20779-0.43128-0.40939-0.67813-0.59191-0.25356-0.18748-0.51098-0.33774-0.77856-0.45575-0.29076-0.12824-0.56405-0.20442-0.76194-0.23665-0.0542-0.0088-0.11617-0.01676-0.18564-0.02338-0.54262-0.05165-1.3073-0.01079-2.5132 0.16265-1.1284 0.1623-2.6364 0.44806-3.7649 0.61036z"/><path d="m155.05 36.174c0.12669-0.08268 0.36181-0.14203 0.65498-0.13642 0.23104 0.0044 0.47013 0.04649 0.72052 0.10766 0.30207 0.07379 0.59925 0.17157 0.78873 0.20321 0.24115 0.04026 0.55778 0.0773 1.06 0.17702 0.71769 0.14251 1.5775 0.36908 2.6682 0.73385 1.2548 0.41967 2.6466 0.97083 3.447 1.3399-0.78969-0.36408-2.1198-1.0609-3.3163-1.6558-1.0275-0.51092-1.8678-0.901-2.5828-1.1695-0.49232-0.18488-0.86612-0.28884-1.1247-0.33201-0.22059-0.03683-0.57926-0.02887-0.94014 0.04579-0.29876 0.0618-0.56133 0.15991-0.78935 0.28348-0.28091 0.15223-0.46634 0.3247-0.58611 0.40287z"/><path d="m209.2 58.608c0.0612-0.27466 0.18142-0.79894 0.32476-1.4232 0.11899-0.51816 0.24774-1.0162 0.42757-1.4703 0.10018-0.25296 0.20258-0.45761 0.30558-0.63161 0.0923-0.15584 0.17603-0.27201 0.24234-0.36297 0.031-0.04249 0.0656-0.10352 0.10852-0.17627 0.0956-0.16214 0.21647-0.35303 0.41223-0.53523 0.22749-0.21173 0.49898-0.35055 0.69461-0.39108-0.21756 0.04507-0.46981 0.0556-0.82086 0.17259-0.28267 0.09421-0.5225 0.22926-0.70609 0.38269-0.0813 0.06791-0.14383 0.1335-0.18277 0.18691-0.0838 0.11493-0.17473 0.2699-0.25947 0.4666-0.0943 0.21882-0.17247 0.46924-0.23421 0.75656-0.10941 0.50906-0.14956 1.0497-0.17979 1.5747-0.0406 0.70464-0.0593 1.1222-0.13242 1.4505z"/><path d="m215.74 68.641c1.35-0.35111 3.2058-0.7719 5.5268-1.0226 1.7468-0.18871 3.3894-0.23927 4.8114-0.18373 0.74546 0.02911 1.3886 0.08577 1.9259 0.15624 0.66965 0.08783 1.1566 0.19452 1.4966 0.29264 0.0987 0.02847 0.18486 0.05618 0.25963 0.08245 0.0805 0.02827 0.18513 0.07771 0.29257 0.14177 0.13959 0.08323 0.27481 0.18547 0.38212 0.2984 0.10223 0.10758 0.16759 0.21248 0.20112 0.30941 0.0186 0.05383 0.0259 0.10078 0.0276 0.14125 2e-3 0.05133-5e-3 0.09407-7e-3 0.12178 2e-3 -0.03008-8e-3 -0.06934-0.034-0.10925-0.0199-0.03018-0.0479-0.05907-0.0849-0.08671-0.0653-0.04887-0.1559-0.09196-0.26977-0.1331-0.12276-0.04435-0.25865-0.08163-0.39846-0.11924-0.10557-0.0284-0.20691-0.05535-0.27926-0.08077-0.0677-0.02378-0.1464-0.05054-0.2371-0.07941-0.31323-0.09971-0.77025-0.22479-1.4175-0.34297-0.51925-0.0948-1.1454-0.18217-1.8794-0.24591-1.3992-0.1215-3.0312-0.14304-4.7769-0.01961-2.2947 0.16225-4.2132 0.53446-5.5396 0.87941z"/><path d="m117.22 145.26c0.27935-0.4654 0.78833-1.0126 1.4203-1.3206 0.57654-0.28091 1.0364-0.2668 1.3146-0.24919 0.0382 2e-3 0.0716 5e-3 0.10182 6e-3 0.22732 0.0114 0.5815-9e-3 0.99643 0.18053 0.45395 0.2076 0.75064 0.58031 0.84876 0.87624-0.0958-0.28908-0.21455-0.74559-0.63993-1.168-0.3851-0.38248-0.85499-0.54972-1.1714-0.56557-0.0411-2e-3 -0.0878-2e-3 -0.13931 8.9e-4 -0.39633 0.0222-0.93975 0.19647-1.4865 0.6506-0.60247 0.50042-0.96072 1.1155-1.2448 1.5889z"/><path d="m199.95 144.08c0.87065 0.13377 2.6011 0.45762 3.6173 0.70853 0.48132 0.11884 0.87362 0.23451 1.2112 0.35575 0.4153 0.14914 0.68882 0.28575 0.89858 0.39645 0.0516 0.0272 0.0974 0.0519 0.13795 0.0731 0.14649 0.0769 0.36135 0.1781 0.60032 0.33584 0.22132 0.14608 0.45278 0.33317 0.69958 0.59733 0.24191 0.25893 0.47467 0.56654 0.70275 0.91826 0.29446 0.45408 0.56411 0.95824 0.72502 1.3076-0.1602-0.34786-0.37427-0.87462-0.59956-1.3759-0.17259-0.38403-0.34785-0.74327-0.54094-1.065-0.19851-0.33078-0.40136-0.59747-0.62133-0.82004-0.23906-0.2419-0.47414-0.40536-0.6508-0.49812-0.0483-0.0254-0.10411-0.0519-0.16714-0.0788-0.25562-0.10897-0.59188-0.20866-1.051-0.29225-0.37277-0.0679-0.7928-0.11969-1.29-0.1702-1.3486-0.13701-2.5037-0.21314-3.6719-0.39263z"/><path d="m203.83 154.04c0.80901 0.22126 2.2209 0.68582 3.3258 1.0756 1.1049 0.38976 1.9231 0.7102 2.3575 0.85565 0.0594 0.0199 0.11233 0.0367 0.15874 0.0502 0.33442 0.0972 0.88919 0.17877 1.2954 0.22095 0.44636 0.0464 0.73045 0.0497 0.83837 0.089-0.11085-0.0404-0.33692-0.21646-0.73156-0.43159-0.36475-0.19884-0.89333-0.43624-1.213-0.52915-0.0466-0.0136-0.10059-0.0278-0.16177-0.0427-0.44714-0.10955-1.3134-0.26957-2.4614-0.50742-1.1428-0.23676-2.5718-0.55177-3.408-0.78048z"/><path d="m196.85 148.13c0.84044 1.1452 2.4498 3.4394 3.3635 4.8221 1.0303 1.559 1.4527 2.3476 1.793 3.0271 0.04 0.0799 0.0752 0.15055 0.10643 0.21224 0.11518 0.22715 0.28061 0.52785 0.43761 0.88168 0.14351 0.32342 0.269 0.66634 0.36463 1.0576 0.0938 0.38381 0.15073 0.78113 0.17929 1.2017 0.0368 0.54198 0.023 1.097-9e-3 1.4664 0.0321-0.3684 0.10551-0.91358 0.15203-1.4652 0.0357-0.4232 0.0539-0.8382 0.0331-1.2538-0.0214-0.42659-0.0823-0.81737-0.181-1.1934-0.10695-0.40735-0.24983-0.76046-0.37203-1.0014-0.0335-0.0661-0.0738-0.1406-0.12101-0.22294-0.38108-0.66432-0.98272-1.4682-2.1235-2.8984-1.2678-1.5894-2.5618-3.1878-3.6228-4.6335z"/><path d="m203.19 162.21c8e-3 0.096 0.14242 0.31067 0.28427 0.59023 0.1213 0.23906 0.24267 0.50997 0.32531 0.76652 0.0562 0.17447 0.0903 0.33111 0.086 0.43678-0.0121 0.29215-0.10086 0.78004-0.23338 1.3606-0.13715 0.6008-0.30751 1.2422-0.47591 1.8292-0.20099 0.70066-0.39177 1.2833-0.43071 1.5237 0.0428-0.26446 0.0217-0.83018-0.0265-1.5733-0.0408-0.62793-0.0912-1.232-0.14265-1.858-0.0472-0.57438-0.0873-1.0671-0.076-1.3396 4e-3 -0.1014 0.05-0.24817 0.11537-0.41167 0.0948-0.23707 0.22608-0.49864 0.34013-0.72806 0.13737-0.27632 0.24305-0.49238 0.23415-0.59638z"/><path d="m191.47 152.74c2e-3 0.0268 3.9e-4 0.0677 6e-3 0.12409 4e-3 0.0428 0.0122 0.0924 0.0279 0.14975 0.0299 0.10918 0.0828 0.22806 0.15875 0.3474 0.0774 0.12157 0.1678 0.22547 0.23695 0.28357 0.10683 0.0897 0.29338 0.21823 0.56016 0.35174 0.33708 0.1687 0.76184 0.32546 1.2666 0.43609 0.64653 0.14171 1.2009 0.16196 1.6305 0.1717-0.41512-9e-3 -0.99697-0.0876-1.5972-0.29135-0.48018-0.16297-0.8626-0.36762-1.1558-0.56466-0.23055-0.15495-0.38618-0.29189-0.47985-0.37058-0.0602-0.0505-0.16333-0.11962-0.26365-0.19513-0.0994-0.0748-0.18746-0.14858-0.25703-0.22276-0.0365-0.0389-0.0655-0.0754-0.0872-0.10929-0.0289-0.0451-0.0435-0.0834-0.0459-0.11057z"/></g></g><path d="m207.54 47.208c0.33227-0.57395 2.8975-0.22849 2.9303 0.04296" fill="#ff7f2a" stroke="#000" stroke-width=".75"/><path d="m197.92 36.557c0.33227-0.57395 2.8975-0.22849 2.9303 0.04296" fill="#ff7f2a" stroke="#000" stroke-width=".75"/><g fill="none" stroke="#000"><path d="m122.66 76.815c-0.20383-0.6311 1.7704-2.3051 1.994-2.1477" stroke-width=".75"/><path d="m134.04 61.011c-0.20383-0.6311 1.7704-2.3051 1.994-2.1477" stroke-width=".75"/><path d="m144.54 49.388c-0.20383-0.6311 1.7043-2.0297 1.9279-1.8723" stroke-width=".5"/></g></svg>
