<?xml version="1.0" encoding="UTF-8"?>
<svg cursor="default" version="1.1" viewBox="0 0 256 256" xmlns="http://www.w3.org/2000/svg" xmlns:xlink="http://www.w3.org/1999/xlink">
 <defs>
  <linearGradient id="linearGradient9958" x1="69.796" x2="153.05" y1="239.8" y2="23.93" gradientTransform="translate(5.2631 -8.5381)" gradientUnits="userSpaceOnUse">
   <stop stop-color="#f55" offset="0"/>
   <stop stop-color="#ff8080" offset=".40867"/>
   <stop stop-color="#faa" offset="1"/>
  </linearGradient>
 </defs>
 <path d="m120.55 13.024c-7.9333 19.692-7.3535 39.384 0.99805 59.076-5.0046-7.8814-17.921-20.48-41.441-21.936-19.41-1.2009-33.868 14.429-33.963 28.666-0.13057 19.522 16.831 25.815 24.553 24.928 19.995-2.2976 24.32-13.569 19.471-25.111 10.124 25.194-40.34 36.832-41.594 0.49414-0.48873-14.17 15.557-33.416 45.305-23.244-12.108-1.8826-22.552 5.4141-21.438 14.832 0.22536-5.2414 7.2317-12.906 15.082-13.086 31.54-0.72138 45.015 32.739 39.01 66.057-6.2224 34.522-30.684 80.467-114.29 64.934 33.96 7.4517 58.925 9.191 82.756-3.3652-11.193 11.533-26.629 19.197-49.105 20.441 10.041 1.1898 19.828-0.80458 29.539-3.7402-23.528 17.286-42.254 22.443-60.947 27.42 30.628-6.7053 72.137-19.457 97.092-51.35-4.4855 11.423-14.064 46.382 0.9961 64.936-2.7047-8.2234-6.1339-14.832-5.5781-28.885 0.64218-16.239 10.833-40.804 18.656-61.477 4.2112-11.128 10.731-35.041 6.7383-54.963-0.11467-7.0679-1.2365-14.682 4.1133-20.191 5.8822-6.0578 16.7-8.4318 22.411 0.17202 3.6015 5.4259 6.1532 22.701-7.698 22.976-6.1615 0.12204-9.5511-5.3092-9.3883-9.9375 0.20023-5.692 5.3264-10.425 11.84-5.2271-4.7967-5.4807-12.056-2.564-13.451 4.9027-0.86815 4.6486 2.5479 12.815 13.113 12.665 13.301-0.18921 14.306-19.834 7.986-28.137-6.364-8.3601-17.356-7.5605-24.687-3.2715 0.67371-5.5957 16.611-26.291 44.619-26.049 15.559 0.13441 33.339 6.4102 48.941 23.469 8.3666 9.1474 18.2 45.35-9.4317 52.061-17.121 4.1581-24.439-16.267-15.953-25.053 7.5254-7.7914 17.908-6.0891 21.395 2.9609 1.6692 4.3334-1.4176 12.683-10.553 12.244 14.388 2.0131 16.674-19.624 0.53516-21.246-5.5783-0.5606-16.375 4.4963-16.619 15.623-0.20463 9.3308 9.1032 19.399 20.197 17.963 14.437-1.8692 24.414-16.96 20.689-35.895 7.1806 33.834-9.8841 56.156-29.537 82.633 12.497-17.126 43.22-46.426 29.303-90.264-7.4767-23.551-37.353-35.498-51.863-37.363-28.374-3.648-48.56 12.023-58.453 31.781 4.5531-16.432 6.7199-34.122-9.3477-61.443zm-30.383 65.623c-0.03608-0.08978-0.06589-0.17745-0.10352-0.26758 0.03872 0.08956 0.0659 0.17805 0.10352 0.26758zm-0.10352-0.26758c-0.348-0.80491-0.73526-1.6121-1.1699-2.416 0.45429 0.81822 0.83892 1.6231 1.1699 2.416zm30.861-59.996c10.568 20.789 13.693 36.709 6.2305 56.459l-2.4922-2.2441c-8.9017-19.322-9.6286-39.808-3.7383-54.215z" fill="url(#linearGradient9958)" stroke="#000" stroke-linejoin="round" stroke-width=".5"/>
</svg>
