<?xml version="1.0" encoding="UTF-8"?>
<svg cursor="default" version="1.1" viewBox="0 0 256 256" xml:space="preserve" xmlns="http://www.w3.org/2000/svg" xmlns:xlink="http://www.w3.org/1999/xlink"><defs><linearGradient id="linearGradient10562"><stop stop-color="#ff8080" offset="0"/><stop stop-color="#faa" offset="1"/></linearGradient><linearGradient id="linearGradient11148" x1="-127.88" x2="-148.07" y1="133.11" y2="166.76" gradientUnits="userSpaceOnUse" xlink:href="#linearGradient10562"/><linearGradient id="linearGradient12193" x1="-127.88" x2="-148.07" y1="133.11" y2="166.76" gradientTransform="matrix(.88166 .47189 .47189 -.88166 470.41 265.73)" gradientUnits="userSpaceOnUse" xlink:href="#linearGradient10562"/><linearGradient id="linearGradient12761" x1="-127.88" x2="-148.07" y1="133.11" y2="166.76" gradientTransform="matrix(.88166 .47189 .47189 -.88166 495.42 267.9)" gradientUnits="userSpaceOnUse" xlink:href="#linearGradient10562"/></defs><g transform="matrix(-.2223 -.16041 -.20037 .22576 284.84 72.295)" stroke="#000" stroke-linejoin="round"><g transform="rotate(79.481 151.39 430.23)"><path d="m-119.9 127.42c-2.2916 23.856 4.899 28.248 3.649 41.291-0.5204 5.4302-0.55689 19.036-14.656 19.179-14.274 0.14467-29.044-9.8389-38.315-15.236-8.7522-11.489 31.595-45.928 38.388-52.617 3.6003 2.5408 6.3736 6.5763 10.933 7.3837z" fill="url(#linearGradient11148)" stroke-width=".5"/><path d="m-126.53 124.72c-0.72652 1.557-1.7939 3.1139-2.732 4.6709" fill="#f55" stroke-linecap="round" stroke-width="1.2"/><path d="m-123.7 127.03c-0.97629 2.5616-1.9734 6.2341-4.181 9.3116" fill="#f55" stroke-linecap="round" stroke-width="1.8"/></g><path d="m420.96 95.932c17.952-18.879 22.479-38.874 21.645-52.309-0.33799-5.4446 2.5505-17.175-9.6875-17.832-10.324-0.55398-12.118 14.222-30.218 7.8673-13.138 5.9994 5.7244 52.482 8.5569 61.585z" fill="url(#linearGradient12193)" stroke-width=".5"/><g transform="rotate(135.19 145.64 224.22)"><path d="m-121.39 129.62c-2.2916 23.856 19.051 51.18 17.801 64.223-0.5204 5.4302-14.044 22.308-26.441 15.592-9.9507-5.3907-25.787-0.38923-35.058-5.7866-7.2716-4.2334-11.504-21.497-11.624-23.839-1.7123-33.206 31.412-48.715 38.937-56.092 5.5916 4.9624 10.963 4.8507 16.385 5.9027z" fill="url(#linearGradient11148)" stroke-width=".5"/><g fill="none" stroke-linecap="round"><path d="m-136.15 125.59c0.1959 1.7968-3.2543 9.2761-5.6498 11.179" stroke-width="2.3"/><path d="m-130.13 128.58c-0.72652 1.557-5.7268 15.329-6.665 16.886" stroke-width="1.2"/><path d="m-125.56 129.42c-1.3708 2.4433 0.44068 20.939 2e-3 24.547" stroke-width="1.7"/></g></g><path d="m419.94 95.445c6.0411-6.551 9.7673-13.455 8.5486-20.006" fill="none" stroke-linecap="round"/></g><g transform="matrix(.25774 -.093366 .13085 .27201 19.245 45.447)" stroke="#000" stroke-linejoin="round"><g transform="rotate(79.481 162.59 446.36)"><path d="m-119.9 127.42c-2.2916 23.856 4.899 28.248 3.649 41.291-0.5204 5.4302-0.55689 19.036-14.656 19.179-14.274 0.14467-29.044-9.8389-38.315-15.236-8.7522-11.489 31.595-45.928 38.388-52.617 3.6003 2.5408 6.3736 6.5763 10.933 7.3837z" fill="url(#linearGradient11148)" stroke-width=".5"/><path d="m-126.53 124.72c-0.72652 1.557-1.7939 3.1139-2.732 4.6709" fill="#f55" stroke-linecap="round" stroke-width="1.2"/><path d="m-123.7 127.03c-0.97629 2.5616-1.9734 6.2341-4.181 9.3116" fill="#f55" stroke-linecap="round" stroke-width="1.8"/></g><path d="m445.97 98.102c17.952-18.879 22.479-38.874 21.645-52.309-0.33799-5.4446 2.5505-17.175-9.6875-17.832-10.324-0.55398-12.118 14.222-30.218 7.8673-13.138 5.9994 5.7244 52.482 8.5569 61.585z" fill="url(#linearGradient12761)" stroke-width=".5"/><g transform="rotate(135.19 157.7 230.46)"><path d="m-121.39 129.62c-2.2916 23.856 19.051 51.18 17.801 64.223-0.5204 5.4302-14.044 22.308-26.441 15.592-9.9507-5.3907-25.787-0.38923-35.058-5.7866-7.2716-4.2334-11.504-21.497-11.624-23.839-1.7123-33.206 31.412-48.715 38.937-56.092 5.5916 4.9624 10.963 4.8507 16.385 5.9027z" fill="url(#linearGradient11148)" stroke-width=".5"/><g fill="none" stroke-linecap="round"><path d="m-136.15 125.59c0.1959 1.7968-3.2543 9.2761-5.6498 11.179" stroke-width="2.3"/><path d="m-130.13 128.58c-0.72652 1.557-5.7268 15.329-6.665 16.886" stroke-width="1.2"/><path d="m-125.56 129.42c-1.3708 2.4433 0.44068 20.939 2e-3 24.547" stroke-width="1.7"/></g></g><path d="m444.95 97.615c6.0411-6.551 9.7673-13.455 8.5486-20.006" fill="none" stroke-linecap="round"/></g><g transform="matrix(-.056868 -.37171 -.41352 .021098 281.99 240.95)" stroke="#000" stroke-linejoin="round"><g transform="rotate(79.481 151.39 430.23)"><path d="m-119.9 127.42c-2.2916 23.856 4.899 28.248 3.649 41.291-0.5204 5.4302-0.55689 19.036-14.656 19.179-14.274 0.14467-29.044-9.8389-38.315-15.236-8.7522-11.489 31.595-45.928 38.388-52.617 3.6003 2.5408 6.3736 6.5763 10.933 7.3837z" fill="url(#linearGradient11148)" stroke-width=".5"/><path d="m-126.53 124.72c-0.72652 1.557-1.7939 3.1139-2.732 4.6709" fill="#f55" stroke-linecap="round" stroke-width="1.2"/><path d="m-123.7 127.03c-0.97629 2.5616-1.9734 6.2341-4.181 9.3116" fill="#f55" stroke-linecap="round" stroke-width="1.8"/></g><path d="m420.96 95.932c17.952-18.879 22.479-38.874 21.645-52.309-0.33799-5.4446 2.5505-17.175-9.6875-17.832-10.324-0.55398-12.118 14.222-30.218 7.8673-13.138 5.9994 5.7244 52.482 8.5569 61.585z" fill="url(#linearGradient12193)" stroke-width=".5"/><g transform="rotate(135.19 145.64 224.22)"><path d="m-121.39 129.62c-2.2916 23.856 19.051 51.18 17.801 64.223-0.5204 5.4302-14.044 22.308-26.441 15.592-9.9507-5.3907-25.787-0.38923-35.058-5.7866-7.2716-4.2334-11.504-21.497-11.624-23.839-1.7123-33.206 31.412-48.715 38.937-56.092 5.5916 4.9624 10.963 4.8507 16.385 5.9027z" fill="url(#linearGradient11148)" stroke-width=".5"/><g fill="none" stroke-linecap="round"><path d="m-136.15 125.59c0.1959 1.7968-3.2543 9.2761-5.6498 11.179" stroke-width="2.3"/><path d="m-130.13 128.58c-0.72652 1.557-5.7268 15.329-6.665 16.886" stroke-width="1.2"/><path d="m-125.56 129.42c-1.3708 2.4433 0.44068 20.939 2e-3 24.547" stroke-width="1.7"/></g></g><path d="m419.94 95.445c6.0411-6.551 9.7673-13.455 8.5486-20.006" fill="none" stroke-linecap="round"/></g><g transform="matrix(.16565 -.33758 .38819 .14406 -36.926 281.96)" stroke="#000" stroke-linejoin="round"><g transform="rotate(79.481 151.39 430.23)"><path d="m-119.9 127.42c-2.2916 23.856 4.899 28.248 3.649 41.291-0.5204 5.4302-0.55689 19.036-14.656 19.179-14.274 0.14467-29.044-9.8389-38.315-15.236-8.7522-11.489 31.595-45.928 38.388-52.617 3.6003 2.5408 6.3736 6.5763 10.933 7.3837z" fill="url(#linearGradient11148)" stroke-width=".5"/><path d="m-126.53 124.72c-0.72652 1.557-1.7939 3.1139-2.732 4.6709" fill="#f55" stroke-linecap="round" stroke-width="1.2"/><path d="m-123.7 127.03c-0.97629 2.5616-1.9734 6.2341-4.181 9.3116" fill="#f55" stroke-linecap="round" stroke-width="1.8"/></g><path d="m420.96 95.932c17.952-18.879 22.479-38.874 21.645-52.309-0.33799-5.4446 2.5505-17.175-9.6875-17.832-10.324-0.55398-12.118 14.222-30.218 7.8673-13.138 5.9994 5.7244 52.482 8.5569 61.585z" fill="url(#linearGradient12193)" stroke-width=".5"/><g transform="rotate(135.19 145.64 224.22)"><path d="m-121.39 129.62c-2.2916 23.856 19.051 51.18 17.801 64.223-0.5204 5.4302-14.044 22.308-26.441 15.592-9.9507-5.3907-25.787-0.38923-35.058-5.7866-7.2716-4.2334-11.504-21.497-11.624-23.839-1.7123-33.206 31.412-48.715 38.937-56.092 5.5916 4.9624 10.963 4.8507 16.385 5.9027z" fill="url(#linearGradient11148)" stroke-width=".5"/><g fill="none" stroke-linecap="round"><path d="m-136.15 125.59c0.1959 1.7968-3.2543 9.2761-5.6498 11.179" stroke-width="2.3"/><path d="m-130.13 128.58c-0.72652 1.557-5.7268 15.329-6.665 16.886" stroke-width="1.2"/><path d="m-125.56 129.42c-1.3708 2.4433 0.44068 20.939 2e-3 24.547" stroke-width="1.7"/></g></g><path d="m419.94 95.445c6.0411-6.551 9.7673-13.455 8.5486-20.006" fill="none" stroke-linecap="round"/></g><g fill="#ffb380" stroke="#000" stroke-width=".4"><path d="m108.48 226.92c4.9512-20.695 12.597-23.814 24.123-27.933-18.13 3.2124-21.781 11.947-24.123 27.933z"/><path d="m107.99 183.79c-1.1324-2.1205 0.74332-1.8249-0.69748-3.8465-8.0551-11.302-23.779-23.036-37.211-25.93-1.8448 1.4631-1.8127 7.3959 1.1273 8.5106 9.9775-6.2381 31.609 13.293 36.782 21.266z"/><path d="m107.92 231.7c8.4599-66.999-1.3944-107.83-54.163-143.45 47.854 41.056 58.1 81.596 54.163 143.45z"/><path d="m173.11 102c11.849-10.517 29.851-17.067 45.886-14.773 1.2225 2.0123-0.86624 7.5654-4.0104 7.5906-7.193-9.3126-34.258 1.4985-41.875 7.1819z"/><path d="m151.63 69.494c0.42353-15.838 7.9488-33.454 20.585-43.589 2.3044 0.48332 4.3206 4.3402 2.1898 6.6522-11.714-1.116-21.716 27.492-22.775 36.937z"/><path d="m147.44 78.33c6.3438-14.518 7.0138-33.662-0.12076-48.205-2.2915-0.54126-5.755 2.094-4.808 5.0922 11.079 3.9653 7.9818 34.112 4.9287 43.113z"/><path d="m110.11 250.89c-8.4599-66.999 1.3944-107.83 54.163-143.45-47.854 41.056-58.1 81.596-54.163 143.45z"/></g><g transform="matrix(.70008 -.37434 .37434 .70008 88.984 -40.048)" stroke="#000" stroke-linejoin="round"><g><path d="m-119.9 127.42c-2.2916 23.856 2.4937 27.548 1.2438 40.591-0.5204 5.4302-2.8083 17.933-15.205 11.217-9.9507-5.3907-16.903-14.046-26.173-19.443-7.2716-4.2334 0.4579-15.036 2.4927-16.203 10.673-6.1169 17.402-13.812 24.927-21.188z" fill="url(#linearGradient11148)" stroke-width=".5"/><g fill="#f55" stroke-linecap="round"><path d="m-131.05 123.82c-0.8332 2.3731-2.6782 4.1391-4.6709 5.8166" stroke-width="1.2"/><path d="m-128.58 125.14c-0.72652 1.557-1.7939 3.1139-2.732 4.6709" stroke-width="1.2"/><path d="m-124.88 127.61c-0.97629 2.5616-0.78883 5.6474-2.9964 8.7249" stroke-width="1.8"/></g></g><g transform="matrix(-1 0 0 1 -240.19 -1.9942)"><path d="m-120.95 130.06c-2.2916 23.856 0.56001 21.414-0.68993 34.457-0.5204 5.4302-2.8083 17.933-15.205 11.217-9.9507-5.3907-10.172-11.553-19.443-16.95-7.2716-4.2334 0.4579-15.036 2.4927-16.203 10.673-6.1169 13.663-12.815 21.188-20.191z" fill="url(#linearGradient11148)" stroke-width=".5"/><g fill="#f55" stroke-linecap="round"><path d="m-131.05 123.82c-0.8332 2.3731-6.7912 13.861-8.7838 15.538" stroke-width="1.2"/><path d="m-128.58 125.14c-0.72652 1.557-5.5418 16.894-6.4799 18.451" stroke-width=".8"/><path d="m-124.88 127.61c-1.3708 2.4433-2.5575 5.1168-2.9964 8.7249" stroke-width="2.2"/></g></g><g transform="matrix(-.44652 .89477 .89477 .44652 -277.85 175.03)"><path d="m-121.39 129.62c5.904 20.855-0.74131 20.619-4.36 28.54-2.2668 4.9618 1.6246 8.2802-2.1211 10.261-4.5217 2.3913-17.048 2.035-26.319-3.3624-7.2716-4.2334-4.0989-19.901-3.5815-22.189 3.8072-16.832 17.639-13.102 25.164-20.479z" fill="url(#linearGradient11148)" stroke-width=".5"/><g fill="#f55" stroke-linecap="round"><path d="m-131.05 123.82c-0.8332 2.3731-2.6782 4.1391-4.6709 5.8166" stroke-width="1.2"/><path d="m-128.58 125.14c-0.72652 1.557-7.3605 12.454-8.2987 14.011" stroke-width="1.2"/><path d="m-124.88 127.61c-1.3708 2.4433 0.0688 4.2885-0.37011 7.8966" stroke-width="2.2"/></g></g><g transform="matrix(1 0 0 -1 .35253 242.39)"><path d="m-121.39 129.62c4.9801 23.856 3.1302 14.24 1.8607 27.283-0.52849 5.4295-4.455 12.784-18.554 12.803-6.126 8e-3 -9.9242 0.57027-13.401-1.671-4.1446-2.6715-9.4933-7.7866-11.362-13.542-2.5985-8.0028 3.9831-14.331 6.0179-15.497 10.673-6.1169 16.697-9.229 24.222-16.605z" fill="url(#linearGradient11148)" stroke-width=".5"/><g fill="#f55" stroke-linecap="round"><path d="m-131.05 123.82c-0.8332 2.3731-8.723 8.9999-10.716 10.677" stroke-width="1.2"/><path d="m-128.58 125.14c-0.72652 1.557-3.9127 7.4762-4.8508 9.0331" stroke-width="1.2"/><path d="m-125.75 128.92c-1.3708 2.4433-1.8524 6.9675-2.2914 10.576" stroke-width="2.4"/></g></g><g transform="rotate(180 -121.49 120.31)"><path d="m-118.4 130.15c-4.755 20.835-2.4907 10.442-5.1898 23.582-1.0976 5.3436-2.6463 9.9011-11.68 13.509-12.116 4.8382-22.059-2.4952-25.645-13.098-2.6954-7.9707 6.7179-14.847 8.8381-15.85 6.9718-3.2968-0.40045-8.3477 19.463-15.9z" fill="url(#linearGradient11148)" stroke-width=".5"/><g fill="#f55" stroke-linecap="round"><path d="m-131.05 123.82c-0.8332 2.3731-2.6782 4.1391-4.6709 5.8166" stroke-width="1.2"/><path d="m-128.58 125.14c-0.72652 1.557-2.5871 7.256-3.5252 8.813" stroke-width="2"/><path d="m-124.88 127.61c-0.94397 2.5856-0.0548 11.562-2.6439 14.453"/></g></g><g transform="rotate(63.479 -121.4 119.67)"><path d="m-121.39 129.62c-2.2916 23.856 2.7256 18.803 1.4757 31.846-0.5204 5.4302-2.4109 22.268-14.808 15.552-9.9507-5.3907-4.9896-0.81207-14.26-6.2094-7.2716-4.2334-6.302-14.697-5.7846-16.984 3.8072-16.832 14.635-24.057 22.16-31.433z" fill="url(#linearGradient11148)" stroke-width=".5"/><g fill="#f55" stroke-linecap="round"><path d="m-131.05 123.82c-0.8332 2.3731-2.6782 4.1391-4.6709 5.8166" stroke-width="1.2"/><path d="m-128.58 125.14c-0.72652 1.557-4.9925 11.338-5.9307 12.895" stroke-width="1.2"/><path d="m-124.88 127.61c-1.3708 2.4433-2.2784 9.2943-2.7173 12.902" stroke-width="1.7"/></g></g><ellipse transform="rotate(7.6988)" cx="-103.9" cy="134.01" rx="14.806" ry="9.9587" fill="#ffe680" stroke-linecap="round" stroke-width=".5"/></g><g transform="matrix(-.95514 -.21979 -.21979 .95514 60.995 -41.424)" stroke="#000" stroke-linejoin="round"><g><path d="m-119.9 127.42c-2.2916 23.856 2.4937 27.548 1.2438 40.591-0.5204 5.4302-2.8083 17.933-15.205 11.217-9.9507-5.3907-16.903-14.046-26.173-19.443-7.2716-4.2334 0.4579-15.036 2.4927-16.203 10.673-6.1169 17.402-13.812 24.927-21.188z" fill="url(#linearGradient11148)" stroke-width=".5"/><g fill="#f55" stroke-linecap="round"><path d="m-131.05 123.82c-0.8332 2.3731-2.6782 4.1391-4.6709 5.8166" stroke-width="1.2"/><path d="m-128.58 125.14c-0.72652 1.557-1.7939 3.1139-2.732 4.6709" stroke-width="1.2"/><path d="m-124.88 127.61c-0.97629 2.5616-0.78883 5.6474-2.9964 8.7249" stroke-width="1.8"/></g></g><g transform="matrix(-1 0 0 1 -240.19 -1.9942)"><path d="m-119.3 129.68c-1.5196 16.444-1.0788 21.761-2.3394 34.837-0.52348 5.4299-2.8083 17.933-15.205 11.217-9.9507-5.3907-10.172-11.553-19.443-16.95-7.2716-4.2334 0.4579-15.036 2.4927-16.203 10.673-6.1169 13.663-12.815 21.188-20.191z" fill="url(#linearGradient11148)" stroke-width=".5"/><g fill="#f55" stroke-linecap="round"><path d="m-131.05 123.82c-0.8332 2.3731-6.7912 13.861-8.7838 15.538" stroke-width="1.2"/><path d="m-128.58 125.14c-0.72652 1.557-5.5418 16.894-6.4799 18.451" stroke-width=".8"/><path d="m-124.88 127.61c-1.3708 2.4433-2.5575 5.1168-2.9964 8.7249" stroke-width="2.2"/></g></g><g transform="matrix(-.44652 .89477 .89477 .44652 -277.85 175.03)"><path d="m-121.39 129.62c5.904 20.855-0.74131 20.619-4.36 28.54-2.2668 4.9618 1.6246 8.2802-2.1211 10.261-4.5217 2.3913-17.048 2.035-26.319-3.3624-7.2716-4.2334-4.0989-19.901-3.5815-22.189 3.8072-16.832 17.639-13.102 25.164-20.479z" fill="url(#linearGradient11148)" stroke-width=".5"/><g fill="#f55" stroke-linecap="round"><path d="m-131.05 123.82c-0.8332 2.3731-2.6782 4.1391-4.6709 5.8166" stroke-width="1.2"/><path d="m-128.58 125.14c-0.72652 1.557-7.3605 12.454-8.2987 14.011" stroke-width="1.2"/><path d="m-124.88 127.61c-1.3708 2.4433 0.0688 4.2885-0.37011 7.8966" stroke-width="2.2"/></g></g><g transform="matrix(1 0 0 -1 .35253 242.39)"><path d="m-121.39 129.62c4.9801 23.856 3.1302 14.24 1.8607 27.283-0.52849 5.4295-4.455 12.784-18.554 12.803-6.126 8e-3 -9.9242 0.57027-13.401-1.671-4.1446-2.6715-9.4933-7.7866-11.362-13.542-2.5985-8.0028 3.9831-14.331 6.0179-15.497 10.673-6.1169 16.697-9.229 24.222-16.605z" fill="url(#linearGradient11148)" stroke-width=".5"/><g fill="#f55" stroke-linecap="round"><path d="m-131.05 123.82c-0.8332 2.3731-8.723 8.9999-10.716 10.677" stroke-width="1.2"/><path d="m-128.58 125.14c-0.72652 1.557-3.9127 7.4762-4.8508 9.0331" stroke-width="1.2"/><path d="m-125.75 128.92c-1.3708 2.4433-1.8524 6.9675-2.2914 10.576" stroke-width="2.4"/></g></g><g transform="rotate(180 -121.49 120.31)"><path d="m-118.4 130.15c-4.755 20.835-2.4907 10.442-5.1898 23.582-1.0976 5.3436-2.6463 9.9011-11.68 13.509-12.116 4.8382-22.059-2.4952-25.645-13.098-2.6954-7.9707 6.7179-14.847 8.8381-15.85 6.9718-3.2968-0.40045-8.3477 19.463-15.9z" fill="url(#linearGradient11148)" stroke-width=".5"/><g fill="#f55" stroke-linecap="round"><path d="m-131.05 123.82c-0.8332 2.3731-2.6782 4.1391-4.6709 5.8166" stroke-width="1.2"/><path d="m-128.58 125.14c-0.72652 1.557-2.5871 7.256-3.5252 8.813" stroke-width="2"/><path d="m-124.88 127.61c-0.94397 2.5856-0.0548 11.562-2.6439 14.453"/></g></g><g transform="rotate(63.479 -121.4 119.67)"><path d="m-121.39 129.62c-2.2916 23.856 2.7256 18.803 1.4757 31.846-0.5204 5.4302-2.4109 22.268-14.808 15.552-9.9507-5.3907-4.9896-0.81207-14.26-6.2094-7.2716-4.2334-6.302-14.697-5.7846-16.984 3.8072-16.832 14.635-24.057 22.16-31.433z" fill="url(#linearGradient11148)" stroke-width=".5"/><g fill="#f55" stroke-linecap="round"><path d="m-131.05 123.82c-0.8332 2.3731-2.6782 4.1391-4.6709 5.8166" stroke-width="1.2"/><path d="m-128.58 125.14c-0.72652 1.557-4.9925 11.338-5.9307 12.895" stroke-width="1.2"/><path d="m-124.88 127.61c-1.3708 2.4433-2.2784 9.2943-2.7173 12.902" stroke-width="1.7"/></g></g><ellipse transform="rotate(7.6988)" cx="-103.9" cy="134.01" rx="14.806" ry="9.9587" fill="#ffe680" stroke-linecap="round" stroke-width=".5"/></g><g transform="matrix(-.2758 -.43587 -.35987 .36202 149.81 103.23)" stroke="#000" stroke-linejoin="round"><g><path d="m-119.9 127.42c-2.2916 23.856 2.4937 27.548 1.2438 40.591-0.5204 5.4302-2.8083 17.933-15.205 11.217-9.9507-5.3907-16.903-14.046-26.173-19.443-7.2716-4.2334 0.73965-14.68 2.4927-16.203 8.912-7.7379 17.053-14.133 24.927-21.188z" fill="url(#linearGradient11148)" stroke-width=".5"/><g fill="#f55" stroke-linecap="round"><path d="m-131.05 123.82c-0.8332 2.3731-2.6782 4.1391-4.6709 5.8166" stroke-width="1.2"/><path d="m-128.58 125.14c-0.72652 1.557-1.7939 3.1139-2.732 4.6709" stroke-width="1.2"/><path d="m-124.88 127.61c-0.97629 2.5616-0.78883 5.6474-2.9964 8.7249" stroke-width="1.8"/></g></g><g transform="matrix(-1 0 0 1 -240.19 -1.9942)"><path d="m-120.95 130.06c-3.1119 20.248 0.55067 21.373-0.68993 34.457-0.51482 5.4295-2.8083 17.933-15.205 11.217-9.9507-5.3907-10.172-11.553-19.443-16.95-7.2716-4.2334 0.4579-15.036 2.4927-16.203 10.673-6.1169 13.663-12.815 21.188-20.191z" fill="url(#linearGradient11148)" stroke-width=".5"/><g fill="#f55" stroke-linecap="round"><path d="m-131.05 123.82c-0.8332 2.3731-6.7912 13.861-8.7838 15.538" stroke-width="1.2"/><path d="m-128.58 125.14c-0.72652 1.557-5.5418 16.894-6.4799 18.451" stroke-width=".8"/><path d="m-124.88 127.61c-1.3708 2.4433-2.5575 5.1168-2.9964 8.7249" stroke-width="2.2"/></g></g><g transform="matrix(-.44652 .89477 .89477 .44652 -277.85 175.03)"><path d="m-121.39 129.62c5.904 20.855-0.74131 20.619-4.36 28.54-2.2668 4.9618 1.6246 8.2802-2.1211 10.261-4.5217 2.3913-17.048 2.035-26.319-3.3624-7.2716-4.2334-4.0989-19.901-3.5815-22.189 3.8072-16.832 17.639-13.102 25.164-20.479z" fill="url(#linearGradient11148)" stroke-width=".5"/><g fill="#f55" stroke-linecap="round"><path d="m-131.05 123.82c-0.8332 2.3731-2.6782 4.1391-4.6709 5.8166" stroke-width="1.2"/><path d="m-128.58 125.14c-0.72652 1.557-7.3605 12.454-8.2987 14.011" stroke-width="1.2"/><path d="m-124.88 127.61c-1.3708 2.4433 0.0688 4.2885-0.37011 7.8966" stroke-width="2.2"/></g></g><g transform="matrix(1 0 0 -1 .35253 242.39)"><path d="m-121.39 129.62c4.9801 23.856 3.1302 14.24 1.8607 27.283-0.52849 5.4295-4.455 12.784-18.554 12.803-6.126 8e-3 -9.9242 0.57027-13.401-1.671-4.1446-2.6715-9.4933-7.7866-11.362-13.542-2.5985-8.0028 3.9831-14.331 6.0179-15.497 10.673-6.1169 16.697-9.229 24.222-16.605z" fill="url(#linearGradient11148)" stroke-width=".5"/><g fill="#f55" stroke-linecap="round"><path d="m-131.05 123.82c-0.8332 2.3731-8.723 8.9999-10.716 10.677" stroke-width="1.2"/><path d="m-128.58 125.14c-0.72652 1.557-3.9127 7.4762-4.8508 9.0331" stroke-width="1.2"/><path d="m-125.75 128.92c-1.3708 2.4433-1.8524 6.9675-2.2914 10.576" stroke-width="2.4"/></g></g><g transform="rotate(180 -121.49 120.31)"><path d="m-118.4 130.15c-4.755 20.835-2.4907 10.442-5.1898 23.582-1.0976 5.3436-2.6463 9.9011-11.68 13.509-12.116 4.8382-22.059-2.4952-25.645-13.098-2.6954-7.9707 6.7179-14.847 8.8381-15.85 6.9718-3.2968-0.40045-8.3477 19.463-15.9z" fill="url(#linearGradient11148)" stroke-width=".5"/><g fill="#f55" stroke-linecap="round"><path d="m-131.05 123.82c-0.8332 2.3731-2.6782 4.1391-4.6709 5.8166" stroke-width="1.2"/><path d="m-128.58 125.14c-0.72652 1.557-2.5871 7.256-3.5252 8.813" stroke-width="2"/><path d="m-124.88 127.61c-0.94397 2.5856-0.0548 11.562-2.6439 14.453"/></g></g><g transform="rotate(63.479 -121.4 119.67)"><path d="m-121.39 129.62c-2.2916 23.856 2.7256 18.803 1.4757 31.846-0.5204 5.4302-2.4109 22.268-14.808 15.552-9.9507-5.3907-4.9896-0.81207-14.26-6.2094-7.2716-4.2334-6.302-14.697-5.7846-16.984 3.8072-16.832 14.635-24.057 22.16-31.433z" fill="url(#linearGradient11148)" stroke-width=".5"/><g fill="#f55" stroke-linecap="round"><path d="m-131.05 123.82c-0.8332 2.3731-2.6782 4.1391-4.6709 5.8166" stroke-width="1.2"/><path d="m-128.58 125.14c-0.72652 1.557-4.9925 11.338-5.9307 12.895" stroke-width="1.2"/><path d="m-124.88 127.61c-1.3708 2.4433-2.2784 9.2943-2.7173 12.902" stroke-width="1.7"/></g></g><ellipse transform="rotate(7.6988)" cx="-103.9" cy="134.01" rx="14.806" ry="9.9587" fill="#ffe680" stroke-linecap="round" stroke-width=".5"/></g></svg>
