<?xml version="1.0" encoding="UTF-8"?>
<svg cursor="default" version="1.1" viewBox="0 0 256 256" xmlns="http://www.w3.org/2000/svg">
 <defs>
  <radialGradient id="radialGradient5686" cx="127.86" cy="128.14" r="126.93" gradientTransform="matrix(.9025 0 0 .9025 12.466 12.494)" gradientUnits="userSpaceOnUse">
   <stop stop-color="#ff8080" offset="0"/>
   <stop stop-color="#ff3d3d" stop-opacity="0" offset=".934"/>
   <stop stop-color="#ffd5d5" stop-opacity="0" offset="1"/>
  </radialGradient>
 </defs>
 <g transform="translate(-.55338 -.143)" fill-rule="evenodd">
  <path d="m13.755 14.041 0.645 227.56 227.56 0.645-0.322-227.56z" fill="url(#radialGradient5686)"/>
  <g stroke="#000" stroke-width="1.03">
   <path d="m154.88 100.92c-4.125-0.997-5.166-3.537-3.404-7.478-1.262 1.136-2.849 2.027-2.472 4.391 1.094 4.404 3.693 3.947 5.876 3.087z" fill="#ff2a2a"/>
   <path d="m117.35 79.588c-26.722 2.716-73.978 5.027-104.86 20.165l0.131 32.785c6.953-2.334 3.83-7.95 20.135-12.324 68.894-18.483 153.63-11.095 189.98 0.904 7.117 2.349 20.885 12.317 22.36 14.281l0.65-30.573c-4.654-10.233-57.608-18.911-110.58-24.848zm35.307 13.799c1.777 0 3.64 2.137 3.64 4.052s-1.993 4.248-3.77 4.248-3.608-2.398-3.608-4.313 1.96-3.988 3.738-3.987z" fill="#f55"/>
   <path d="m7.484 104.61 1.472 39.004c11.18 18.122 56.639 19.968 111.86 19.87 70.65-0.125 103.15 1.963 127.13-14.718l1.84-40.66c-15.823 7.12-77.556 9.928-125.2 9.659-40.951-0.231-104.44-2e-3 -117.1-13.155z" fill="#ff8080"/>
   <path d="m79.145 85.388-10.822 15.15 11.805 10.762 1.362 0.957c20.54-2.67 27.74-1.99 48.301-2.423 0.469-9.874 0.668-20.349-0.21-30.222z" fill="#f55"/>
   <path d="m116.54 79.756 4.552-0.318c0.11 1.514-21.399 2.003-44.525 5.487-29.818 4.492-62.994 12.503-63.014 18.769-0.044 14.08 67.828 12.933 109.29 12.879 51.091-0.067 123.93-2.33 120.88-9.751-4.19-10.181-47.102-17.965-96.983-24.266-4.978-0.63-11.442-1.346-16.103-3.03l4.128 0.023c6.436 0.84 7.19 0.89 12.183 1.417 50.985 5.384 96.288 13.173 102.66 25.672 5.013 9.83-82.537 12.517-126.03 12.143-61.332-0.529-114.96-1.445-116.28-14.351-1.343-13.11 80.33-23.788 109.24-24.674z" fill="#faa"/>
  </g>
 </g>
 <g transform="translate(-.55338 -.143)" stroke="#000">
  <path d="m135.37 91.205a4.109 4.58 0 0 0-4.109 4.58 4.109 4.58 0 0 0 4.11 4.58 4.109 4.58 0 0 0 4.107-4.58 4.109 4.58 0 0 0-4.108-4.58zm0 1.241a2.995 3.339 0 0 1 2.995 3.34 2.995 3.339 0 0 1-2.995 3.338 2.995 3.339 0 0 1-2.996-3.339 2.995 3.339 0 0 1 2.996-3.339z" fill="#f95" stroke-linecap="round" stroke-linejoin="round" stroke-width=".836"/>
  <path d="m79.329 85.388 1.196 1.38c16.382-2.453 50.396-3.88 49.148-7.358l-3.033 0.046c-0.216 1.627-31.54 3.954-47.311 5.932z" fill="#faa" fill-rule="evenodd" stroke-width="1.03"/>
  <ellipse cx="88.564" cy="99.397" rx="4.567" ry="4.749" fill="#ffb380" stroke-linecap="round" stroke-linejoin="round" stroke-width=".897"/>
  <path d="m102 80.369 0.13-2.472c0.112-2.118 1.833-2.802 4.098-2.797l29.922 0.065c3.662 8e-3 4.163 2.196 4.163 3.903v1.04a49.183 49.183 0 0 0-4.278-0.558c-0.2-1.548-30.253-1.239-30.067 0.233z" fill="#ffb380" fill-rule="evenodd" stroke-width="1.03"/>
 </g>
 <path d="m80.114 86.6-0.4-0.325c-0.38 0.466-0.882 1.161-1.642 2.3a238.93 238.93 0 0 0-2.092 3.217c-1.415 2.198-3.295 5.132-5.326 8.059a0.248 0.265 47.292 0 0-0.02 0.268c1.307 2.406 3.2 4.53 4.955 6.33 2.333 2.392 4.322 4.255 5.37 5.455-1.048-1.2-2.983-3.128-5.222-5.595-1.66-1.828-3.396-3.942-4.573-6.282 2.08-2.814 4.05-5.677 5.503-7.776a237.28 237.28 0 0 1 2.193-3.131 44.386 44.386 0 0 1 1.653-2.194l-0.4-0.326z" fill-rule="evenodd"/>
 <g transform="translate(-.55338 -.143)" stroke="#000">
  <g>
   <g stroke-linecap="round" stroke-linejoin="round">
    <ellipse cx="105.04" cy="98.175" rx="4.567" ry="4.749" fill="#ffb380" stroke-width=".897"/>
    <ellipse transform="rotate(-6.297)" cx="111.25" cy="109.66" rx="5.093" ry="3.894" fill="#808080" stroke-width=".858"/>
    <ellipse cx="135.12" cy="95.875" rx="3.329" ry="3.462" fill="#ff2a2a" stroke-width=".654"/>
   </g>
   <path d="m120.23 94.012c-1.995 0.846-3.547 4.392 0.203 6.062l16.135-1.544c1.552-1.808 1.8-3.555-0.195-5.276z" fill="#ffb380" fill-rule="evenodd" stroke-width="1.03"/>
   <path d="m152.7 92.898a4.109 4.58 0 0 0-4.11 4.58 4.109 4.58 0 0 0 4.11 4.58 4.109 4.58 0 0 0 4.107-4.58 4.109 4.58 0 0 0-4.107-4.58zm0 1.24a2.995 3.339 0 0 1 2.994 3.34 2.995 3.339 0 0 1-2.994 3.338 2.995 3.339 0 0 1-2.996-3.338 2.995 3.339 0 0 1 2.996-3.34z" fill="#f95" stroke-linecap="round" stroke-linejoin="round" stroke-width=".836"/>
  </g>
  <g fill-rule="evenodd" stroke-width="1.03">
   <path d="m36.922 130.23c-0.096-2.026 2.209-4.819 4.065-4.716 55.039 3.045 110.22 3.612 165.74-0.13 2.463-0.166 4.097 1.94 4.748 5.073-58.625 7.458-116.96 3.938-174.56-0.227z" fill="#ffd5d5"/>
   <path d="m36.824 130.85v17.172c0 2.981 3.324 4.82 7.676 5.204 51.769 4.571 105.97 4.637 161.84 1.561 3.172-0.174 5.765-1.35 5.725-4.423l-0.238-18.204c-0.026-1.946-1.607-5.757-5.727-5.473-54.388 3.75-107.37 3.84-164.33 0-2.278-0.154-4.944 1.1-4.944 4.163z" fill="#faa"/>
  </g>
  <ellipse cx="48.315" cy="140.44" rx="7.748" ry="8.622" fill="#ffb380" stroke-linecap="round" stroke-linejoin="round" stroke-width=".99"/>
  <ellipse cx="202.04" cy="140.77" rx="7.748" ry="8.622" fill="#ffb380" stroke-linecap="round" stroke-linejoin="round" stroke-width=".99"/>
 </g>
 <path d="m53.99 137.01-1.827-2.166-6.611 5.69 8.694-0.703zm153.94 0.723-1.366-2.428-4.666 4.782 6.672 0.356zm-119.93-42.203c0.734 0.284 1.339 0.752 1.777 1.294 0.09 0.053 0.18 0.11 0.266 0.17 0.68209 0.46503 1.2088 1.1242 1.512 1.892-0.06-0.845-0.41-1.7-1-2.432-0.07752-0.09663-0.15857-0.19036-0.243-0.281-0.7041-0.4069-1.4999-0.62848-2.313-0.644zm16.368-1.312c0.735 0.284 1.34 0.752 1.778 1.294 0.09 0.053 0.18 0.11 0.266 0.17 0.68209 0.46503 1.2088 1.1242 1.512 1.892-0.06-0.844-0.41-1.7-1-2.432-0.0775-0.0963-0.15857-0.1897-0.243-0.28-0.7041-0.4069-1.4999-0.62848-2.313-0.644zm17.049 1.057 10.693-0.462 2.6-0.412-2.631-0.069zm17.225-16.601c0.037-0.405 0.033-0.769-0.064-1.094-0.0494-0.16805-0.12609-0.32683-0.227-0.47-0.11197-0.15698-0.24797-0.29534-0.403-0.41-0.23584-0.1707-0.49433-0.30769-0.768-0.407-0.19506-0.04376-0.39191-0.07913-0.59-0.106-0.575-0.081-1.28-0.124-2.138-0.142-1.713-0.038-4.093 0.02-7.36 0.08-3.273 0.06-7.451 0.125-12.779 0.103 5.327 0.116 9.506 0.146 12.78 0.179 3.276 0.033 5.64 0.07 7.331 0.2 0.846 0.066 1.515 0.154 2.04 0.273 0.192 0.044 0.362 0.09 0.513 0.142 0.274 0.045 0.497 0.102 0.682 0.175 0.144 0.057 0.269 0.124 0.376 0.205 0.108 0.08 0.201 0.178 0.282 0.297 0.164 0.242 0.266 0.562 0.325 0.975z" fill="#ffe6d5" fill-rule="evenodd"/>
</svg>
