<?xml version="1.0" encoding="UTF-8"?>
<svg version="1.1" viewBox="0 0 64 64" xml:space="preserve" xmlns="http://www.w3.org/2000/svg"><path d="m38.334 56.318c-2.5468-7.1268-4.4509-14.125-10.347-21.922-5.8901-0.25957-16.474 0.60582-20.253-1.6325-3.1159-1.8458-5.0883-5.4007-6.2287-10.819-0.23813-1.1314 9.3709-2.84 14.819-4.1213 1.614-5.7052 4.0482-9.9495 14.819-10.259 18.039-0.51899 14.249 18.613 30.953 32.532-5.7213 7.4558-14.491 14.718-23.763 16.222z" fill="#ff8080" stroke="#000" stroke-linecap="round" stroke-width="2.1106"/><path d="m34.283 22.195c2.0441 0.83234 4.5566 0.54963 2.5422 5.8284-1.052 2.7567 0.2903 4.3789 1.9841 6.2624 0.76656 0.85237 0.51277-5.4967 4.1543-7.6265 2.2838-1.3357 1.447-5.3735 2.2941-7.8125 3.1678 4.1543 3.6028 8.3085 5.1463 12.463-3.5766 2.9424-7.6061 5.3025-12.339 6.7584-3.0678-4.9276-4.59-8.3693-3.7822-15.873z"/><path d="m32.897 20.893c0.83305 5.5493 1.0652 10.676 3.8582 16.661 1.4241 3.0512 14.751-4.7916 14.118-7.8041-1.7997-5.0232-2.9874-10.199-7.4534-14.556" fill="none" stroke="#000" stroke-linecap="round" stroke-width="2.1106"/><g><path d="m17.069 26.893c1.5089 0.05318 0.479 1.5098-0.38735 0.91743-1.1356-0.77657-2.291-1.0118 0.38735-0.91743z" stroke="#000" stroke-linecap="round" stroke-width="2.139"/><path d="m24.193 18.342c-1.623 0.53786-1.6306-1.5791-0.30304-1.4383 1.7018 0.1804 2.898 0.57836 0.30304 1.4383z" stroke="#000" stroke-linecap="round" stroke-width="2.8142"/><path d="m44.034 53.688c1.3391-2.3943 1.1759-4.0843 1.5784-8.3303 0.39739-4.1919 1.8341-1.3195 3.5075 1.0522 1.8804 2.665-0.39585 2.9808-1.1399 5.0858z"/><path d="m56.047 35.624c-0.28838-0.04119-0.9665 4.3637 0.08771 4.7351 1.0265 0.36166 4.7313-0.35828 4.472-0.87687z"/></g></svg>
