<?xml version="1.0" encoding="UTF-8"?>
<svg cursor="pointer" version="1.1" viewBox="0 0 256 256" xml:space="preserve" xmlns="http://www.w3.org/2000/svg" xmlns:xlink="http://www.w3.org/1999/xlink"><defs><linearGradient id="linearGradient2704" x1="54.59" x2="179.22" y1="152.05" y2="145.57" gradientTransform="translate(-.34508 3.1661)" gradientUnits="userSpaceOnUse"><stop stop-color="#f95" offset="0"/><stop stop-color="#ffb380" offset="1"/></linearGradient><linearGradient id="linearGradient2799" x1="93.227" x2="109.18" y1="131.37" y2="176.98" gradientTransform="translate(-.34508 3.1661)" gradientUnits="userSpaceOnUse"><stop stop-color="#f55" offset="0"/><stop stop-color="#ff8080" offset="1"/></linearGradient><linearGradient id="linearGradient2807" x1="40.132" x2="107.68" y1="106.19" y2="108.18" gradientTransform="translate(-.34508 3.1661)" gradientUnits="userSpaceOnUse"><stop stop-color="#f55" offset="0"/><stop stop-color="#ff8080" offset="1"/></linearGradient><linearGradient id="linearGradient2809" x1="150.56" x2="148.81" y1="146.07" y2="136.1" gradientTransform="translate(-.34508 3.1661)" gradientUnits="userSpaceOnUse"><stop stop-color="#fea" offset="0"/><stop stop-color="#fff6d5" offset="1"/></linearGradient></defs><g stroke="#000" stroke-linecap="round" stroke-width="2"><path d="m52.004 130.95c50.199-15.745 99.265-14.939 152.99-3.8777 10.173 2.0943 39.015 9.1086 36.662 20.975-4.1842 21.101-81.2 56.552-151.41 54.288-91.239-2.9423-95.728-53.357-38.248-71.385z" fill="url(#linearGradient2799)"/><path d="m58.173 136.77c-1.3442-20.147 12.672-44.166 20.446-61.867 8.3602-19.036 12.786-18.881 35.428-21.151 17.247-1.7294 34.508 8.5815 42.831 8.2842l14.806-0.52878c14.164-0.50585 16.777 8.7671 18.507 16.921 3.721 17.535 8.4231 34.906 9.5181 52.878-21.167 28.179-130.62 30.408-141.54 5.4641z" fill="url(#linearGradient2807)"/><path d="m128.5 151.93c0-1.2338 7.9317-48.472 7.9317-48.472l49.882 2.6439-5.6403 43.536z" fill="url(#linearGradient2809)"/><path d="m57.997 130.6-2.8202 25.734c15.092 29.043 122.82 23.677 146.3-5.8166l-2.2914-23.795c-9.4507 24.078-135.75 32.257-141.18 3.8777z" fill="url(#linearGradient2704)"/></g><path d="m81.415 79.474c-4.0378 31.971 42.141-13.889 70.75-12.418 6.4058-2.7788-4.9582-6.1718-23.424-4.6487-15.692 1.2944-47.298 16.843-47.326 17.067z" fill="#f55"/><g fill="none" stroke="#000" stroke-linecap="round" stroke-width="2"><path d="m81.616 78.077c-5.5425 34.67 41.536-12.518 70.68-10.576"/><path d="m137.5 125.68 2.4927-13.087c7.744-0.80017 7.2231 8.4483-0.90138 7.507"/><path d="m146.6 126.31 1.8695-13.087c7.4858-0.17909 7.9923 7.2943-0.87244 6.6056 3.3604 0.7244 4.0049 3.5744 4.7361 6.3564"/><path d="m163.3 114.34-5.3228-0.0516-1.5762 11.247 5.4034 0.0214"/><path d="m162.3 119.33h-4.7361"/><path d="m172.27 117.01c-0.68145-4.6725-5.8427-4.0246-6.1134-0.20023-0.21936 3.0989 5.4347 3.1213 5.3656 6.9305-0.0863 4.7593-6.7603 4.2728-6.3564-0.24927"/><path d="m181.35 117.1c-0.68145-4.6725-5.8427-4.0246-6.1134-0.20023-0.21936 3.0989 5.4347 3.1213 5.3656 6.9305-0.0863 4.7593-6.7603 4.2728-6.3564-0.24927"/><path d="m136.26 130.25 42.831 0.52878"/></g></svg>
