<?xml version="1.0" encoding="UTF-8"?>
<svg version="1.1" viewBox="0 0 64 64" xmlns="http://www.w3.org/2000/svg">
 <g stroke="#000" stroke-linecap="round" stroke-linejoin="round">
  <path d="m35.994 9.7849-8.0182-0.00592c-3.5444-0.00253-4.0573 8.1927-0.09941 8.2247l8.0846 0.06593c4.2681 0.03444 3.6439-8.2821 0.0331-8.2847zm-0.90173 1.5708c2.794 0.0041 3.2845 4.9673-0.01801 4.9438l-6.2553-0.04438c-3.0625-0.02184-2.6731-4.9125 0.06952-4.9085z" fill="#999" stroke-width=".2663"/>
  <path d="m53.269 4.2832-7.1022 3.219c-3.1395 1.423 0.57209 8.9331 4.0926 7.37l7.1915-3.1921c3.7964-1.6856-0.98355-8.8465-4.1818-7.3968zm3.8e-5 1.7625c2.4758-1.1198 5.433 3.1063 2.4969 4.4133l-5.5609 2.4758c-2.7226 1.212-4.8637-3.3033-2.4334-4.4026z" fill="#999" stroke-width=".26543"/>
  <path d="m36.344 13.202 10.69-2.7255c0.97871-0.24951 1.7476 1.4042 0.5649 1.713l-10.753 2.8075c-0.79566 0.20774-1.3421-1.5806-0.5015-1.795z" fill="#808080" stroke-width=".31483"/>
  <path d="m62.151 4.9041-5.1296 3.0901c-0.84364 0.50818-2.1496-0.85104-1.1327-1.472l5.1309-3.1333z" fill="#808080" stroke-width=".31483"/>
  <path d="m11.097 4.1086 7.1022 3.219c3.1395 1.423-0.57209 8.9331-4.0926 7.37l-7.1915-3.1921c-3.7964-1.6856 0.98355-8.8465 4.1818-7.3968zm-3.7e-5 1.7625c-2.4758-1.1198-5.433 3.1063-2.4969 4.4133l5.5609 2.4758c2.7226 1.212 4.8637-3.3033 2.4334-4.4026z" fill="#999" stroke-width=".26543"/>
  <path d="m28.023 13.028-10.69-2.7255c-0.97871-0.24951-1.7476 1.4042-0.5649 1.713l10.753 2.8075c0.79566 0.20774 1.3421-1.5806 0.5015-1.795z" fill="#808080" stroke-width=".31483"/>
  <path d="m2.2161 4.7295 5.1296 3.0901c0.84364 0.50818 2.1496-0.85104 1.1327-1.472l-5.1309-3.1333z" fill="#808080" stroke-width=".31483"/>
 </g>
 <g transform="matrix(.729 0 0 .729 8.6443 18.562)" fill="#ff8080" fill-rule="evenodd" stroke="#000" stroke-width=".72">
  <path d="m32.895 30.826v-6.5474l-13.956 0.06331 13.94-13.325 0.03746-6.0749-22.148 0.018873-0.06465 6.1837 13.316-0.02234-13.326 13.25 0.10396 6.4829z"/>
  <path d="m32.068 59.176v-4.2957l-9.1567 0.04154 9.1459-8.7427 0.02458-3.9858-14.531 0.01237-0.04241 4.0571 8.7366-0.01466-8.7429 8.6932 0.06821 4.2534z" fill="#ffd5d5"/>
  <path d="m53.366 46.254v-5.3034l-11.305 0.05128 11.291-10.793 0.03034-4.9207-17.94 0.01528-0.05237 5.0088 10.786-0.0181-10.794 10.732 0.08421 5.2511z" fill="#faa"/>
 </g>
</svg>
