<?xml version="1.0" encoding="UTF-8"?>
<svg version="1.1" viewBox="0 0 64 64" xmlns="http://www.w3.org/2000/svg">
 <g fill-rule="evenodd" stroke="#000" stroke-width=".5">
  <path d="m33.257 33.82 7e-6 -11.973-8.6609 0.0766 8.3922-7.7727 0.23228-11.713-27.609 0.02284-0.015909 12.218 8.572-0.08935-8.4594 7.9936 0.00116 11.272z" fill="#ffb380"/>
  <path d="m30.43 31.168v-6.5474l-13.956 0.06331 13.94-13.325 0.03746-6.0749-22.148 0.018873-0.06465 6.1837 13.316-0.02234-13.326 13.25 0.10396 6.4829z" fill="#ff8080"/>
  <path d="m58.405 48.247 5e-6 -9.6981-7.0153 0.06205 6.7977-6.2959 0.18815-9.4874-22.363 0.0185-0.01289 9.8969 6.9433-0.07238-6.8521 6.4748 9.9e-4 9.1301z" fill="#ffb380"/>
  <path d="m56.114 46.098v-5.3034l-11.304 0.05128 11.291-10.793 0.03034-4.9207-17.94 0.01529-0.05237 5.0088 10.786-0.0181-10.794 10.732 0.0842 5.2511z" fill="#faa"/>
  <path d="m33.343 61.538 3e-6 -7.8555-5.6824 0.05026 5.5061-5.0997 0.1524-7.6848-18.114 0.01499-0.01044 8.0165 5.6241-0.05863-5.5502 5.2446 8.02e-4 7.3954z" fill="#ffb380"/>
  <path d="m31.488 59.798v-4.2958l-9.1565 0.04154 9.146-8.7425 0.02458-3.9857-14.531 0.01239-0.04242 4.0571 8.7366-0.01466-8.7432 8.6933 0.0682 4.2534z" fill="#ffd5d5"/>
 </g>
</svg>
