<?xml version="1.0" encoding="UTF-8"?>
<svg version="1.1" viewBox="0 0 64 64" xmlns="http://www.w3.org/2000/svg">
 <g fill="#ffb380" fill-rule="evenodd" stroke="#ffd42a" stroke-linejoin="round" stroke-width=".776">
  <path transform="matrix(.64466 0 0 .62124 -12.759 -19.981)" d="m39.196 50.724c-0.672-6.212-4.468-6.32-6.677-7.217 5.302 3.467 2.572 5.867 0.79 6.8-3.17 1.66-11.433-4.744 0.733-11.069-8.152-1.556-15.393 9.935-3.957 15.499 2.434 1.184 0.23 2.875 6.756 7.328 0 0-0.774 0.607-5.458-1.253 6.738 5.017 10.162 3.284 14.142 8.669-2.025-4.726-7.009-5.784-9.818-10.829-2.054-3.69-0.678-13.17 3.489-7.928zm13.27 0c0.671-6.212 4.467-6.32 6.677-7.217-5.303 3.467-2.572 5.867-0.79 6.8 3.17 1.66 11.433-4.744-0.733-11.069 8.151-1.556 15.392 9.935 3.956 15.499-2.434 1.184-0.23 2.875-6.756 7.328 0 0 0.775 0.607 5.459-1.253-6.739 5.017-10.163 3.284-14.143 8.669 2.026-4.726 7.01-5.784 9.818-10.829 2.054-3.69 0.679-13.17-3.488-7.928z" fill="#ffb380" stroke="#ffd42a" stroke-linejoin="round"/>
 </g>
 <path d="m36.444 34.236c-3.234 9.292-7.914 16.196-12.206 23.744 1.841 0.693 3.6 0.999 5.317 1.11 1.582 0.962 2.905 1.089 4.119 0.865 1.308 0.904 3.242 1.227 6.177 0.619 0.404 1.22 1.811 1.136 3.456 0.74 3.356 0.386 3.477-0.178 4.651-0.432 1.24 0.147 2.481 0.584 3.721-0.37 1.368 0.23 2.604 0.029 3.721-0.557 2.53-0.379 4.355-1.084 5.38-2.161-4.485-7.794-9.236-15.565-12.155-23.469zm0.718 2.159c0.755 3.355-2.637 10.053-3.886 10.25 0.233-1.585 2.09-5.7 3.886-10.25zm7.37 1.004c1.314 2.822 2.282 9.181 1.7 10.482-1.618-1.444-2.268-7.799-1.7-10.482zm-4.043-0.442c1.498 3.064-0.21 8.748-1.327 11.131-1.828-2.439 0.772-4.729 1.327-11.13zm6.712-0.344c1.2 1.857 2.676 7.07 4.24 11.086-2.982-2.122-4.329-9.416-4.24-11.086zm-10.389-5.287v-1.354c-1.554-2.012-1.506-3.284-1.41-5.327 1.703-0.565 2.722-2.056 3.008-4.103l2.537-2.403c-0.027 2.384 0.055 4.75 2.114 6.812 2.167-1.313 2.927-3.715 3.523-6.245 0.996 2.302 0.99 5.3 3.242 6.725-0.32 1.924-0.064 3.647-1.691 6.026z" fill="#ff8080" fill-rule="evenodd" stroke="#ff2a2a" stroke-width=".51"/>
</svg>
