<?xml version="1.0" encoding="UTF-8"?>
<svg version="1.1" viewBox="0 0 64 64" xmlns="http://www.w3.org/2000/svg">
 <g fill="#ff8080" fill-rule="evenodd" stroke="#ff2a2a" stroke-linejoin="round" stroke-width=".776">
  <path transform="matrix(1.1608 0 0 1.1252 -16.424 -16.981)" d="m39.196 50.724c-0.672-6.212-4.468-6.32-6.677-7.217 5.302 3.467 2.572 5.867 0.79 6.8-3.17 1.66-11.433-4.744 0.733-11.069-8.152-1.556-15.393 9.935-3.957 15.499 2.434 1.184 0.23 2.875 6.756 7.328 0 0-0.774 0.607-5.458-1.253 6.738 5.017 10.162 3.284 14.142 8.669-2.025-4.726-7.009-5.784-9.818-10.829-2.054-3.69-0.678-13.17 3.489-7.928zm13.27 0c0.671-6.212 4.467-6.32 6.677-7.217-5.303 3.467-2.572 5.867-0.79 6.8 3.17 1.66 11.433-4.744-0.733-11.069 8.151-1.556 15.392 9.935 3.956 15.499-2.434 1.184-0.23 2.875-6.756 7.328 0 0 0.775 0.607 5.459-1.253-6.739 5.017-10.163 3.284-14.143 8.669 2.026-4.726 7.01-5.784 9.818-10.829 2.054-3.69 0.679-13.17-3.488-7.928z" fill="#ff8080" stroke="#ff2a2a" stroke-linejoin="round"/>
 </g>
 <path d="m10.174 10.488c-1.667 4.872-4.079 8.493-6.29 12.45a9.236 9.236 0 0 0 2.74 0.583c0.815 0.504 1.497 0.57 2.123 0.453 0.674 0.474 1.67 0.643 3.183 0.324 0.208 0.64 0.934 0.596 1.782 0.389 1.73 0.202 1.791-0.094 2.397-0.227 0.639 0.077 1.278 0.306 1.917-0.194 0.705 0.12 1.342 0.015 1.918-0.292 1.303-0.199 2.244-0.568 2.773-1.134-2.313-4.085-4.76-8.161-6.265-12.306zm0.37 1.132c0.39 1.759-1.359 5.271-2.002 5.375 0.12-0.831 1.077-2.99 2.003-5.375zm3.799 0.526c0.677 1.48 1.176 4.815 0.876 5.497-0.834-0.758-1.169-4.09-0.876-5.497zm-2.084-0.231c0.772 1.606-0.108 4.587-0.684 5.836-0.942-1.278 0.398-2.48 0.684-5.836zm3.459-0.181c0.62 0.974 1.38 3.708 2.185 5.813-1.537-1.112-2.23-4.938-2.185-5.813zm-5.354-2.772v-0.71c-0.801-1.056-0.776-1.723-0.726-2.794 0.877-0.296 1.402-1.078 1.55-2.152l1.307-1.26c-0.014 1.25 0.028 2.492 1.09 3.572 1.115-0.688 1.507-1.948 1.815-3.274 0.513 1.207 0.51 2.779 1.671 3.526-0.164 1.009-0.033 1.913-0.872 3.16z" fill="#ffb380" fill-rule="evenodd" stroke="#ff7f2a" stroke-width=".265"/>
</svg>
