<?xml version="1.0" encoding="UTF-8"?>
<svg version="1.1" viewBox="0 0 64 64" xmlns="http://www.w3.org/2000/svg">
 <ellipse cx="31.861" cy="32.81" rx="23.947" ry="23.608" fill="#ff8080" stroke="#000" stroke-linecap="round" stroke-linejoin="round"/>
 <path d="m33.183 12.326c8.462 1.116 16.427 3.742 20.246 18.98-11.69-16.704-13.196-13.754-20.246-18.98z" fill="#f9f9f9" fill-rule="evenodd"/>
 <path d="m42.087 53.714c-21.988 9.273-40.585-11.535-31.666-30.378 0.168 16.137 12.616 31.992 31.666 30.378z" fill-opacity=".449" fill-rule="evenodd"/>
 <g transform="matrix(.53144 0 0 .53144 54.437 19.188)" stroke="#000" stroke-linecap="round" stroke-linejoin="round" stroke-width=".5">
  <g>
   <path d="m-73.593 20.667c3.5901 30.607 35.936 48.528 55.664 30.044 21.081-32.081-14.933-56.782-35.701-53.846-5.4323 3.1982-6.6113 6.9418-10.329 10.982-3.9516 4.2951-8.3378 6.5475-9.6343 12.82z" fill="#f55"/>
   <path d="m-30.863 42.365c-0.61306 0.13936-5.837 4.9763-0.42165 8.7356l3.3587 0.76319c0.33238 1.9558 2.019 2.4933 3.5429 3.2013 4.9953-2.369 7.4493-6.4345 9.8746-10.519-0.87894-1.6972-2.3281-2.6415-4.4634-2.6801l-1.4108-4.2892c-2.7168-3.379-8.1987-1.0956-8.5912 3.8415z" fill="#faa"/>
   <ellipse transform="rotate(-42.237)" cx="-48.99" cy="20.95" rx="3.6554" ry="3.8352" fill="#ff2a2a"/>
  </g>
  <g fill="#f55">
   <path d="m-31.003 43.169c-1.8765 1.9401-2.8682 5.9138 0.041 7.1053 2.1779 0.23838 4.2209 1.0577 6.6033 0.41472 2.377-1.8184 0.20011-4.3531-0.66707-4.7813-2.2774-1.5062-3.5531-2.8369-5.9773-2.7387z"/>
   <path d="m-24.613 45.755c-1.4705-1.5975-2.5365-3.038-3.6185-4.4848 0.13516-3.4656 5.0253-5.945 7.1612-3.5232 0.57674 2.1311 1.0122 4.3905 1.0709 6.992-0.48633 1.5955-1.7861 3.733-4.6137 1.016z"/>
   <path d="m-21.994 50.209c-1.8724 0.56683-3.5309 0.9395-5.2766 1.3913 0.02661 0.26472 0.50779 2.2844 3.1118 2.6786 1.7303-0.0628 3.917-0.90784 4.7883-1.8221 0.22633-0.75157 0.36288-3.1101-2.6235-2.2477z"/>
   <path d="m-19.147 43.253c1.0127-0.05824 3.6459-0.55881 4.0486 2.605-0.37678 1.5007-0.82119 2.015-1.6861 4.3475-1.7972 1.8208-3.7487-0.57286-3.6883-1.281-0.11031-2.1318 0.83257-3.6558 1.3258-5.6715z"/>
  </g>
 </g>
</svg>
