<?xml version="1.0" encoding="UTF-8"?>
<svg version="1.1" viewBox="0 0 64 64" xmlns="http://www.w3.org/2000/svg" xmlns:xlink="http://www.w3.org/1999/xlink">
 <defs>
  <radialGradient id="radialGradient4236" cx="109.7" cy="-5.149" r="38.243" gradientTransform="matrix(.0015222 .62797 -.82394 .0020011 -27.964 -44.728)" gradientUnits="userSpaceOnUse">
   <stop stop-color="#ffd5d5" offset="0"/>
   <stop stop-color="#faa" offset=".812"/>
   <stop stop-color="#f55" offset="1"/>
  </radialGradient>
 </defs>
 <ellipse cx="31.861" cy="32.81" rx="23.947" ry="23.608" fill="#ff8080" stroke="#000" stroke-linecap="round" stroke-linejoin="round"/>
 <path d="m42.087 53.714c-21.988 9.273-40.585-11.535-31.666-30.378 0.168 16.137 12.616 31.992 31.666 30.378z" fill-opacity=".449" fill-rule="evenodd"/>
 <path d="m33.183 12.326c8.462 1.116 16.427 3.742 20.246 18.98-11.69-16.704-13.196-13.754-20.246-18.98z" fill="#f9f9f9" fill-rule="evenodd"/>
 <g transform="matrix(.6561 0 0 .6561 46.855 8.1752)">
  <g fill-rule="evenodd">
   <path d="m-44.918 39.463 1.64 7.674c13.502 14.531 37.292 4.766 42.412-1.348l1.875-7.44z" fill="#ff2a2a" stroke="#000" stroke-width=".6561"/>
   <path d="m-45.328 42.568c-0.82012 2.2996 3.9458 5.9095 7.4402 4.9798 7.1515 2.5575 11.72 3.3527 12.009 1.2302 3.2129-0.77945 9.316 3.1453 16.285-1.8161 3.0332-1.8128 8.2695-0.26178 8.6697-6.0925 2.4118-1.2427 4.0875-2.9767 1.406-7.6154 1.86-0.79191-1.9486-2.7169-4.5107-4.3932-0.44221-1.0708 1.6376-1.8259-7.0295-3.9248 0.83194-1.3273-3.7004-2.2419-6.62-3.2805-2.4781-1.7649-11.831-1.7419-11.247-0.05905-3.0246 1.1095-9.5082 1.8732-8.3771 3.3979-2.9315 1.4421-8.3128 2.7268-6.8536 4.4523-2.6113 2.4092-3.0279 4.945-3.1053 7.4979-1.055 3.3067 0.03543 4.8053 1.9335 5.6241z" fill="url(#radialGradient4236)" stroke="#000" stroke-width=".6561"/>
   <path d="m-44.414 29.655c0.766 0.552 1.64 0.813 2.235 0.87-0.546-0.27-1.259-0.718-1.793-1.355zm6.976-4.289c0.8 0.542 1.382 0.546 1.878 0.546-0.487-0.226-0.894-0.42-1.45-1.043zm-8.146 17.443c1.126 0.31 1.765 0.05 2.423-0.205-0.75 0.05-1.29 0.051-2.19-0.409zm46.161-9.925c-0.924 0.37-2.022 0.674-2.923 0.95 0.926-0.059 2.088-0.15 3.098-0.318zm-26.394 15.577c-0.297 0.04-0.672 0.104-1.092 0.1-0.398-4e-3 -0.817-0.07-1.092-0.317 0.205 0.334 0.614 0.523 1.045 0.642 0.33 0.09 0.958 0.188 1.103 0.23zm24.948-7.919c-0.21 0.075-0.67 0.174-1.12 0.252-0.224 0.039-0.446 0.072-0.63 0.094a2.465 2.465 0 0 1-0.419 0.026c0.07 0.06 0.225 0.105 0.414 0.138 0.19 0.033 0.42 0.054 0.651 0.07 0.463 0.03 0.947 0.04 1.167 0.073zm-36.971 7.03 0.187-0.27c-0.583-0.275-1.525-0.589-2.018-1.02 0.346 0.602 1.24 1.137 1.644 1.56z"/>
  </g>
  <path d="m-24.161 42.923c0.622 1.243 2.845 1.63 6.67 1.16 2.704 0.539 4.088-0.332 4.308-2.444 3.69 0.37 5.144 0.106 4.97-0.621m-34.857-4.557c-0.306 0.953 0.195 1.685 1.702 2.582 0.314 2.468 4.015 3.836 6.21 3.466m-1.346-13.297c-0.265 2.4-0.382 4.711 2.816 5.054 1.11 1.243 2.488 2.082 5.344 0.704m11.35-0.414c2.316 0.839 4.763 1.982 5.799-0.166 2.552-0.296 3.23-1.195 2.692-2.485m-21.084-4.184c-0.57 1.018 3.694 2.473 4.35 1.616m7.953 0.082c5.097 0.145 4.437-0.757 4.929-1.45m-27.36 22.038-0.02-2.362m5.716 1.119-0.249 4.184m23.57-5.219c0.041 0.165 0.166 4.059 0.166 4.059m1.781-5.302c0 0.207-0.083 4.39-0.083 4.39m5.716-6.006 0.083 2.775m-14.829 1.824-0.042 4.348m-19.634-6.088-0.166 3.686m11.102-1.533-0.249 4.681" fill="none" stroke="#000" stroke-width=".32805"/>
 </g>
</svg>
